<svg xmlns="http://www.w3.org/2000/svg" preserveAspectRatio="none" viewBox="0 0 100 1"><rect fill="#2563EB" height="0.6204337232208887" width="1" x="0" y="0.37956627677911126"/><rect fill="#2563EB" height="0.7037416594735318" width="1" x="1" y="0.29625834052646816"/><rect fill="#2563EB" height="0.7290856305001329" width="1" x="2" y="0.27091436949986714"/><rect fill="#2563EB" height="0.9159340939951996" width="1" x="3" y="0.08406590600480035"/><rect fill="#2563EB" height="0.7044650374388516" width="1" x="4" y="0.2955349625611484"/><rect fill="#2563EB" height="0.5670211009785966" width="1" x="5" y="0.4329788990214034"/><rect fill="#2563EB" height="0.9673657027693845" width="1" x="6" y="0.032634297230615505"/><rect fill="#2563EB" height="0.7202258117263292" width="1" x="7" y="0.27977418827367084"/><rect fill="#2563EB" height="0.7033490369221166" width="1" x="8" y="0.2966509630778834"/><rect fill="#2563EB" height="0.9083794155285845" width="1" x="9" y="0.09162058447141552"/><rect fill="#2563EB" height="0.7012251162415666" width="1" x="10" y="0.2987748837584334"/><rect fill="#2563EB" height="0.6390370245411172" width="1" x="11" y="0.3609629754588828"/><rect fill="#2563EB" height="0.7961424797973727" width="1" x="12" y="0.20385752020262726"/><rect fill="#2563EB" height="0.8890544748762481" width="1" x="13" y="0.11094552512375189"/><rect fill="#2563EB" height="0.6767836024762067" width="1" x="14" y="0.3232163975237933"/><rect fill="#2563EB" height="0.7641584042928473" width="1" x="15" y="0.23584159570715268"/><rect fill="#2563EB" height="0.6937988586548449" width="1" x="16" y="0.3062011413451551"/><rect fill="#2563EB" height="0.6183465715694838" width="1" x="17" y="0.3816534284305162"/><rect fill="#2563EB" height="0.66396857520445" width="1" x="18" y="0.33603142479555004"/><rect fill="#2563EB" height="0.7953493188204338" width="1" x="19" y="0.2046506811795662"/><rect fill="#2563EB" height="0.6582531803534606" width="1" x="20" y="0.3417468196465394"/><rect fill="#2563EB" height="0.758264781926362" width="1" x="21" y="0.24173521807363796"/><rect fill="#2563EB" height="0.932459925185235" width="1" x="22" y="0.06754007481476498"/><rect fill="#2563EB" height="0.6911803313923638" width="1" x="23" y="0.3088196686076362"/><rect fill="#2563EB" height="0.5938443844573915" width="1" x="24" y="0.4061556155426085"/><rect fill="#2563EB" height="0.8931893183044823" width="1" x="25" y="0.10681068169551766"/><rect fill="#2563EB" height="0.786607358541984" width="1" x="26" y="0.21339264145801595"/><rect fill="#2563EB" height="0.773874392849024" width="1" x="27" y="0.22612560715097596"/><rect fill="#2563EB" height="0.8793095293409" width="1" x="28" y="0.12069047065909999"/><rect fill="#2563EB" height="0.7312803544114038" width="1" x="29" y="0.2687196455885962"/><rect fill="#2563EB" height="0.6838565398056103" width="1" x="30" y="0.31614346019438966"/><rect fill="#2563EB" height="0.8344471963022875" width="1" x="31" y="0.16555280369771253"/><rect fill="#2563EB" height="0.7954399793017722" width="1" x="32" y="0.20456002069822776"/><rect fill="#2563EB" height="0.6771036951501619" width="1" x="33" y="0.3228963048498381"/><rect fill="#2563EB" height="0.828141598250103" width="1" x="34" y="0.17185840174989697"/><rect fill="#2563EB" height="0.8000796283939724" width="1" x="35" y="0.1999203716060276"/><rect fill="#2563EB" height="0.8417277511025402" width="1" x="36" y="0.15827224889745983"/><rect fill="#2563EB" height="0.8624945386311373" width="1" x="37" y="0.13750546136886266"/><rect fill="#2563EB" height="0.9157567439120475" width="1" x="38" y="0.08424325608795247"/><rect fill="#2563EB" height="0.6899953250825092" width="1" x="39" y="0.31000467491749084"/><rect fill="#2563EB" height="0.8624696320326009" width="1" x="40" y="0.13753036796739915"/><rect fill="#2563EB" height="0.9417975746159235" width="1" x="41" y="0.058202425384076495"/><rect fill="#2563EB" height="0.72714715702274" width="1" x="42" y="0.27285284297726"/><rect fill="#2563EB" height="0.7437662111488001" width="1" x="43" y="0.25623378885119985"/><rect fill="#2563EB" height="0.9747508011454216" width="1" x="44" y="0.025249198854578436"/><rect fill="#2563EB" height="0.7915367056626339" width="1" x="45" y="0.2084632943373661"/><rect fill="#2563EB" height="0.7123604511592957" width="1" x="46" y="0.2876395488407043"/><rect fill="#2563EB" height="0.9639364002060183" width="1" x="47" y="0.03606359979398166"/><rect fill="#2563EB" height="0.7716239640380027" width="1" x="48" y="0.2283760359619973"/><rect fill="#2563EB" height="0.8139325027785029" width="1" x="49" y="0.18606749722149707"/><rect fill="#2563EB" height="0.7741252408564893" width="1" x="50" y="0.22587475914351074"/><rect fill="#2563EB" height="0.6080759241466246" width="1" x="51" y="0.3919240758533754"/><rect fill="#2563EB" height="0.48709130012898477" width="1" x="52" y="0.5129086998710153"/><rect fill="#2563EB" height="0.538339075507098" width="1" x="53" y="0.46166092449290197"/><rect fill="#2563EB" height="0.541042720749176" width="1" x="54" y="0.45895727925082397"/><rect fill="#2563EB" height="0.622726344326167" width="1" x="55" y="0.377273655673833"/><rect fill="#2563EB" height="0.6153545135624315" width="1" x="56" y="0.38464548643756846"/><rect fill="#2563EB" height="0.5331291850707849" width="1" x="57" y="0.4668708149292151"/><rect fill="#2563EB" height="0.6306229092887216" width="1" x="58" y="0.36937709071127844"/><rect fill="#2563EB" height="0.5887441798667375" width="1" x="59" y="0.41125582013326245"/><rect fill="#2563EB" height="0.5134711976158669" width="1" x="60" y="0.4865288023841331"/><rect fill="#2563EB" height="0.5461743161491692" width="1" x="61" y="0.4538256838508308"/><rect fill="#2563EB" height="0.5911660053199925" width="1" x="62" y="0.4088339946800075"/><rect fill="#2563EB" height="0.5994696376141381" width="1" x="63" y="0.4005303623858619"/><rect fill="#2563EB" height="0.573837374001319" width="1" x="64" y="0.42616262599868104"/><rect fill="#2563EB" height="0.6122957785866404" width="1" x="65" y="0.3877042214133596"/><rect fill="#2563EB" height="0.6104369112495897" width="1" x="66" y="0.38956308875041035"/><rect fill="#2563EB" height="0.5613185912429814" width="1" x="67" y="0.43868140875701855"/><rect fill="#2563EB" height="0.6566747511283727" width="1" x="68" y="0.3433252488716273"/><rect fill="#2563EB" height="0.6080669674916809" width="1" x="69" y="0.3919330325083191"/><rect fill="#2563EB" height="0.9105341933634925" width="1" x="70" y="0.0894658066365075"/><rect fill="#2563EB" height="0.7521010045699434" width="1" x="71" y="0.24789899543005656"/><rect fill="#2563EB" height="0.9629678160788279" width="1" x="72" y="0.037032183921172135"/><rect fill="#2563EB" height="0.7931763966552682" width="1" x="73" y="0.20682360334473182"/><rect fill="#2563EB" height="0.705768568683496" width="1" x="74" y="0.294231431316504"/><rect fill="#2563EB" height="0.8886237012139417" width="1" x="75" y="0.11137629878605826"/><rect fill="#2563EB" height="0.9059489268098007" width="1" x="76" y="0.09405107319019934"/><rect fill="#2563EB" height="0.7958050957198278" width="1" x="77" y="0.20419490428017217"/><rect fill="#2563EB" height="0.8961761284267211" width="1" x="78" y="0.10382387157327888"/><rect fill="#2563EB" height="0.9791614283637532" width="1" x="79" y="0.020838571636246805"/><rect fill="#2563EB" height="0.7811992228441358" width="1" x="80" y="0.2188007771558642"/><rect fill="#2563EB" height="0.7964878481094461" width="1" x="81" y="0.20351215189055394"/><rect fill="#2563EB" height="1" width="1" x="82" y="0"/><rect fill="#2563EB" height="0.8010707405258451" width="1" x="83" y="0.19892925947415485"/><rect fill="#2563EB" height="0.7789971805627902" width="1" x="84" y="0.22100281943720979"/><rect fill="#2563EB" height="0.9902006612760078" width="1" x="85" y="0.00979933872399219"/><rect fill="#2563EB" height="0.8022177022559371" width="1" x="86" y="0.19778229774406286"/><rect fill="#2563EB" height="0.7932632610637143" width="1" x="87" y="0.20673673893628575"/><rect fill="#2563EB" height="0.9633324091239909" width="1" x="88" y="0.036667590876009126"/><rect fill="#2563EB" height="0.8673126805747201" width="1" x="89" y="0.1326873194252799"/><rect fill="#2563EB" height="0.8235270522754837" width="1" x="90" y="0.17647294772451627"/><rect fill="#2563EB" height="0.9402246143141272" width="1" x="91" y="0.05977538568587282"/><rect fill="#2563EB" height="0.8738766210388154" width="1" x="92" y="0.12612337896118464"/><rect fill="#2563EB" height="0.8593026404005222" width="1" x="93" y="0.14069735959947782"/><rect fill="#2563EB" height="0.9102819474471272" width="1" x="94" y="0.0897180525528728"/><rect fill="#2563EB" height="0.09459356263599314" width="1" x="95" y="0.9054064373640068"/><rect fill="#2563EB" height="0.007209366041732095" width="1" x="96" y="0.9927906339582679"/><rect fill="#2563EB" height="0.002464640275253773" width="1" x="97" y="0.9975353597247463"/><rect fill="#2563EB" height="0.0008030856523849377" width="1" x="98" y="0.999196914347615"/><rect fill="#2563EB" height="0.0002505868455350179" width="1" x="99" y="0.999749413154465"/></svg>