<svg xmlns="http://www.w3.org/2000/svg" preserveAspectRatio="none" viewBox="0 0 100 1"><rect fill="#2563EB" height="0.62" width="1" x="0" y="0.38"/><rect fill="#2563EB" height="0.704" width="1" x="1" y="0.296"/><rect fill="#2563EB" height="0.729" width="1" x="2" y="0.271"/><rect fill="#2563EB" height="0.916" width="1" x="3" y="0.083"/><rect fill="#2563EB" height="0.704" width="1" x="4" y="0.296"/><rect fill="#2563EB" height="0.567" width="1" x="5" y="0.433"/><rect fill="#2563EB" height="0.967" width="1" x="6" y="0.033"/><rect fill="#2563EB" height="0.72" width="1" x="7" y="0.28"/><rect fill="#2563EB" height="0.703" width="1" x="8" y="0.297"/><rect fill="#2563EB" height="0.908" width="1" x="9" y="0.091"/><rect fill="#2563EB" height="0.701" width="1" x="10" y="0.299"/><rect fill="#2563EB" height="0.639" width="1" x="11" y="0.361"/><rect fill="#2563EB" height="0.796" width="1" x="12" y="0.203"/><rect fill="#2563EB" height="0.889" width="1" x="13" y="0.110"/><rect fill="#2563EB" height="0.677" width="1" x="14" y="0.322"/><rect fill="#2563EB" height="0.764" width="1" x="15" y="0.236"/><rect fill="#2563EB" height="0.694" width="1" x="16" y="0.306"/><rect fill="#2563EB" height="0.618" width="1" x="17" y="0.382"/><rect fill="#2563EB" height="0.664" width="1" x="18" y="0.335"/><rect fill="#2563EB" height="0.795" width="1" x="19" y="0.204"/><rect fill="#2563EB" height="0.658" width="1" x="20" y="0.341"/><rect fill="#2563EB" height="0.758" width="1" x="21" y="0.242"/><rect fill="#2563EB" height="0.932" width="1" x="22" y="0.067"/><rect fill="#2563EB" height="0.691" width="1" x="23" y="0.309"/><rect fill="#2563EB" height="0.594" width="1" x="24" y="0.406"/><rect fill="#2563EB" height="0.893" width="1" x="25" y="0.106"/><rect fill="#2563EB" height="0.787" width="1" x="26" y="0.212"/><rect fill="#2563EB" height="0.774" width="1" x="27" y="0.225"/><rect fill="#2563EB" height="0.879" width="1" x="28" y="0.121"/><rect fill="#2563EB" height="0.731" width="1" x="29" y="0.269"/><rect fill="#2563EB" height="0.684" width="1" x="30" y="0.315"/><rect fill="#2563EB" height="0.834" width="1" x="31" y="0.166"/><rect fill="#2563EB" height="0.795" width="1" x="32" y="0.204"/><rect fill="#2563EB" height="0.677" width="1" x="33" y="0.322"/><rect fill="#2563EB" height="0.828" width="1" x="34" y="0.172"/><rect fill="#2563EB" height="0.8" width="1" x="35" y="0.199"/><rect fill="#2563EB" height="0.842" width="1" x="36" y="0.158"/><rect fill="#2563EB" height="0.862" width="1" x="37" y="0.138"/><rect fill="#2563EB" height="0.916" width="1" x="38" y="0.083"/><rect fill="#2563EB" height="0.69" width="1" x="39" y="0.310"/><rect fill="#2563EB" height="0.862" width="1" x="40" y="0.138"/><rect fill="#2563EB" height="0.942" width="1" x="41" y="0.058"/><rect fill="#2563EB" height="0.727" width="1" x="42" y="0.273"/><rect fill="#2563EB" height="0.744" width="1" x="43" y="0.256"/><rect fill="#2563EB" height="0.975" width="1" x="44" y="0.025"/><rect fill="#2563EB" height="0.792" width="1" x="45" y="0.207"/><rect fill="#2563EB" height="0.712" width="1" x="46" y="0.288"/><rect fill="#2563EB" height="0.964" width="1" x="47" y="0.036"/><rect fill="#2563EB" height="0.772" width="1" x="48" y="0.227"/><rect fill="#2563EB" height="0.814" width="1" x="49" y="0.186"/><rect fill="#2563EB" height="0.774" width="1" x="50" y="0.225"/><rect fill="#2563EB" height="0.608" width="1" x="51" y="0.392"/><rect fill="#2563EB" height="0.487" width="1" x="52" y="0.513"/><rect fill="#2563EB" height="0.538" width="1" x="53" y="0.461"/><rect fill="#2563EB" height="0.541" width="1" x="54" y="0.458"/><rect fill="#2563EB" height="0.623" width="1" x="55" y="0.377"/><rect fill="#2563EB" height="0.615" width="1" x="56" y="0.385"/><rect fill="#2563EB" height="0.533" width="1" x="57" y="0.466"/><rect fill="#2563EB" height="0.631" width="1" x="58" y="0.369"/><rect fill="#2563EB" height="0.589" width="1" x="59" y="0.411"/><rect fill="#2563EB" height="0.513" width="1" x="60" y="0.487"/><rect fill="#2563EB" height="0.546" width="1" x="61" y="0.453"/><rect fill="#2563EB" height="0.591" width="1" x="62" y="0.409"/><rect fill="#2563EB" height="0.599" width="1" x="63" y="0.401"/><rect fill="#2563EB" height="0.574" width="1" x="64" y="0.426"/><rect fill="#2563EB" height="0.612" width="1" x="65" y="0.388"/><rect fill="#2563EB" height="0.61" width="1" x="66" y="0.39"/><rect fill="#2563EB" height="0.561" width="1" x="67" y="0.438"/><rect fill="#2563EB" height="0.657" width="1" x="68" y="0.342"/><rect fill="#2563EB" height="0.608" width="1" x="69" y="0.392"/><rect fill="#2563EB" height="0.911" width="1" x="70" y="0.088"/><rect fill="#2563EB" height="0.752" width="1" x="71" y="0.248"/><rect fill="#2563EB" height="0.963" width="1" x="72" y="0.037"/><rect fill="#2563EB" height="0.793" width="1" x="73" y="0.206"/><rect fill="#2563EB" height="0.706" width="1" x="74" y="0.294"/><rect fill="#2563EB" height="0.889" width="1" x="75" y="0.110"/><rect fill="#2563EB" height="0.906" width="1" x="76" y="0.093"/><rect fill="#2563EB" height="0.796" width="1" x="77" y="0.203"/><rect fill="#2563EB" height="0.896" width="1" x="78" y="0.103"/><rect fill="#2563EB" height="0.979" width="1" x="79" y="0.021"/><rect fill="#2563EB" height="0.781" width="1" x="80" y="0.218"/><rect fill="#2563EB" height="0.796" width="1" x="81" y="0.203"/><rect fill="#2563EB" height="1" width="1" x="82" y="0"/><rect fill="#2563EB" height="0.801" width="1" x="83" y="0.198"/><rect fill="#2563EB" height="0.779" width="1" x="84" y="0.220"/><rect fill="#2563EB" height="0.99" width="1" x="85" y="0.010"/><rect fill="#2563EB" height="0.802" width="1" x="86" y="0.197"/><rect fill="#2563EB" height="0.793" width="1" x="87" y="0.206"/><rect fill="#2563EB" height="0.963" width="1" x="88" y="0.037"/><rect fill="#2563EB" height="0.867" width="1" x="89" y="0.133"/><rect fill="#2563EB" height="0.824" width="1" x="90" y="0.176"/><rect fill="#2563EB" height="0.94" width="1" x="91" y="0.060"/><rect fill="#2563EB" height="0.874" width="1" x="92" y="0.126"/><rect fill="#2563EB" height="0.859" width="1" x="93" y="0.141"/><rect fill="#2563EB" height="0.91" width="1" x="94" y="0.089"/><rect fill="#2563EB" height="0.095" width="1" x="95" y="0.905"/><rect fill="#2563EB" height="0.007" width="1" x="96" y="0.993"/><rect fill="#2563EB" height="0.002" width="1" x="97" y="0.998"/><rect fill="#2563EB" height="0.001" width="1" x="98" y="0.999"/><rect fill="#2563EB" height="0" width="1" x="99" y="1"/></svg>