<svg xmlns="http://www.w3.org/2000/svg" preserveAspectRatio="none" viewBox="0 0 100 1"><rect fill="#2563EB" height="0.23446464368039616" width="1" x="0" y="0.7655353563196039"/><rect fill="#2563EB" height="0.4210155840757384" width="1" x="1" y="0.5789844159242616"/><rect fill="#2563EB" height="0.5005167942383001" width="1" x="2" y="0.4994832057616999"/><rect fill="#2563EB" height="0.3756847593266755" width="1" x="3" y="0.6243152406733246"/><rect fill="#2563EB" height="0.4303331722035878" width="1" x="4" y="0.5696668277964122"/><rect fill="#2563EB" height="0.4468146815953089" width="1" x="5" y="0.5531853184046911"/><rect fill="#2563EB" height="0.45525812199487947" width="1" x="6" y="0.5447418780051205"/><rect fill="#2563EB" height="0.6510637349214488" width="1" x="7" y="0.34893626507855124"/><rect fill="#2563EB" height="0.6955332965941265" width="1" x="8" y="0.30446670340587345"/><rect fill="#2563EB" height="0.5790121468423504" width="1" x="9" y="0.42098785315764964"/><rect fill="#2563EB" height="0.5491614614333058" width="1" x="10" y="0.4508385385666942"/><rect fill="#2563EB" height="0.6602870143621467" width="1" x="11" y="0.33971298563785335"/><rect fill="#2563EB" height="0.6511956433998393" width="1" x="12" y="0.34880435660016074"/><rect fill="#2563EB" height="0.6159408534821433" width="1" x="13" y="0.38405914651785666"/><rect fill="#2563EB" height="0.679744413131281" width="1" x="14" y="0.320255586868719"/><rect fill="#2563EB" height="0.6520056655443739" width="1" x="15" y="0.3479943344556261"/><rect fill="#2563EB" height="0.5901332518119001" width="1" x="16" y="0.40986674818809987"/><rect fill="#2563EB" height="0.6321388263930837" width="1" x="17" y="0.3678611736069163"/><rect fill="#2563EB" height="0.6909269584844975" width="1" x="18" y="0.3090730415155025"/><rect fill="#2563EB" height="0.6171220488003368" width="1" x="19" y="0.38287795119966317"/><rect fill="#2563EB" height="0.5408383690296618" width="1" x="20" y="0.45916163097033824"/><rect fill="#2563EB" height="0.7596312283065602" width="1" x="21" y="0.24036877169343984"/><rect fill="#2563EB" height="0.7421301478040043" width="1" x="22" y="0.2578698521959957"/><rect fill="#2563EB" height="0.5631689281864848" width="1" x="23" y="0.4368310718135152"/><rect fill="#2563EB" height="0.7119879411096688" width="1" x="24" y="0.2880120588903312"/><rect fill="#2563EB" height="0.7727982785016497" width="1" x="25" y="0.22720172149835027"/><rect fill="#2563EB" height="0.6297805021603092" width="1" x="26" y="0.37021949783969077"/><rect fill="#2563EB" height="0.772027605924694" width="1" x="27" y="0.227972394075306"/><rect fill="#2563EB" height="0.6741145333003912" width="1" x="28" y="0.32588546669960883"/><rect fill="#2563EB" height="0.6856366333082791" width="1" x="29" y="0.31436336669172094"/><rect fill="#2563EB" height="0.6167812870721011" width="1" x="30" y="0.3832187129278989"/><rect fill="#2563EB" height="0.6925883882397108" width="1" x="31" y="0.3074116117602892"/><rect fill="#2563EB" height="0.6518288038189529" width="1" x="32" y="0.3481711961810471"/><rect fill="#2563EB" height="0.571304733069521" width="1" x="33" y="0.428695266930479"/><rect fill="#2563EB" height="0.6847247969972395" width="1" x="34" y="0.31527520300276046"/><rect fill="#2563EB" height="0.6700589666512062" width="1" x="35" y="0.32994103334879377"/><rect fill="#2563EB" height="0.6388083241957518" width="1" x="36" y="0.36119167580424816"/><rect fill="#2563EB" height="0.5922438860033025" width="1" x="37" y="0.40775611399669753"/><rect fill="#2563EB" height="0.6652482745399428" width="1" x="38" y="0.33475172546005716"/><rect fill="#2563EB" height="0.663428274074206" width="1" x="39" y="0.336571725925794"/><rect fill="#2563EB" height="0.5754422360052895" width="1" x="40" y="0.42455776399471046"/><rect fill="#2563EB" height="0.7463315636143982" width="1" x="41" y="0.25366843638560177"/><rect fill="#2563EB" height="0.7904903165959267" width="1" x="42" y="0.20950968340407328"/><rect fill="#2563EB" height="0.6795186611046187" width="1" x="43" y="0.32048133889538133"/><rect fill="#2563EB" height="0.6496479118646301" width="1" x="44" y="0.3503520881353699"/><rect fill="#2563EB" height="0.7914623859212541" width="1" x="45" y="0.20853761407874594"/><rect fill="#2563EB" height="0.7177329508218925" width="1" x="46" y="0.2822670491781075"/><rect fill="#2563EB" height="0.8301781119434914" width="1" x="47" y="0.16982188805650855"/><rect fill="#2563EB" height="0.5608532658307098" width="1" x="48" y="0.4391467341692902"/><rect fill="#2563EB" height="0.7530530665625648" width="1" x="49" y="0.24694693343743523"/><rect fill="#2563EB" height="0.740389796492523" width="1" x="50" y="0.259610203507477"/><rect fill="#2563EB" height="0.6983979630374423" width="1" x="51" y="0.3016020369625577"/><rect fill="#2563EB" height="0.6366307784350763" width="1" x="52" y="0.3633692215649237"/><rect fill="#2563EB" height="0.6663302290816973" width="1" x="53" y="0.33366977091830274"/><rect fill="#2563EB" height="0.6763181398007599" width="1" x="54" y="0.32368186019924006"/><rect fill="#2563EB" height="0.7312976368212583" width="1" x="55" y="0.26870236317874174"/><rect fill="#2563EB" height="1" width="1" x="56" y="0"/><rect fill="#2563EB" height="0.964425595992394" width="1" x="57" y="0.03557440400760603"/><rect fill="#2563EB" height="0.8947718566628663" width="1" x="58" y="0.1052281433371337"/><rect fill="#2563EB" height="0.8431532837508612" width="1" x="59" y="0.15684671624913882"/><rect fill="#2563EB" height="0.9417154150014199" width="1" x="60" y="0.058284584998580136"/><rect fill="#2563EB" height="0.8852922994494112" width="1" x="61" y="0.11470770055058876"/><rect fill="#2563EB" height="0.8496360591218861" width="1" x="62" y="0.1503639408781139"/><rect fill="#2563EB" height="0.8456304113036813" width="1" x="63" y="0.15436958869631867"/><rect fill="#2563EB" height="0.6800854793826703" width="1" x="64" y="0.3199145206173297"/><rect fill="#2563EB" height="0.5656811785616027" width="1" x="65" y="0.4343188214383973"/><rect fill="#2563EB" height="0.6259222698498924" width="1" x="66" y="0.3740777301501076"/><rect fill="#2563EB" height="0.6754387757271032" width="1" x="67" y="0.3245612242728968"/><rect fill="#2563EB" height="0.6529093871302311" width="1" x="68" y="0.34709061286976894"/><rect fill="#2563EB" height="0.6080098129689152" width="1" x="69" y="0.3919901870310848"/><rect fill="#2563EB" height="0.643751086367491" width="1" x="70" y="0.356248913632509"/><rect fill="#2563EB" height="0.6532298570687726" width="1" x="71" y="0.34677014293122743"/><rect fill="#2563EB" height="0.5497691576781308" width="1" x="72" y="0.45023084232186916"/><rect fill="#2563EB" height="0.6729792815182525" width="1" x="73" y="0.3270207184817475"/><rect fill="#2563EB" height="0.6767691371355229" width="1" x="74" y="0.3232308628644771"/><rect fill="#2563EB" height="0.5807403145633041" width="1" x="75" y="0.4192596854366959"/><rect fill="#2563EB" height="0.5422570403289965" width="1" x="76" y="0.45774295967100354"/><rect fill="#2563EB" height="0.7664412951030934" width="1" x="77" y="0.23355870489690655"/><rect fill="#2563EB" height="0.7974214182741594" width="1" x="78" y="0.20257858172584065"/><rect fill="#2563EB" height="0.6644162015488176" width="1" x="79" y="0.33558379845118236"/><rect fill="#2563EB" height="0.6935583065463309" width="1" x="80" y="0.3064416934536691"/><rect fill="#2563EB" height="0.8093871721315251" width="1" x="81" y="0.1906128278684749"/><rect fill="#2563EB" height="0.692680255752287" width="1" x="82" y="0.307319744247713"/><rect fill="#2563EB" height="0.7134711836599216" width="1" x="83" y="0.28652881634007843"/><rect fill="#2563EB" height="0.33233302467118214" width="1" x="84" y="0.6676669753288178"/><rect fill="#2563EB" height="0.37258415711117016" width="1" x="85" y="0.6274158428888299"/><rect fill="#2563EB" height="0.37634256482564377" width="1" x="86" y="0.6236574351743562"/><rect fill="#2563EB" height="0.4404223664355993" width="1" x="87" y="0.5595776335644007"/><rect fill="#2563EB" height="0.37259955994340305" width="1" x="88" y="0.6274004400565969"/><rect fill="#2563EB" height="0.38532401633445296" width="1" x="89" y="0.6146759836655471"/><rect fill="#2563EB" height="0.41151689497345373" width="1" x="90" y="0.5884831050265462"/><rect fill="#2563EB" height="0.35326373498119623" width="1" x="91" y="0.6467362650188038"/><rect fill="#2563EB" height="0.40330954381013123" width="1" x="92" y="0.5966904561898687"/><rect fill="#2563EB" height="0.38840418432776325" width="1" x="93" y="0.6115958156722368"/><rect fill="#2563EB" height="0.37092449671398287" width="1" x="94" y="0.6290755032860171"/><rect fill="#2563EB" height="0.4183564017853055" width="1" x="95" y="0.5816435982146946"/><rect fill="#2563EB" height="0.4123922984738512" width="1" x="96" y="0.5876077015261487"/><rect fill="#2563EB" height="0.23814916962282437" width="1" x="97" y="0.7618508303771756"/><rect fill="#2563EB" height="0.0637636774335474" width="1" x="98" y="0.9362363225664526"/><rect fill="#2563EB" height="0.01099244622295041" width="1" x="99" y="0.9890075537770496"/></svg>