<svg xmlns="http://www.w3.org/2000/svg" preserveAspectRatio="none" viewBox="0 0 100 1"><rect fill="#2563EB" height="0.234" width="1" x="0" y="0.766"/><rect fill="#2563EB" height="0.421" width="1" x="1" y="0.579"/><rect fill="#2563EB" height="0.501" width="1" x="2" y="0.499"/><rect fill="#2563EB" height="0.376" width="1" x="3" y="0.624"/><rect fill="#2563EB" height="0.43" width="1" x="4" y="0.570"/><rect fill="#2563EB" height="0.447" width="1" x="5" y="0.552"/><rect fill="#2563EB" height="0.455" width="1" x="6" y="0.544"/><rect fill="#2563EB" height="0.651" width="1" x="7" y="0.349"/><rect fill="#2563EB" height="0.696" width="1" x="8" y="0.304"/><rect fill="#2563EB" height="0.579" width="1" x="9" y="0.421"/><rect fill="#2563EB" height="0.549" width="1" x="10" y="0.450"/><rect fill="#2563EB" height="0.66" width="1" x="11" y="0.339"/><rect fill="#2563EB" height="0.651" width="1" x="12" y="0.349"/><rect fill="#2563EB" height="0.616" width="1" x="13" y="0.384"/><rect fill="#2563EB" height="0.68" width="1" x="14" y="0.319"/><rect fill="#2563EB" height="0.652" width="1" x="15" y="0.348"/><rect fill="#2563EB" height="0.59" width="1" x="16" y="0.410"/><rect fill="#2563EB" height="0.632" width="1" x="17" y="0.368"/><rect fill="#2563EB" height="0.691" width="1" x="18" y="0.309"/><rect fill="#2563EB" height="0.617" width="1" x="19" y="0.383"/><rect fill="#2563EB" height="0.541" width="1" x="20" y="0.458"/><rect fill="#2563EB" height="0.76" width="1" x="21" y="0.24"/><rect fill="#2563EB" height="0.742" width="1" x="22" y="0.258"/><rect fill="#2563EB" height="0.563" width="1" x="23" y="0.437"/><rect fill="#2563EB" height="0.712" width="1" x="24" y="0.288"/><rect fill="#2563EB" height="0.773" width="1" x="25" y="0.226"/><rect fill="#2563EB" height="0.63" width="1" x="26" y="0.37"/><rect fill="#2563EB" height="0.772" width="1" x="27" y="0.227"/><rect fill="#2563EB" height="0.674" width="1" x="28" y="0.325"/><rect fill="#2563EB" height="0.686" width="1" x="29" y="0.313"/><rect fill="#2563EB" height="0.617" width="1" x="30" y="0.383"/><rect fill="#2563EB" height="0.693" width="1" x="31" y="0.307"/><rect fill="#2563EB" height="0.652" width="1" x="32" y="0.348"/><rect fill="#2563EB" height="0.571" width="1" x="33" y="0.429"/><rect fill="#2563EB" height="0.685" width="1" x="34" y="0.314"/><rect fill="#2563EB" height="0.67" width="1" x="35" y="0.329"/><rect fill="#2563EB" height="0.639" width="1" x="36" y="0.361"/><rect fill="#2563EB" height="0.592" width="1" x="37" y="0.408"/><rect fill="#2563EB" height="0.665" width="1" x="38" y="0.334"/><rect fill="#2563EB" height="0.663" width="1" x="39" y="0.336"/><rect fill="#2563EB" height="0.575" width="1" x="40" y="0.425"/><rect fill="#2563EB" height="0.746" width="1" x="41" y="0.254"/><rect fill="#2563EB" height="0.79" width="1" x="42" y="0.209"/><rect fill="#2563EB" height="0.68" width="1" x="43" y="0.319"/><rect fill="#2563EB" height="0.65" width="1" x="44" y="0.35"/><rect fill="#2563EB" height="0.791" width="1" x="45" y="0.208"/><rect fill="#2563EB" height="0.718" width="1" x="46" y="0.282"/><rect fill="#2563EB" height="0.83" width="1" x="47" y="0.170"/><rect fill="#2563EB" height="0.561" width="1" x="48" y="0.438"/><rect fill="#2563EB" height="0.753" width="1" x="49" y="0.247"/><rect fill="#2563EB" height="0.74" width="1" x="50" y="0.26"/><rect fill="#2563EB" height="0.698" width="1" x="51" y="0.302"/><rect fill="#2563EB" height="0.637" width="1" x="52" y="0.363"/><rect fill="#2563EB" height="0.666" width="1" x="53" y="0.333"/><rect fill="#2563EB" height="0.676" width="1" x="54" y="0.323"/><rect fill="#2563EB" height="0.731" width="1" x="55" y="0.269"/><rect fill="#2563EB" height="1" width="1" x="56" y="0"/><rect fill="#2563EB" height="0.964" width="1" x="57" y="0.036"/><rect fill="#2563EB" height="0.895" width="1" x="58" y="0.104"/><rect fill="#2563EB" height="0.843" width="1" x="59" y="0.157"/><rect fill="#2563EB" height="0.942" width="1" x="60" y="0.058"/><rect fill="#2563EB" height="0.885" width="1" x="61" y="0.114"/><rect fill="#2563EB" height="0.85" width="1" x="62" y="0.150"/><rect fill="#2563EB" height="0.846" width="1" x="63" y="0.154"/><rect fill="#2563EB" height="0.68" width="1" x="64" y="0.319"/><rect fill="#2563EB" height="0.566" width="1" x="65" y="0.434"/><rect fill="#2563EB" height="0.626" width="1" x="66" y="0.374"/><rect fill="#2563EB" height="0.675" width="1" x="67" y="0.324"/><rect fill="#2563EB" height="0.653" width="1" x="68" y="0.347"/><rect fill="#2563EB" height="0.608" width="1" x="69" y="0.392"/><rect fill="#2563EB" height="0.644" width="1" x="70" y="0.356"/><rect fill="#2563EB" height="0.653" width="1" x="71" y="0.347"/><rect fill="#2563EB" height="0.55" width="1" x="72" y="0.449"/><rect fill="#2563EB" height="0.673" width="1" x="73" y="0.326"/><rect fill="#2563EB" height="0.677" width="1" x="74" y="0.322"/><rect fill="#2563EB" height="0.581" width="1" x="75" y="0.419"/><rect fill="#2563EB" height="0.542" width="1" x="76" y="0.457"/><rect fill="#2563EB" height="0.766" width="1" x="77" y="0.233"/><rect fill="#2563EB" height="0.797" width="1" x="78" y="0.202"/><rect fill="#2563EB" height="0.664" width="1" x="79" y="0.335"/><rect fill="#2563EB" height="0.694" width="1" x="80" y="0.306"/><rect fill="#2563EB" height="0.809" width="1" x="81" y="0.190"/><rect fill="#2563EB" height="0.693" width="1" x="82" y="0.307"/><rect fill="#2563EB" height="0.713" width="1" x="83" y="0.287"/><rect fill="#2563EB" height="0.332" width="1" x="84" y="0.667"/><rect fill="#2563EB" height="0.373" width="1" x="85" y="0.627"/><rect fill="#2563EB" height="0.376" width="1" x="86" y="0.624"/><rect fill="#2563EB" height="0.44" width="1" x="87" y="0.56"/><rect fill="#2563EB" height="0.373" width="1" x="88" y="0.627"/><rect fill="#2563EB" height="0.385" width="1" x="89" y="0.615"/><rect fill="#2563EB" height="0.412" width="1" x="90" y="0.588"/><rect fill="#2563EB" height="0.353" width="1" x="91" y="0.647"/><rect fill="#2563EB" height="0.403" width="1" x="92" y="0.597"/><rect fill="#2563EB" height="0.388" width="1" x="93" y="0.612"/><rect fill="#2563EB" height="0.371" width="1" x="94" y="0.629"/><rect fill="#2563EB" height="0.418" width="1" x="95" y="0.582"/><rect fill="#2563EB" height="0.412" width="1" x="96" y="0.588"/><rect fill="#2563EB" height="0.238" width="1" x="97" y="0.762"/><rect fill="#2563EB" height="0.064" width="1" x="98" y="0.935"/><rect fill="#2563EB" height="0.011" width="1" x="99" y="0.989"/></svg>