<svg xmlns="http://www.w3.org/2000/svg" preserveAspectRatio="none" viewBox="0 0 100 1"><rect fill="#2563EB" height="0.125" width="1" x="0" y="0.875"/><rect fill="#2563EB" height="0.557" width="1" x="1" y="0.442"/><rect fill="#2563EB" height="0.61" width="1" x="2" y="0.39"/><rect fill="#2563EB" height="0.524" width="1" x="3" y="0.476"/><rect fill="#2563EB" height="0.285" width="1" x="4" y="0.715"/><rect fill="#2563EB" height="0.459" width="1" x="5" y="0.540"/><rect fill="#2563EB" height="0.557" width="1" x="6" y="0.442"/><rect fill="#2563EB" height="0.737" width="1" x="7" y="0.263"/><rect fill="#2563EB" height="0.597" width="1" x="8" y="0.403"/><rect fill="#2563EB" height="0.673" width="1" x="9" y="0.326"/><rect fill="#2563EB" height="0.615" width="1" x="10" y="0.385"/><rect fill="#2563EB" height="0.78" width="1" x="11" y="0.219"/><rect fill="#2563EB" height="0.4" width="1" x="12" y="0.6"/><rect fill="#2563EB" height="0.749" width="1" x="13" y="0.251"/><rect fill="#2563EB" height="0.557" width="1" x="14" y="0.442"/><rect fill="#2563EB" height="0.663" width="1" x="15" y="0.336"/><rect fill="#2563EB" height="0.618" width="1" x="16" y="0.382"/><rect fill="#2563EB" height="0.747" width="1" x="17" y="0.253"/><rect fill="#2563EB" height="0.413" width="1" x="18" y="0.587"/><rect fill="#2563EB" height="0.641" width="1" x="19" y="0.359"/><rect fill="#2563EB" height="0.71" width="1" x="20" y="0.290"/><rect fill="#2563EB" height="0.69" width="1" x="21" y="0.310"/><rect fill="#2563EB" height="0.421" width="1" x="22" y="0.579"/><rect fill="#2563EB" height="0.89" width="1" x="23" y="0.109"/><rect fill="#2563EB" height="1" width="1" x="24" y="0"/><rect fill="#2563EB" height="0.864" width="1" x="25" y="0.136"/><rect fill="#2563EB" height="0.836" width="1" x="26" y="0.164"/><rect fill="#2563EB" height="0.604" width="1" x="27" y="0.396"/><rect fill="#2563EB" height="0.999" width="1" x="28" y="0.001"/><rect fill="#2563EB" height="0.725" width="1" x="29" y="0.275"/><rect fill="#2563EB" height="0.469" width="1" x="30" y="0.531"/><rect fill="#2563EB" height="0.48" width="1" x="31" y="0.52"/><rect fill="#2563EB" height="0.812" width="1" x="32" y="0.187"/><rect fill="#2563EB" height="0.757" width="1" x="33" y="0.243"/><rect fill="#2563EB" height="0.693" width="1" x="34" y="0.307"/><rect fill="#2563EB" height="0.722" width="1" x="35" y="0.278"/><rect fill="#2563EB" height="0.533" width="1" x="36" y="0.466"/><rect fill="#2563EB" height="0.611" width="1" x="37" y="0.389"/><rect fill="#2563EB" height="0.748" width="1" x="38" y="0.252"/><rect fill="#2563EB" height="0.679" width="1" x="39" y="0.320"/><rect fill="#2563EB" height="0.737" width="1" x="40" y="0.263"/><rect fill="#2563EB" height="0.471" width="1" x="41" y="0.529"/><rect fill="#2563EB" height="0.575" width="1" x="42" y="0.425"/><rect fill="#2563EB" height="0.424" width="1" x="43" y="0.576"/><rect fill="#2563EB" height="0.582" width="1" x="44" y="0.418"/><rect fill="#2563EB" height="0.625" width="1" x="45" y="0.375"/><rect fill="#2563EB" height="0.727" width="1" x="46" y="0.273"/><rect fill="#2563EB" height="0.609" width="1" x="47" y="0.391"/><rect fill="#2563EB" height="0.89" width="1" x="48" y="0.109"/><rect fill="#2563EB" height="0.727" width="1" x="49" y="0.273"/><rect fill="#2563EB" height="0.854" width="1" x="50" y="0.146"/><rect fill="#2563EB" height="0.842" width="1" x="51" y="0.158"/><rect fill="#2563EB" height="0.516" width="1" x="52" y="0.484"/><rect fill="#2563EB" height="0.745" width="1" x="53" y="0.255"/><rect fill="#2563EB" height="0.665" width="1" x="54" y="0.334"/><rect fill="#2563EB" height="0.636" width="1" x="55" y="0.364"/><rect fill="#2563EB" height="0.838" width="1" x="56" y="0.162"/><rect fill="#2563EB" height="0.702" width="1" x="57" y="0.298"/><rect fill="#2563EB" height="0.677" width="1" x="58" y="0.322"/><rect fill="#2563EB" height="0.484" width="1" x="59" y="0.516"/><rect fill="#2563EB" height="0.42" width="1" x="60" y="0.580"/><rect fill="#2563EB" height="0.549" width="1" x="61" y="0.450"/><rect fill="#2563EB" height="0.475" width="1" x="62" y="0.525"/><rect fill="#2563EB" height="0.282" width="1" x="63" y="0.718"/><rect fill="#2563EB" height="0.43" width="1" x="64" y="0.570"/><rect fill="#2563EB" height="0.44" width="1" x="65" y="0.56"/><rect fill="#2563EB" height="0.592" width="1" x="66" y="0.408"/><rect fill="#2563EB" height="0.584" width="1" x="67" y="0.416"/><rect fill="#2563EB" height="0.508" width="1" x="68" y="0.492"/><rect fill="#2563EB" height="0.47" width="1" x="69" y="0.53"/><rect fill="#2563EB" height="0.832" width="1" x="70" y="0.168"/><rect fill="#2563EB" height="0.662" width="1" x="71" y="0.337"/><rect fill="#2563EB" height="0.467" width="1" x="72" y="0.532"/><rect fill="#2563EB" height="0.392" width="1" x="73" y="0.608"/><rect fill="#2563EB" height="0.561" width="1" x="74" y="0.438"/><rect fill="#2563EB" height="0.446" width="1" x="75" y="0.554"/><rect fill="#2563EB" height="0.671" width="1" x="76" y="0.328"/><rect fill="#2563EB" height="0.525" width="1" x="77" y="0.475"/><rect fill="#2563EB" height="0.84" width="1" x="78" y="0.160"/><rect fill="#2563EB" height="0.743" width="1" x="79" y="0.257"/><rect fill="#2563EB" height="0.542" width="1" x="80" y="0.457"/><rect fill="#2563EB" height="0.655" width="1" x="81" y="0.345"/><rect fill="#2563EB" height="0.534" width="1" x="82" y="0.465"/><rect fill="#2563EB" height="0.351" width="1" x="83" y="0.649"/><rect fill="#2563EB" height="0.655" width="1" x="84" y="0.345"/><rect fill="#2563EB" height="0.488" width="1" x="85" y="0.512"/><rect fill="#2563EB" height="0.923" width="1" x="86" y="0.076"/><rect fill="#2563EB" height="0.727" width="1" x="87" y="0.273"/><rect fill="#2563EB" height="0.523" width="1" x="88" y="0.477"/><rect fill="#2563EB" height="0.868" width="1" x="89" y="0.132"/><rect fill="#2563EB" height="0.762" width="1" x="90" y="0.238"/><rect fill="#2563EB" height="0.409" width="1" x="91" y="0.591"/><rect fill="#2563EB" height="0.475" width="1" x="92" y="0.525"/><rect fill="#2563EB" height="0.373" width="1" x="93" y="0.627"/><rect fill="#2563EB" height="0.287" width="1" x="94" y="0.713"/><rect fill="#2563EB" height="0.529" width="1" x="95" y="0.471"/><rect fill="#2563EB" height="0.19" width="1" x="96" y="0.81"/><rect fill="#2563EB" height="0.07" width="1" x="97" y="0.929"/><rect fill="#2563EB" height="0.004" width="1" x="98" y="0.996"/><rect fill="#2563EB" height="0.001" width="1" x="99" y="0.999"/></svg>