<svg xmlns="http://www.w3.org/2000/svg" preserveAspectRatio="none" viewBox="0 0 100 1"><rect fill="#2563EB" height="0.12459208975793462" width="1" x="0" y="0.8754079102420653"/><rect fill="#2563EB" height="0.5573647134556307" width="1" x="1" y="0.44263528654436934"/><rect fill="#2563EB" height="0.6097203629244312" width="1" x="2" y="0.3902796370755688"/><rect fill="#2563EB" height="0.5240730292143158" width="1" x="3" y="0.47592697078568424"/><rect fill="#2563EB" height="0.285269237166997" width="1" x="4" y="0.7147307628330031"/><rect fill="#2563EB" height="0.4590738573816755" width="1" x="5" y="0.5409261426183245"/><rect fill="#2563EB" height="0.5568977204184408" width="1" x="6" y="0.44310227958155923"/><rect fill="#2563EB" height="0.7369496301903334" width="1" x="7" y="0.26305036980966656"/><rect fill="#2563EB" height="0.5970362380488413" width="1" x="8" y="0.4029637619511587"/><rect fill="#2563EB" height="0.673288858739751" width="1" x="9" y="0.326711141260249"/><rect fill="#2563EB" height="0.6146690455637114" width="1" x="10" y="0.3853309544362886"/><rect fill="#2563EB" height="0.7798490197945848" width="1" x="11" y="0.22015098020541524"/><rect fill="#2563EB" height="0.40002772422452865" width="1" x="12" y="0.5999722757754713"/><rect fill="#2563EB" height="0.7490945924578971" width="1" x="13" y="0.2509054075421029"/><rect fill="#2563EB" height="0.5569039303193455" width="1" x="14" y="0.4430960696806545"/><rect fill="#2563EB" height="0.6631249902952344" width="1" x="15" y="0.3368750097047656"/><rect fill="#2563EB" height="0.6183715173962308" width="1" x="16" y="0.38162848260376925"/><rect fill="#2563EB" height="0.7471962317145081" width="1" x="17" y="0.2528037682854919"/><rect fill="#2563EB" height="0.4128171682320046" width="1" x="18" y="0.5871828317679955"/><rect fill="#2563EB" height="0.6408418923527796" width="1" x="19" y="0.35915810764722045"/><rect fill="#2563EB" height="0.7096891618357942" width="1" x="20" y="0.2903108381642058"/><rect fill="#2563EB" height="0.6902150916091376" width="1" x="21" y="0.30978490839086237"/><rect fill="#2563EB" height="0.4212351138168162" width="1" x="22" y="0.5787648861831838"/><rect fill="#2563EB" height="0.889937086277312" width="1" x="23" y="0.11006291372268795"/><rect fill="#2563EB" height="1" width="1" x="24" y="0"/><rect fill="#2563EB" height="0.8636725613214443" width="1" x="25" y="0.13632743867855568"/><rect fill="#2563EB" height="0.8364055034509055" width="1" x="26" y="0.16359449654909453"/><rect fill="#2563EB" height="0.603674766027321" width="1" x="27" y="0.39632523397267905"/><rect fill="#2563EB" height="0.9990898361304562" width="1" x="28" y="0.0009101638695437897"/><rect fill="#2563EB" height="0.7250617763637152" width="1" x="29" y="0.27493822363628484"/><rect fill="#2563EB" height="0.4692567595070099" width="1" x="30" y="0.5307432404929902"/><rect fill="#2563EB" height="0.4796431655878342" width="1" x="31" y="0.5203568344121658"/><rect fill="#2563EB" height="0.8115064070691829" width="1" x="32" y="0.18849359293081713"/><rect fill="#2563EB" height="0.7566606346260892" width="1" x="33" y="0.24333936537391077"/><rect fill="#2563EB" height="0.6926971998590777" width="1" x="34" y="0.30730280014092226"/><rect fill="#2563EB" height="0.7219206748281686" width="1" x="35" y="0.2780793251718314"/><rect fill="#2563EB" height="0.5334622019274522" width="1" x="36" y="0.4665377980725478"/><rect fill="#2563EB" height="0.610981893222508" width="1" x="37" y="0.38901810677749205"/><rect fill="#2563EB" height="0.7480833018094216" width="1" x="38" y="0.2519166981905784"/><rect fill="#2563EB" height="0.6789408870283171" width="1" x="39" y="0.3210591129716829"/><rect fill="#2563EB" height="0.7366508259754827" width="1" x="40" y="0.2633491740245173"/><rect fill="#2563EB" height="0.4705281854452478" width="1" x="41" y="0.5294718145547521"/><rect fill="#2563EB" height="0.5746373216820045" width="1" x="42" y="0.42536267831799546"/><rect fill="#2563EB" height="0.42357376117208384" width="1" x="43" y="0.5764262388279162"/><rect fill="#2563EB" height="0.5824720906788488" width="1" x="44" y="0.41752790932115125"/><rect fill="#2563EB" height="0.6251246550840759" width="1" x="45" y="0.3748753449159241"/><rect fill="#2563EB" height="0.7269012833085376" width="1" x="46" y="0.27309871669146235"/><rect fill="#2563EB" height="0.6086204192716679" width="1" x="47" y="0.3913795807283321"/><rect fill="#2563EB" height="0.8899879325867381" width="1" x="48" y="0.11001206741326186"/><rect fill="#2563EB" height="0.7270435912475409" width="1" x="49" y="0.2729564087524591"/><rect fill="#2563EB" height="0.8540737878966926" width="1" x="50" y="0.14592621210330736"/><rect fill="#2563EB" height="0.8424591287701781" width="1" x="51" y="0.15754087122982185"/><rect fill="#2563EB" height="0.516059952734241" width="1" x="52" y="0.483940047265759"/><rect fill="#2563EB" height="0.7452629738678214" width="1" x="53" y="0.25473702613217863"/><rect fill="#2563EB" height="0.6651805923807237" width="1" x="54" y="0.3348194076192763"/><rect fill="#2563EB" height="0.6359665102262657" width="1" x="55" y="0.3640334897737343"/><rect fill="#2563EB" height="0.83846567082033" width="1" x="56" y="0.16153432917967003"/><rect fill="#2563EB" height="0.7023631685210401" width="1" x="57" y="0.2976368314789599"/><rect fill="#2563EB" height="0.6774944862722574" width="1" x="58" y="0.3225055137277426"/><rect fill="#2563EB" height="0.4843283912660738" width="1" x="59" y="0.5156716087339261"/><rect fill="#2563EB" height="0.42038321179538546" width="1" x="60" y="0.5796167882046146"/><rect fill="#2563EB" height="0.5493064015069159" width="1" x="61" y="0.4506935984930841"/><rect fill="#2563EB" height="0.4748613422838091" width="1" x="62" y="0.525138657716191"/><rect fill="#2563EB" height="0.2822597011065001" width="1" x="63" y="0.7177402988934999"/><rect fill="#2563EB" height="0.42997931310804505" width="1" x="64" y="0.570020686891955"/><rect fill="#2563EB" height="0.4401935556502535" width="1" x="65" y="0.5598064443497466"/><rect fill="#2563EB" height="0.5916491402654218" width="1" x="66" y="0.4083508597345782"/><rect fill="#2563EB" height="0.5838519503980305" width="1" x="67" y="0.4161480496019695"/><rect fill="#2563EB" height="0.5081361684375157" width="1" x="68" y="0.49186383156248425"/><rect fill="#2563EB" height="0.4700928299054376" width="1" x="69" y="0.5299071700945623"/><rect fill="#2563EB" height="0.8317916691922969" width="1" x="70" y="0.16820833080770314"/><rect fill="#2563EB" height="0.6620530470379451" width="1" x="71" y="0.3379469529620549"/><rect fill="#2563EB" height="0.4667174786094117" width="1" x="72" y="0.5332825213905883"/><rect fill="#2563EB" height="0.39188432568737547" width="1" x="73" y="0.6081156743126246"/><rect fill="#2563EB" height="0.5609248014208238" width="1" x="74" y="0.4390751985791762"/><rect fill="#2563EB" height="0.445616515880314" width="1" x="75" y="0.554383484119686"/><rect fill="#2563EB" height="0.6708774457130602" width="1" x="76" y="0.3291225542869398"/><rect fill="#2563EB" height="0.524510838034814" width="1" x="77" y="0.475489161965186"/><rect fill="#2563EB" height="0.8399435039970137" width="1" x="78" y="0.16005649600298633"/><rect fill="#2563EB" height="0.7431615964118556" width="1" x="79" y="0.25683840358814436"/><rect fill="#2563EB" height="0.5421958929829548" width="1" x="80" y="0.4578041070170452"/><rect fill="#2563EB" height="0.6554834919480572" width="1" x="81" y="0.3445165080519428"/><rect fill="#2563EB" height="0.5340840778174947" width="1" x="82" y="0.4659159221825053"/><rect fill="#2563EB" height="0.3508684556271578" width="1" x="83" y="0.6491315443728423"/><rect fill="#2563EB" height="0.6553110927717375" width="1" x="84" y="0.3446889072282625"/><rect fill="#2563EB" height="0.4876405529181668" width="1" x="85" y="0.5123594470818331"/><rect fill="#2563EB" height="0.9228905364943689" width="1" x="86" y="0.07710946350563108"/><rect fill="#2563EB" height="0.7267311912672957" width="1" x="87" y="0.2732688087327043"/><rect fill="#2563EB" height="0.523105255968897" width="1" x="88" y="0.476894744031103"/><rect fill="#2563EB" height="0.8678762128427233" width="1" x="89" y="0.13212378715727668"/><rect fill="#2563EB" height="0.762279428571317" width="1" x="90" y="0.23772057142868297"/><rect fill="#2563EB" height="0.4090595268298247" width="1" x="91" y="0.5909404731701753"/><rect fill="#2563EB" height="0.47516833441492345" width="1" x="92" y="0.5248316655850765"/><rect fill="#2563EB" height="0.3727221379418093" width="1" x="93" y="0.6272778620581907"/><rect fill="#2563EB" height="0.28699108858549144" width="1" x="94" y="0.7130089114145086"/><rect fill="#2563EB" height="0.5294300448736218" width="1" x="95" y="0.4705699551263782"/><rect fill="#2563EB" height="0.18978595772491907" width="1" x="96" y="0.810214042275081"/><rect fill="#2563EB" height="0.070177940594757" width="1" x="97" y="0.929822059405243"/><rect fill="#2563EB" height="0.004024879950282243" width="1" x="98" y="0.9959751200497178"/><rect fill="#2563EB" height="0.0005498142684994423" width="1" x="99" y="0.9994501857315006"/></svg>