<svg xmlns="http://www.w3.org/2000/svg" preserveAspectRatio="none" viewBox="0 0 100 1"><rect fill="#2563EB" height="0.099" width="1" x="0" y="0.901"/><rect fill="#2563EB" height="0.141" width="1" x="1" y="0.859"/><rect fill="#2563EB" height="0.135" width="1" x="2" y="0.865"/><rect fill="#2563EB" height="0.143" width="1" x="3" y="0.857"/><rect fill="#2563EB" height="0.151" width="1" x="4" y="0.849"/><rect fill="#2563EB" height="0.154" width="1" x="5" y="0.846"/><rect fill="#2563EB" height="0.156" width="1" x="6" y="0.844"/><rect fill="#2563EB" height="0.15" width="1" x="7" y="0.85"/><rect fill="#2563EB" height="0.322" width="1" x="8" y="0.677"/><rect fill="#2563EB" height="0.382" width="1" x="9" y="0.618"/><rect fill="#2563EB" height="0.332" width="1" x="10" y="0.667"/><rect fill="#2563EB" height="0.347" width="1" x="11" y="0.653"/><rect fill="#2563EB" height="0.277" width="1" x="12" y="0.723"/><rect fill="#2563EB" height="0.362" width="1" x="13" y="0.638"/><rect fill="#2563EB" height="0.325" width="1" x="14" y="0.675"/><rect fill="#2563EB" height="0.441" width="1" x="15" y="0.558"/><rect fill="#2563EB" height="0.574" width="1" x="16" y="0.426"/><rect fill="#2563EB" height="0.577" width="1" x="17" y="0.423"/><rect fill="#2563EB" height="0.523" width="1" x="18" y="0.477"/><rect fill="#2563EB" height="0.557" width="1" x="19" y="0.442"/><rect fill="#2563EB" height="0.758" width="1" x="20" y="0.242"/><rect fill="#2563EB" height="0.73" width="1" x="21" y="0.27"/><rect fill="#2563EB" height="0.666" width="1" x="22" y="0.333"/><rect fill="#2563EB" height="1" width="1" x="23" y="0"/><rect fill="#2563EB" height="0.707" width="1" x="24" y="0.293"/><rect fill="#2563EB" height="0.689" width="1" x="25" y="0.311"/><rect fill="#2563EB" height="0.57" width="1" x="26" y="0.430"/><rect fill="#2563EB" height="0.587" width="1" x="27" y="0.413"/><rect fill="#2563EB" height="0.894" width="1" x="28" y="0.105"/><rect fill="#2563EB" height="0.626" width="1" x="29" y="0.374"/><rect fill="#2563EB" height="0.707" width="1" x="30" y="0.293"/><rect fill="#2563EB" height="0.957" width="1" x="31" y="0.043"/><rect fill="#2563EB" height="0.536" width="1" x="32" y="0.463"/><rect fill="#2563EB" height="0.835" width="1" x="33" y="0.165"/><rect fill="#2563EB" height="0.572" width="1" x="34" y="0.428"/><rect fill="#2563EB" height="0.569" width="1" x="35" y="0.431"/><rect fill="#2563EB" height="0.547" width="1" x="36" y="0.452"/><rect fill="#2563EB" height="0.599" width="1" x="37" y="0.401"/><rect fill="#2563EB" height="0.748" width="1" x="38" y="0.252"/><rect fill="#2563EB" height="0.898" width="1" x="39" y="0.101"/><rect fill="#2563EB" height="0.586" width="1" x="40" y="0.414"/><rect fill="#2563EB" height="0.819" width="1" x="41" y="0.181"/><rect fill="#2563EB" height="0.562" width="1" x="42" y="0.437"/><rect fill="#2563EB" height="0.51" width="1" x="43" y="0.49"/><rect fill="#2563EB" height="0.503" width="1" x="44" y="0.497"/><rect fill="#2563EB" height="0.611" width="1" x="45" y="0.389"/><rect fill="#2563EB" height="0.703" width="1" x="46" y="0.297"/><rect fill="#2563EB" height="0.851" width="1" x="47" y="0.149"/><rect fill="#2563EB" height="0.402" width="1" x="48" y="0.598"/><rect fill="#2563EB" height="0.354" width="1" x="49" y="0.646"/><rect fill="#2563EB" height="0.36" width="1" x="50" y="0.64"/><rect fill="#2563EB" height="0.635" width="1" x="51" y="0.365"/><rect fill="#2563EB" height="0.477" width="1" x="52" y="0.523"/><rect fill="#2563EB" height="0.449" width="1" x="53" y="0.550"/><rect fill="#2563EB" height="0.389" width="1" x="54" y="0.611"/><rect fill="#2563EB" height="0.603" width="1" x="55" y="0.397"/><rect fill="#2563EB" height="0.664" width="1" x="56" y="0.335"/><rect fill="#2563EB" height="0.611" width="1" x="57" y="0.389"/><rect fill="#2563EB" height="0.638" width="1" x="58" y="0.362"/><rect fill="#2563EB" height="0.706" width="1" x="59" y="0.294"/><rect fill="#2563EB" height="0.649" width="1" x="60" y="0.351"/><rect fill="#2563EB" height="0.669" width="1" x="61" y="0.330"/><rect fill="#2563EB" height="0.73" width="1" x="62" y="0.27"/><rect fill="#2563EB" height="0.939" width="1" x="63" y="0.061"/><rect fill="#2563EB" height="0.614" width="1" x="64" y="0.386"/><rect fill="#2563EB" height="0.54" width="1" x="65" y="0.459"/><rect fill="#2563EB" height="0.662" width="1" x="66" y="0.337"/><rect fill="#2563EB" height="0.672" width="1" x="67" y="0.327"/><rect fill="#2563EB" height="0.601" width="1" x="68" y="0.399"/><rect fill="#2563EB" height="0.688" width="1" x="69" y="0.312"/><rect fill="#2563EB" height="0.796" width="1" x="70" y="0.203"/><rect fill="#2563EB" height="0.892" width="1" x="71" y="0.107"/><rect fill="#2563EB" height="0.686" width="1" x="72" y="0.313"/><rect fill="#2563EB" height="0.697" width="1" x="73" y="0.303"/><rect fill="#2563EB" height="0.569" width="1" x="74" y="0.431"/><rect fill="#2563EB" height="0.558" width="1" x="75" y="0.441"/><rect fill="#2563EB" height="0.688" width="1" x="76" y="0.312"/><rect fill="#2563EB" height="0.791" width="1" x="77" y="0.208"/><rect fill="#2563EB" height="0.978" width="1" x="78" y="0.022"/><rect fill="#2563EB" height="0.695" width="1" x="79" y="0.305"/><rect fill="#2563EB" height="0.524" width="1" x="80" y="0.476"/><rect fill="#2563EB" height="0.424" width="1" x="81" y="0.576"/><rect fill="#2563EB" height="0.474" width="1" x="82" y="0.526"/><rect fill="#2563EB" height="0.461" width="1" x="83" y="0.538"/><rect fill="#2563EB" height="0.489" width="1" x="84" y="0.511"/><rect fill="#2563EB" height="0.749" width="1" x="85" y="0.251"/><rect fill="#2563EB" height="0.838" width="1" x="86" y="0.162"/><rect fill="#2563EB" height="0.645" width="1" x="87" y="0.355"/><rect fill="#2563EB" height="0.7" width="1" x="88" y="0.300"/><rect fill="#2563EB" height="0.563" width="1" x="89" y="0.437"/><rect fill="#2563EB" height="0.778" width="1" x="90" y="0.221"/><rect fill="#2563EB" height="0.699" width="1" x="91" y="0.301"/><rect fill="#2563EB" height="0.711" width="1" x="92" y="0.289"/><rect fill="#2563EB" height="0.801" width="1" x="93" y="0.198"/><rect fill="#2563EB" height="0.8" width="1" x="94" y="0.199"/><rect fill="#2563EB" height="0.683" width="1" x="95" y="0.316"/><rect fill="#2563EB" height="0.424" width="1" x="96" y="0.576"/><rect fill="#2563EB" height="0.06" width="1" x="97" y="0.94"/><rect fill="#2563EB" height="0.003" width="1" x="98" y="0.997"/><rect fill="#2563EB" height="0" width="1" x="99" y="1"/></svg>