<svg xmlns="http://www.w3.org/2000/svg" preserveAspectRatio="none" viewBox="0 0 100 1"><rect fill="#2563EB" height="0.09862804143046901" width="1" x="0" y="0.901371958569531"/><rect fill="#2563EB" height="0.14054780547617174" width="1" x="1" y="0.8594521945238283"/><rect fill="#2563EB" height="0.1345014578551522" width="1" x="2" y="0.8654985421448478"/><rect fill="#2563EB" height="0.14318058474737133" width="1" x="3" y="0.8568194152526287"/><rect fill="#2563EB" height="0.15095707854918297" width="1" x="4" y="0.8490429214508171"/><rect fill="#2563EB" height="0.15368653261078571" width="1" x="5" y="0.8463134673892143"/><rect fill="#2563EB" height="0.15572136278342447" width="1" x="6" y="0.8442786372165756"/><rect fill="#2563EB" height="0.15015480976224438" width="1" x="7" y="0.8498451902377556"/><rect fill="#2563EB" height="0.3220028294975358" width="1" x="8" y="0.6779971705024642"/><rect fill="#2563EB" height="0.3822605570607928" width="1" x="9" y="0.6177394429392071"/><rect fill="#2563EB" height="0.3317501591370482" width="1" x="10" y="0.6682498408629518"/><rect fill="#2563EB" height="0.34699659935926436" width="1" x="11" y="0.6530034006407357"/><rect fill="#2563EB" height="0.27689757305483736" width="1" x="12" y="0.7231024269451627"/><rect fill="#2563EB" height="0.3624112247110796" width="1" x="13" y="0.6375887752889204"/><rect fill="#2563EB" height="0.32522851564787075" width="1" x="14" y="0.6747714843521293"/><rect fill="#2563EB" height="0.4408249803444542" width="1" x="15" y="0.5591750196555458"/><rect fill="#2563EB" height="0.5744682325096703" width="1" x="16" y="0.4255317674903297"/><rect fill="#2563EB" height="0.5765786760831132" width="1" x="17" y="0.4234213239168868"/><rect fill="#2563EB" height="0.5226693836988191" width="1" x="18" y="0.4773306163011809"/><rect fill="#2563EB" height="0.556768791132059" width="1" x="19" y="0.443231208867941"/><rect fill="#2563EB" height="0.7581951297908996" width="1" x="20" y="0.24180487020910035"/><rect fill="#2563EB" height="0.7295612779450371" width="1" x="21" y="0.2704387220549629"/><rect fill="#2563EB" height="0.6660960186461317" width="1" x="22" y="0.33390398135386834"/><rect fill="#2563EB" height="1" width="1" x="23" y="0"/><rect fill="#2563EB" height="0.7067348318622748" width="1" x="24" y="0.2932651681377252"/><rect fill="#2563EB" height="0.6889593668438461" width="1" x="25" y="0.31104063315615393"/><rect fill="#2563EB" height="0.5698696274324245" width="1" x="26" y="0.43013037256757547"/><rect fill="#2563EB" height="0.587430315358007" width="1" x="27" y="0.41256968464199295"/><rect fill="#2563EB" height="0.8938251760376291" width="1" x="28" y="0.10617482396237088"/><rect fill="#2563EB" height="0.6257839454262367" width="1" x="29" y="0.3742160545737633"/><rect fill="#2563EB" height="0.7065871237183013" width="1" x="30" y="0.29341287628169865"/><rect fill="#2563EB" height="0.9570486770612491" width="1" x="31" y="0.042951322938750924"/><rect fill="#2563EB" height="0.5355772382451578" width="1" x="32" y="0.4644227617548422"/><rect fill="#2563EB" height="0.8352156996395711" width="1" x="33" y="0.1647843003604289"/><rect fill="#2563EB" height="0.5724320554105486" width="1" x="34" y="0.42756794458945135"/><rect fill="#2563EB" height="0.5690028933433358" width="1" x="35" y="0.43099710665666424"/><rect fill="#2563EB" height="0.5472371463554814" width="1" x="36" y="0.4527628536445186"/><rect fill="#2563EB" height="0.5991012820551169" width="1" x="37" y="0.4008987179448831"/><rect fill="#2563EB" height="0.7480694587863864" width="1" x="38" y="0.2519305412136136"/><rect fill="#2563EB" height="0.898250605620941" width="1" x="39" y="0.10174939437905905"/><rect fill="#2563EB" height="0.5857100619597949" width="1" x="40" y="0.4142899380402051"/><rect fill="#2563EB" height="0.818603229500379" width="1" x="41" y="0.181396770499621"/><rect fill="#2563EB" height="0.5619178143321684" width="1" x="42" y="0.43808218566783164"/><rect fill="#2563EB" height="0.5099783980504862" width="1" x="43" y="0.49002160194951383"/><rect fill="#2563EB" height="0.5030651033048579" width="1" x="44" y="0.4969348966951421"/><rect fill="#2563EB" height="0.6108548214041457" width="1" x="45" y="0.3891451785958543"/><rect fill="#2563EB" height="0.7032704959783783" width="1" x="46" y="0.2967295040216217"/><rect fill="#2563EB" height="0.850940525519256" width="1" x="47" y="0.14905947448074397"/><rect fill="#2563EB" height="0.4015134598311084" width="1" x="48" y="0.5984865401688916"/><rect fill="#2563EB" height="0.35392231364733906" width="1" x="49" y="0.6460776863526609"/><rect fill="#2563EB" height="0.3595771061086307" width="1" x="50" y="0.6404228938913693"/><rect fill="#2563EB" height="0.6346366892966618" width="1" x="51" y="0.36536331070333816"/><rect fill="#2563EB" height="0.47657412612113376" width="1" x="52" y="0.5234258738788662"/><rect fill="#2563EB" height="0.44936047387042366" width="1" x="53" y="0.5506395261295763"/><rect fill="#2563EB" height="0.3888984477018158" width="1" x="54" y="0.6111015522981842"/><rect fill="#2563EB" height="0.6033243628273165" width="1" x="55" y="0.3966756371726835"/><rect fill="#2563EB" height="0.6643841014885468" width="1" x="56" y="0.33561589851145324"/><rect fill="#2563EB" height="0.6106292624657579" width="1" x="57" y="0.3893707375342421"/><rect fill="#2563EB" height="0.6378591083663683" width="1" x="58" y="0.3621408916336317"/><rect fill="#2563EB" height="0.7064455565300946" width="1" x="59" y="0.29355444346990545"/><rect fill="#2563EB" height="0.6488405020737783" width="1" x="60" y="0.3511594979262217"/><rect fill="#2563EB" height="0.6687946617093321" width="1" x="61" y="0.3312053382906679"/><rect fill="#2563EB" height="0.7303332338431391" width="1" x="62" y="0.2696667661568609"/><rect fill="#2563EB" height="0.9389619288691977" width="1" x="63" y="0.061038071130802285"/><rect fill="#2563EB" height="0.6143287059714267" width="1" x="64" y="0.38567129402857325"/><rect fill="#2563EB" height="0.5402863357703132" width="1" x="65" y="0.45971366422968685"/><rect fill="#2563EB" height="0.6624749749951498" width="1" x="66" y="0.33752502500485015"/><rect fill="#2563EB" height="0.671725724742708" width="1" x="67" y="0.328274275257292"/><rect fill="#2563EB" height="0.6008180907685399" width="1" x="68" y="0.39918190923146013"/><rect fill="#2563EB" height="0.6877007847888978" width="1" x="69" y="0.31229921521110215"/><rect fill="#2563EB" height="0.7959664182131209" width="1" x="70" y="0.20403358178687914"/><rect fill="#2563EB" height="0.8923945956967145" width="1" x="71" y="0.10760540430328547"/><rect fill="#2563EB" height="0.6859252386797992" width="1" x="72" y="0.31407476132020085"/><rect fill="#2563EB" height="0.6972556249052594" width="1" x="73" y="0.3027443750947406"/><rect fill="#2563EB" height="0.5690105505218657" width="1" x="74" y="0.43098944947813433"/><rect fill="#2563EB" height="0.5583863857313289" width="1" x="75" y="0.4416136142686711"/><rect fill="#2563EB" height="0.6881915113852488" width="1" x="76" y="0.3118084886147512"/><rect fill="#2563EB" height="0.7914806480174529" width="1" x="77" y="0.20851935198254712"/><rect fill="#2563EB" height="0.9778119542900816" width="1" x="78" y="0.02218804570991839"/><rect fill="#2563EB" height="0.6945925463995373" width="1" x="79" y="0.30540745360046273"/><rect fill="#2563EB" height="0.524375556846962" width="1" x="80" y="0.475624443153038"/><rect fill="#2563EB" height="0.42420740273371405" width="1" x="81" y="0.575792597266286"/><rect fill="#2563EB" height="0.473986883376973" width="1" x="82" y="0.5260131166230271"/><rect fill="#2563EB" height="0.4608535099771731" width="1" x="83" y="0.5391464900228269"/><rect fill="#2563EB" height="0.48863380277940693" width="1" x="84" y="0.5113661972205931"/><rect fill="#2563EB" height="0.7485830632240151" width="1" x="85" y="0.25141693677598487"/><rect fill="#2563EB" height="0.8376498537774358" width="1" x="86" y="0.16235014622256416"/><rect fill="#2563EB" height="0.6454643521649948" width="1" x="87" y="0.35453564783500524"/><rect fill="#2563EB" height="0.7003597337694003" width="1" x="88" y="0.2996402662305997"/><rect fill="#2563EB" height="0.5634471319941644" width="1" x="89" y="0.4365528680058356"/><rect fill="#2563EB" height="0.7784156846744065" width="1" x="90" y="0.22158431532559353"/><rect fill="#2563EB" height="0.6986609545701948" width="1" x="91" y="0.30133904542980516"/><rect fill="#2563EB" height="0.710677129884473" width="1" x="92" y="0.28932287011552704"/><rect fill="#2563EB" height="0.8012318736180872" width="1" x="93" y="0.19876812638191277"/><rect fill="#2563EB" height="0.7999850701654729" width="1" x="94" y="0.20001492983452707"/><rect fill="#2563EB" height="0.6826791253451839" width="1" x="95" y="0.31732087465481607"/><rect fill="#2563EB" height="0.42445083418339047" width="1" x="96" y="0.5755491658166095"/><rect fill="#2563EB" height="0.060056557830725894" width="1" x="97" y="0.9399434421692741"/><rect fill="#2563EB" height="0.002846610229178968" width="1" x="98" y="0.997153389770821"/><rect fill="#2563EB" height="0.0004909838500267932" width="1" x="99" y="0.9995090161499732"/></svg>