<svg xmlns="http://www.w3.org/2000/svg" preserveAspectRatio="none" viewBox="0 0 100 1"><rect fill="#2563EB" height="0.08569339817318236" width="1" x="0" y="0.9143066018268177"/><rect fill="#2563EB" height="0.2933749659201521" width="1" x="1" y="0.7066250340798479"/><rect fill="#2563EB" height="0.5921268987571784" width="1" x="2" y="0.4078731012428216"/><rect fill="#2563EB" height="0.5829143057880375" width="1" x="3" y="0.4170856942119625"/><rect fill="#2563EB" height="0.5646285902461605" width="1" x="4" y="0.4353714097538395"/><rect fill="#2563EB" height="0.7618849405590402" width="1" x="5" y="0.2381150594409598"/><rect fill="#2563EB" height="0.4771147535235668" width="1" x="6" y="0.5228852464764332"/><rect fill="#2563EB" height="0.32984062201461545" width="1" x="7" y="0.6701593779853845"/><rect fill="#2563EB" height="0.3356348786104472" width="1" x="8" y="0.6643651213895527"/><rect fill="#2563EB" height="0.34930985106354967" width="1" x="9" y="0.6506901489364503"/><rect fill="#2563EB" height="0.5086787862351542" width="1" x="10" y="0.49132121376484583"/><rect fill="#2563EB" height="0.39727273893965614" width="1" x="11" y="0.6027272610603438"/><rect fill="#2563EB" height="0.674850909637939" width="1" x="12" y="0.32514909036206097"/><rect fill="#2563EB" height="0.4853247186765141" width="1" x="13" y="0.5146752813234858"/><rect fill="#2563EB" height="0.562635839759296" width="1" x="14" y="0.437364160240704"/><rect fill="#2563EB" height="0.6603289359600105" width="1" x="15" y="0.3396710640399895"/><rect fill="#2563EB" height="0.4289608890718126" width="1" x="16" y="0.5710391109281874"/><rect fill="#2563EB" height="0.29949059660220445" width="1" x="17" y="0.7005094033977955"/><rect fill="#2563EB" height="0.2868239067066252" width="1" x="18" y="0.7131760932933748"/><rect fill="#2563EB" height="0.43014476178840416" width="1" x="19" y="0.5698552382115958"/><rect fill="#2563EB" height="0.4802469779852463" width="1" x="20" y="0.5197530220147537"/><rect fill="#2563EB" height="0.41321807413423733" width="1" x="21" y="0.5867819258657627"/><rect fill="#2563EB" height="0.7545400923295428" width="1" x="22" y="0.24545990767045722"/><rect fill="#2563EB" height="0.4767279947665515" width="1" x="23" y="0.5232720052334485"/><rect fill="#2563EB" height="0.6631129818876456" width="1" x="24" y="0.33688701811235444"/><rect fill="#2563EB" height="0.5758982694499699" width="1" x="25" y="0.4241017305500301"/><rect fill="#2563EB" height="0.35930456824994633" width="1" x="26" y="0.6406954317500537"/><rect fill="#2563EB" height="0.2974968129075149" width="1" x="27" y="0.7025031870924852"/><rect fill="#2563EB" height="0.2832667412824139" width="1" x="28" y="0.7167332587175861"/><rect fill="#2563EB" height="0.4549350014313794" width="1" x="29" y="0.5450649985686207"/><rect fill="#2563EB" height="0.4251318568114503" width="1" x="30" y="0.5748681431885496"/><rect fill="#2563EB" height="0.5367300377905934" width="1" x="31" y="0.46326996220940664"/><rect fill="#2563EB" height="0.6536475158682536" width="1" x="32" y="0.34635248413174635"/><rect fill="#2563EB" height="0.5890369986108719" width="1" x="33" y="0.4109630013891281"/><rect fill="#2563EB" height="0.8094861811396169" width="1" x="34" y="0.1905138188603831"/><rect fill="#2563EB" height="0.582704834213137" width="1" x="35" y="0.417295165786863"/><rect fill="#2563EB" height="0.40555928333636415" width="1" x="36" y="0.5944407166636358"/><rect fill="#2563EB" height="0.3684114404482763" width="1" x="37" y="0.6315885595517237"/><rect fill="#2563EB" height="0.3518264331317098" width="1" x="38" y="0.6481735668682902"/><rect fill="#2563EB" height="0.7206787132792442" width="1" x="39" y="0.27932128672075585"/><rect fill="#2563EB" height="0.8045511974925457" width="1" x="40" y="0.19544880250745433"/><rect fill="#2563EB" height="0.8040322520896725" width="1" x="41" y="0.19596774791032745"/><rect fill="#2563EB" height="0.7494598171391292" width="1" x="42" y="0.25054018286087076"/><rect fill="#2563EB" height="0.804672375908521" width="1" x="43" y="0.19532762409147897"/><rect fill="#2563EB" height="0.9044512472693185" width="1" x="44" y="0.09554875273068153"/><rect fill="#2563EB" height="0.7674659688729791" width="1" x="45" y="0.23253403112702087"/><rect fill="#2563EB" height="0.6420094390415576" width="1" x="46" y="0.3579905609584424"/><rect fill="#2563EB" height="0.527127409723238" width="1" x="47" y="0.472872590276762"/><rect fill="#2563EB" height="0.6966428468211567" width="1" x="48" y="0.30335715317884326"/><rect fill="#2563EB" height="0.7781594007165568" width="1" x="49" y="0.22184059928344324"/><rect fill="#2563EB" height="0.7727552322121681" width="1" x="50" y="0.22724476778783187"/><rect fill="#2563EB" height="0.8074918567286925" width="1" x="51" y="0.1925081432713075"/><rect fill="#2563EB" height="0.60729890270728" width="1" x="52" y="0.39270109729271996"/><rect fill="#2563EB" height="0.8248689964378667" width="1" x="53" y="0.1751310035621333"/><rect fill="#2563EB" height="0.7993825918146507" width="1" x="54" y="0.20061740818534934"/><rect fill="#2563EB" height="0.7059809489163626" width="1" x="55" y="0.29401905108363735"/><rect fill="#2563EB" height="0.6161513869118834" width="1" x="56" y="0.3838486130881166"/><rect fill="#2563EB" height="0.5810887087609448" width="1" x="57" y="0.41891129123905524"/><rect fill="#2563EB" height="0.6500656574810627" width="1" x="58" y="0.3499343425189373"/><rect fill="#2563EB" height="0.7185686596221285" width="1" x="59" y="0.28143134037787154"/><rect fill="#2563EB" height="0.6382558179600734" width="1" x="60" y="0.36174418203992664"/><rect fill="#2563EB" height="0.8743077209257526" width="1" x="61" y="0.1256922790742474"/><rect fill="#2563EB" height="0.6031197865577157" width="1" x="62" y="0.3968802134422843"/><rect fill="#2563EB" height="0.8887945313381245" width="1" x="63" y="0.11120546866187553"/><rect fill="#2563EB" height="0.7462155396132957" width="1" x="64" y="0.2537844603867043"/><rect fill="#2563EB" height="0.5921374757498021" width="1" x="65" y="0.40786252425019787"/><rect fill="#2563EB" height="0.5637937889353916" width="1" x="66" y="0.43620621106460844"/><rect fill="#2563EB" height="0.52915574503878" width="1" x="67" y="0.47084425496121995"/><rect fill="#2563EB" height="0.6890266646411168" width="1" x="68" y="0.31097333535888316"/><rect fill="#2563EB" height="0.7142370766963395" width="1" x="69" y="0.2857629233036605"/><rect fill="#2563EB" height="0.6602312359668855" width="1" x="70" y="0.3397687640331145"/><rect fill="#2563EB" height="0.7876637518464283" width="1" x="71" y="0.21233624815357166"/><rect fill="#2563EB" height="0.7624192048348706" width="1" x="72" y="0.23758079516512942"/><rect fill="#2563EB" height="0.8927517977269936" width="1" x="73" y="0.10724820227300635"/><rect fill="#2563EB" height="0.7828768783829697" width="1" x="74" y="0.2171231216170303"/><rect fill="#2563EB" height="0.615316462493796" width="1" x="75" y="0.384683537506204"/><rect fill="#2563EB" height="0.4718785548531556" width="1" x="76" y="0.5281214451468443"/><rect fill="#2563EB" height="0.5655636282787867" width="1" x="77" y="0.4344363717212133"/><rect fill="#2563EB" height="0.7723262488788931" width="1" x="78" y="0.22767375112110688"/><rect fill="#2563EB" height="0.789585173001562" width="1" x="79" y="0.21041482699843805"/><rect fill="#2563EB" height="1" width="1" x="80" y="0"/><rect fill="#2563EB" height="0.9423198293790302" width="1" x="81" y="0.05768017062096975"/><rect fill="#2563EB" height="0.7571446741918412" width="1" x="82" y="0.24285532580815883"/><rect fill="#2563EB" height="0.7887937006530432" width="1" x="83" y="0.21120629934695678"/><rect fill="#2563EB" height="0.5202585304218528" width="1" x="84" y="0.47974146957814723"/><rect fill="#2563EB" height="0.4930093296977458" width="1" x="85" y="0.5069906703022542"/><rect fill="#2563EB" height="0.17838880714617528" width="1" x="86" y="0.8216111928538248"/><rect fill="#2563EB" height="0.06130735166378545" width="1" x="87" y="0.9386926483362146"/><rect fill="#2563EB" height="0.059986720716444605" width="1" x="88" y="0.9400132792835554"/><rect fill="#2563EB" height="0.05029235532276408" width="1" x="89" y="0.9497076446772359"/><rect fill="#2563EB" height="0.054352860385700676" width="1" x="90" y="0.9456471396142994"/><rect fill="#2563EB" height="0.0717740524743488" width="1" x="91" y="0.9282259475256512"/><rect fill="#2563EB" height="0.05794360374699178" width="1" x="92" y="0.9420563962530082"/><rect fill="#2563EB" height="0.010248380276214457" width="1" x="93" y="0.9897516197237856"/><rect fill="#2563EB" height="0.002033203474162905" width="1" x="94" y="0.9979667965258371"/><rect fill="#2563EB" height="0.00036199985113911215" width="1" x="95" y="0.9996380001488608"/><rect fill="#2563EB" height="0.000086852938982633" width="1" x="96" y="0.9999131470610174"/><rect fill="#2563EB" height="0.0000027381014926684627" width="1" x="97" y="0.9999972618985074"/><rect fill="#2563EB" height="0" width="1" x="98" y="1"/><rect fill="#2563EB" height="0" width="1" x="99" y="1"/></svg>