<svg xmlns="http://www.w3.org/2000/svg" preserveAspectRatio="none" viewBox="0 0 100 1"><rect fill="#2563EB" height="0.086" width="1" x="0" y="0.914"/><rect fill="#2563EB" height="0.293" width="1" x="1" y="0.707"/><rect fill="#2563EB" height="0.592" width="1" x="2" y="0.408"/><rect fill="#2563EB" height="0.583" width="1" x="3" y="0.417"/><rect fill="#2563EB" height="0.565" width="1" x="4" y="0.435"/><rect fill="#2563EB" height="0.762" width="1" x="5" y="0.238"/><rect fill="#2563EB" height="0.477" width="1" x="6" y="0.523"/><rect fill="#2563EB" height="0.33" width="1" x="7" y="0.669"/><rect fill="#2563EB" height="0.336" width="1" x="8" y="0.663"/><rect fill="#2563EB" height="0.349" width="1" x="9" y="0.651"/><rect fill="#2563EB" height="0.509" width="1" x="10" y="0.491"/><rect fill="#2563EB" height="0.397" width="1" x="11" y="0.603"/><rect fill="#2563EB" height="0.675" width="1" x="12" y="0.324"/><rect fill="#2563EB" height="0.485" width="1" x="13" y="0.515"/><rect fill="#2563EB" height="0.563" width="1" x="14" y="0.437"/><rect fill="#2563EB" height="0.66" width="1" x="15" y="0.339"/><rect fill="#2563EB" height="0.429" width="1" x="16" y="0.571"/><rect fill="#2563EB" height="0.299" width="1" x="17" y="0.701"/><rect fill="#2563EB" height="0.287" width="1" x="18" y="0.713"/><rect fill="#2563EB" height="0.43" width="1" x="19" y="0.570"/><rect fill="#2563EB" height="0.48" width="1" x="20" y="0.52"/><rect fill="#2563EB" height="0.413" width="1" x="21" y="0.587"/><rect fill="#2563EB" height="0.755" width="1" x="22" y="0.245"/><rect fill="#2563EB" height="0.477" width="1" x="23" y="0.523"/><rect fill="#2563EB" height="0.663" width="1" x="24" y="0.336"/><rect fill="#2563EB" height="0.576" width="1" x="25" y="0.424"/><rect fill="#2563EB" height="0.359" width="1" x="26" y="0.641"/><rect fill="#2563EB" height="0.297" width="1" x="27" y="0.703"/><rect fill="#2563EB" height="0.283" width="1" x="28" y="0.717"/><rect fill="#2563EB" height="0.455" width="1" x="29" y="0.544"/><rect fill="#2563EB" height="0.425" width="1" x="30" y="0.575"/><rect fill="#2563EB" height="0.537" width="1" x="31" y="0.462"/><rect fill="#2563EB" height="0.654" width="1" x="32" y="0.346"/><rect fill="#2563EB" height="0.589" width="1" x="33" y="0.411"/><rect fill="#2563EB" height="0.809" width="1" x="34" y="0.190"/><rect fill="#2563EB" height="0.583" width="1" x="35" y="0.417"/><rect fill="#2563EB" height="0.406" width="1" x="36" y="0.594"/><rect fill="#2563EB" height="0.368" width="1" x="37" y="0.632"/><rect fill="#2563EB" height="0.352" width="1" x="38" y="0.648"/><rect fill="#2563EB" height="0.721" width="1" x="39" y="0.279"/><rect fill="#2563EB" height="0.805" width="1" x="40" y="0.194"/><rect fill="#2563EB" height="0.804" width="1" x="41" y="0.195"/><rect fill="#2563EB" height="0.749" width="1" x="42" y="0.251"/><rect fill="#2563EB" height="0.805" width="1" x="43" y="0.194"/><rect fill="#2563EB" height="0.904" width="1" x="44" y="0.095"/><rect fill="#2563EB" height="0.767" width="1" x="45" y="0.232"/><rect fill="#2563EB" height="0.642" width="1" x="46" y="0.358"/><rect fill="#2563EB" height="0.527" width="1" x="47" y="0.473"/><rect fill="#2563EB" height="0.697" width="1" x="48" y="0.303"/><rect fill="#2563EB" height="0.778" width="1" x="49" y="0.221"/><rect fill="#2563EB" height="0.773" width="1" x="50" y="0.226"/><rect fill="#2563EB" height="0.807" width="1" x="51" y="0.192"/><rect fill="#2563EB" height="0.607" width="1" x="52" y="0.393"/><rect fill="#2563EB" height="0.825" width="1" x="53" y="0.175"/><rect fill="#2563EB" height="0.799" width="1" x="54" y="0.200"/><rect fill="#2563EB" height="0.706" width="1" x="55" y="0.294"/><rect fill="#2563EB" height="0.616" width="1" x="56" y="0.384"/><rect fill="#2563EB" height="0.581" width="1" x="57" y="0.419"/><rect fill="#2563EB" height="0.65" width="1" x="58" y="0.35"/><rect fill="#2563EB" height="0.719" width="1" x="59" y="0.281"/><rect fill="#2563EB" height="0.638" width="1" x="60" y="0.362"/><rect fill="#2563EB" height="0.874" width="1" x="61" y="0.126"/><rect fill="#2563EB" height="0.603" width="1" x="62" y="0.397"/><rect fill="#2563EB" height="0.889" width="1" x="63" y="0.110"/><rect fill="#2563EB" height="0.746" width="1" x="64" y="0.254"/><rect fill="#2563EB" height="0.592" width="1" x="65" y="0.408"/><rect fill="#2563EB" height="0.564" width="1" x="66" y="0.436"/><rect fill="#2563EB" height="0.529" width="1" x="67" y="0.471"/><rect fill="#2563EB" height="0.689" width="1" x="68" y="0.311"/><rect fill="#2563EB" height="0.714" width="1" x="69" y="0.286"/><rect fill="#2563EB" height="0.66" width="1" x="70" y="0.339"/><rect fill="#2563EB" height="0.788" width="1" x="71" y="0.211"/><rect fill="#2563EB" height="0.762" width="1" x="72" y="0.238"/><rect fill="#2563EB" height="0.893" width="1" x="73" y="0.106"/><rect fill="#2563EB" height="0.783" width="1" x="74" y="0.216"/><rect fill="#2563EB" height="0.615" width="1" x="75" y="0.385"/><rect fill="#2563EB" height="0.472" width="1" x="76" y="0.528"/><rect fill="#2563EB" height="0.566" width="1" x="77" y="0.434"/><rect fill="#2563EB" height="0.772" width="1" x="78" y="0.227"/><rect fill="#2563EB" height="0.79" width="1" x="79" y="0.209"/><rect fill="#2563EB" height="1" width="1" x="80" y="0"/><rect fill="#2563EB" height="0.942" width="1" x="81" y="0.058"/><rect fill="#2563EB" height="0.757" width="1" x="82" y="0.243"/><rect fill="#2563EB" height="0.789" width="1" x="83" y="0.210"/><rect fill="#2563EB" height="0.52" width="1" x="84" y="0.48"/><rect fill="#2563EB" height="0.493" width="1" x="85" y="0.507"/><rect fill="#2563EB" height="0.178" width="1" x="86" y="0.822"/><rect fill="#2563EB" height="0.061" width="1" x="87" y="0.939"/><rect fill="#2563EB" height="0.06" width="1" x="88" y="0.94"/><rect fill="#2563EB" height="0.05" width="1" x="89" y="0.95"/><rect fill="#2563EB" height="0.054" width="1" x="90" y="0.946"/><rect fill="#2563EB" height="0.072" width="1" x="91" y="0.928"/><rect fill="#2563EB" height="0.058" width="1" x="92" y="0.942"/><rect fill="#2563EB" height="0.01" width="1" x="93" y="0.99"/><rect fill="#2563EB" height="0.002" width="1" x="94" y="0.998"/><rect fill="#2563EB" height="0" width="1" x="95" y="1"/><rect fill="#2563EB" height="0" width="1" x="96" y="1"/><rect fill="#2563EB" height="0" width="1" x="97" y="1"/><rect fill="#2563EB" height="0" width="1" x="98" y="1"/><rect fill="#2563EB" height="0" width="1" x="99" y="1"/></svg>