<svg xmlns="http://www.w3.org/2000/svg" preserveAspectRatio="none" viewBox="0 0 100 1"><rect fill="#2563EB" height="0.7265851683047081" width="1" x="0" y="0.2734148316952919"/><rect fill="#2563EB" height="0.9421766038696511" width="1" x="1" y="0.057823396130348925"/><rect fill="#2563EB" height="0.8213779086115862" width="1" x="2" y="0.17862209138841378"/><rect fill="#2563EB" height="0.934651457781179" width="1" x="3" y="0.06534854221882103"/><rect fill="#2563EB" height="0.8670793190790322" width="1" x="4" y="0.13292068092096776"/><rect fill="#2563EB" height="0.9925016380020896" width="1" x="5" y="0.00749836199791043"/><rect fill="#2563EB" height="0.8302791917139526" width="1" x="6" y="0.1697208082860474"/><rect fill="#2563EB" height="0.8512548940817121" width="1" x="7" y="0.14874510591828793"/><rect fill="#2563EB" height="0.8035391006002655" width="1" x="8" y="0.19646089939973455"/><rect fill="#2563EB" height="0.6649949137394658" width="1" x="9" y="0.33500508626053416"/><rect fill="#2563EB" height="0.6456129450710097" width="1" x="10" y="0.35438705492899025"/><rect fill="#2563EB" height="0.6755394402049526" width="1" x="11" y="0.3244605597950474"/><rect fill="#2563EB" height="0.8491773020858621" width="1" x="12" y="0.15082269791413794"/><rect fill="#2563EB" height="0.8998511846115189" width="1" x="13" y="0.10014881538848108"/><rect fill="#2563EB" height="0.9233857797422232" width="1" x="14" y="0.07661422025777676"/><rect fill="#2563EB" height="0.7967195290998879" width="1" x="15" y="0.20328047090011214"/><rect fill="#2563EB" height="0.853357341849762" width="1" x="16" y="0.14664265815023803"/><rect fill="#2563EB" height="0.7344407557457067" width="1" x="17" y="0.26555924425429334"/><rect fill="#2563EB" height="0.5999053068454765" width="1" x="18" y="0.4000946931545235"/><rect fill="#2563EB" height="0.7891290638724521" width="1" x="19" y="0.21087093612754793"/><rect fill="#2563EB" height="0.8377913911366077" width="1" x="20" y="0.16220860886339228"/><rect fill="#2563EB" height="0.8608923483868" width="1" x="21" y="0.13910765161320005"/><rect fill="#2563EB" height="0.8150338265028301" width="1" x="22" y="0.18496617349716993"/><rect fill="#2563EB" height="0.6867300493554748" width="1" x="23" y="0.31326995064452523"/><rect fill="#2563EB" height="0.7727737593859917" width="1" x="24" y="0.2272262406140083"/><rect fill="#2563EB" height="0.9970926878576827" width="1" x="25" y="0.00290731214231732"/><rect fill="#2563EB" height="0.9212874018927164" width="1" x="26" y="0.0787125981072836"/><rect fill="#2563EB" height="0.985617399164831" width="1" x="27" y="0.014382600835168957"/><rect fill="#2563EB" height="0.8976997199915012" width="1" x="28" y="0.10230028000849878"/><rect fill="#2563EB" height="0.9243751350120242" width="1" x="29" y="0.07562486498797583"/><rect fill="#2563EB" height="0.8234867458690311" width="1" x="30" y="0.17651325413096886"/><rect fill="#2563EB" height="0.8469879526785575" width="1" x="31" y="0.15301204732144247"/><rect fill="#2563EB" height="0.9122144685453274" width="1" x="32" y="0.0877855314546726"/><rect fill="#2563EB" height="0.6982616045016874" width="1" x="33" y="0.3017383954983126"/><rect fill="#2563EB" height="0.7068617604378586" width="1" x="34" y="0.29313823956214136"/><rect fill="#2563EB" height="0.8237144106616636" width="1" x="35" y="0.17628558933833638"/><rect fill="#2563EB" height="0.8950959811725221" width="1" x="36" y="0.10490401882747791"/><rect fill="#2563EB" height="0.8758022863470664" width="1" x="37" y="0.12419771365293364"/><rect fill="#2563EB" height="0.900250200102105" width="1" x="38" y="0.09974979989789501"/><rect fill="#2563EB" height="0.9428995225785287" width="1" x="39" y="0.057100477421471285"/><rect fill="#2563EB" height="0.9998705512559414" width="1" x="40" y="0.0001294487440586245"/><rect fill="#2563EB" height="0.6956830492983576" width="1" x="41" y="0.30431695070164244"/><rect fill="#2563EB" height="0.7024290830027339" width="1" x="42" y="0.2975709169972661"/><rect fill="#2563EB" height="0.6953265291212686" width="1" x="43" y="0.3046734708787314"/><rect fill="#2563EB" height="0.9041644319445886" width="1" x="44" y="0.09583556805541138"/><rect fill="#2563EB" height="0.8623987120164699" width="1" x="45" y="0.1376012879835301"/><rect fill="#2563EB" height="0.8625495687710788" width="1" x="46" y="0.1374504312289212"/><rect fill="#2563EB" height="0.7935297850408833" width="1" x="47" y="0.20647021495911666"/><rect fill="#2563EB" height="0.8111901515441484" width="1" x="48" y="0.18880984845585158"/><rect fill="#2563EB" height="0.8198266123418493" width="1" x="49" y="0.18017338765815072"/><rect fill="#2563EB" height="0.8894488136644586" width="1" x="50" y="0.1105511863355414"/><rect fill="#2563EB" height="0.9317581424127083" width="1" x="51" y="0.06824185758729173"/><rect fill="#2563EB" height="0.8114450722829849" width="1" x="52" y="0.1885549277170151"/><rect fill="#2563EB" height="0.9927281604128123" width="1" x="53" y="0.0072718395871876895"/><rect fill="#2563EB" height="0.9154300304681389" width="1" x="54" y="0.08456996953186113"/><rect fill="#2563EB" height="0.8674601784307174" width="1" x="55" y="0.13253982156928257"/><rect fill="#2563EB" height="0.9811234379768006" width="1" x="56" y="0.018876562023199428"/><rect fill="#2563EB" height="0.8422864641103919" width="1" x="57" y="0.15771353588960813"/><rect fill="#2563EB" height="0.6383612335589561" width="1" x="58" y="0.36163876644104387"/><rect fill="#2563EB" height="0.8123839378758114" width="1" x="59" y="0.18761606212418858"/><rect fill="#2563EB" height="0.9563277125449711" width="1" x="60" y="0.043672287455028935"/><rect fill="#2563EB" height="0.8761449895253935" width="1" x="61" y="0.12385501047460645"/><rect fill="#2563EB" height="0.788253834877958" width="1" x="62" y="0.21174616512204203"/><rect fill="#2563EB" height="0.8772603722335135" width="1" x="63" y="0.1227396277664865"/><rect fill="#2563EB" height="0.8138560917567941" width="1" x="64" y="0.18614390824320592"/><rect fill="#2563EB" height="0.8373558111447947" width="1" x="65" y="0.16264418885520526"/><rect fill="#2563EB" height="0.8047794213883169" width="1" x="66" y="0.19522057861168307"/><rect fill="#2563EB" height="0.8233410332991853" width="1" x="67" y="0.1766589667008147"/><rect fill="#2563EB" height="0.7484894924346354" width="1" x="68" y="0.25151050756536464"/><rect fill="#2563EB" height="1" width="1" x="69" y="0"/><rect fill="#2563EB" height="0.7891927191534867" width="1" x="70" y="0.21080728084651335"/><rect fill="#2563EB" height="0.9120110624759663" width="1" x="71" y="0.0879889375240337"/><rect fill="#2563EB" height="0.6705129680616254" width="1" x="72" y="0.3294870319383746"/><rect fill="#2563EB" height="0.7793943868062979" width="1" x="73" y="0.2206056131937021"/><rect fill="#2563EB" height="0.6817629319579394" width="1" x="74" y="0.31823706804206064"/><rect fill="#2563EB" height="0.963390315652866" width="1" x="75" y="0.036609684347133964"/><rect fill="#2563EB" height="0.7116385735060633" width="1" x="76" y="0.2883614264939367"/><rect fill="#2563EB" height="0.9439818911639191" width="1" x="77" y="0.05601810883608094"/><rect fill="#2563EB" height="0.7066679653371378" width="1" x="78" y="0.2933320346628622"/><rect fill="#2563EB" height="0.8359458583393523" width="1" x="79" y="0.1640541416606477"/><rect fill="#2563EB" height="0.7748684051655533" width="1" x="80" y="0.22513159483444667"/><rect fill="#2563EB" height="0.757726230487782" width="1" x="81" y="0.24227376951221802"/><rect fill="#2563EB" height="0.6774998097333544" width="1" x="82" y="0.32250019026664556"/><rect fill="#2563EB" height="0.7396388580049037" width="1" x="83" y="0.2603611419950963"/><rect fill="#2563EB" height="0.734077928085" width="1" x="84" y="0.26592207191499995"/><rect fill="#2563EB" height="0.8660793401753792" width="1" x="85" y="0.13392065982462076"/><rect fill="#2563EB" height="0.7769989598473415" width="1" x="86" y="0.22300104015265854"/><rect fill="#2563EB" height="0.9397060746447" width="1" x="87" y="0.06029392535529998"/><rect fill="#2563EB" height="0.846359859204286" width="1" x="88" y="0.15364014079571398"/><rect fill="#2563EB" height="0.7696619435895379" width="1" x="89" y="0.23033805641046212"/><rect fill="#2563EB" height="0.5954744681401183" width="1" x="90" y="0.4045255318598817"/><rect fill="#2563EB" height="0.6595216577083163" width="1" x="91" y="0.3404783422916837"/><rect fill="#2563EB" height="0.6584009997785402" width="1" x="92" y="0.34159900022145984"/><rect fill="#2563EB" height="0.88497762046934" width="1" x="93" y="0.11502237953065997"/><rect fill="#2563EB" height="0.7693552625728369" width="1" x="94" y="0.23064473742716307"/><rect fill="#2563EB" height="0.7588890644545262" width="1" x="95" y="0.2411109355454738"/><rect fill="#2563EB" height="0.7711797953123861" width="1" x="96" y="0.22882020468761388"/><rect fill="#2563EB" height="0.4661643589851688" width="1" x="97" y="0.5338356410148313"/><rect fill="#2563EB" height="0.007662435686607536" width="1" x="98" y="0.9923375643133925"/><rect fill="#2563EB" height="0.00017511911565563034" width="1" x="99" y="0.9998248808843444"/></svg>