<svg xmlns="http://www.w3.org/2000/svg" preserveAspectRatio="none" viewBox="0 0 100 1"><rect fill="#2563EB" height="0.727" width="1" x="0" y="0.273"/><rect fill="#2563EB" height="0.942" width="1" x="1" y="0.058"/><rect fill="#2563EB" height="0.821" width="1" x="2" y="0.179"/><rect fill="#2563EB" height="0.935" width="1" x="3" y="0.064"/><rect fill="#2563EB" height="0.867" width="1" x="4" y="0.133"/><rect fill="#2563EB" height="0.993" width="1" x="5" y="0.007"/><rect fill="#2563EB" height="0.83" width="1" x="6" y="0.170"/><rect fill="#2563EB" height="0.851" width="1" x="7" y="0.149"/><rect fill="#2563EB" height="0.804" width="1" x="8" y="0.195"/><rect fill="#2563EB" height="0.665" width="1" x="9" y="0.334"/><rect fill="#2563EB" height="0.646" width="1" x="10" y="0.354"/><rect fill="#2563EB" height="0.676" width="1" x="11" y="0.323"/><rect fill="#2563EB" height="0.849" width="1" x="12" y="0.151"/><rect fill="#2563EB" height="0.9" width="1" x="13" y="0.099"/><rect fill="#2563EB" height="0.923" width="1" x="14" y="0.076"/><rect fill="#2563EB" height="0.797" width="1" x="15" y="0.202"/><rect fill="#2563EB" height="0.853" width="1" x="16" y="0.147"/><rect fill="#2563EB" height="0.734" width="1" x="17" y="0.266"/><rect fill="#2563EB" height="0.6" width="1" x="18" y="0.4"/><rect fill="#2563EB" height="0.789" width="1" x="19" y="0.210"/><rect fill="#2563EB" height="0.838" width="1" x="20" y="0.162"/><rect fill="#2563EB" height="0.861" width="1" x="21" y="0.139"/><rect fill="#2563EB" height="0.815" width="1" x="22" y="0.185"/><rect fill="#2563EB" height="0.687" width="1" x="23" y="0.312"/><rect fill="#2563EB" height="0.773" width="1" x="24" y="0.226"/><rect fill="#2563EB" height="0.997" width="1" x="25" y="0.003"/><rect fill="#2563EB" height="0.921" width="1" x="26" y="0.078"/><rect fill="#2563EB" height="0.986" width="1" x="27" y="0.014"/><rect fill="#2563EB" height="0.898" width="1" x="28" y="0.101"/><rect fill="#2563EB" height="0.924" width="1" x="29" y="0.075"/><rect fill="#2563EB" height="0.823" width="1" x="30" y="0.177"/><rect fill="#2563EB" height="0.847" width="1" x="31" y="0.153"/><rect fill="#2563EB" height="0.912" width="1" x="32" y="0.087"/><rect fill="#2563EB" height="0.698" width="1" x="33" y="0.302"/><rect fill="#2563EB" height="0.707" width="1" x="34" y="0.293"/><rect fill="#2563EB" height="0.824" width="1" x="35" y="0.176"/><rect fill="#2563EB" height="0.895" width="1" x="36" y="0.104"/><rect fill="#2563EB" height="0.876" width="1" x="37" y="0.124"/><rect fill="#2563EB" height="0.9" width="1" x="38" y="0.099"/><rect fill="#2563EB" height="0.943" width="1" x="39" y="0.057"/><rect fill="#2563EB" height="1" width="1" x="40" y="0"/><rect fill="#2563EB" height="0.696" width="1" x="41" y="0.304"/><rect fill="#2563EB" height="0.702" width="1" x="42" y="0.298"/><rect fill="#2563EB" height="0.695" width="1" x="43" y="0.305"/><rect fill="#2563EB" height="0.904" width="1" x="44" y="0.095"/><rect fill="#2563EB" height="0.862" width="1" x="45" y="0.138"/><rect fill="#2563EB" height="0.863" width="1" x="46" y="0.137"/><rect fill="#2563EB" height="0.794" width="1" x="47" y="0.205"/><rect fill="#2563EB" height="0.811" width="1" x="48" y="0.188"/><rect fill="#2563EB" height="0.82" width="1" x="49" y="0.180"/><rect fill="#2563EB" height="0.889" width="1" x="50" y="0.110"/><rect fill="#2563EB" height="0.932" width="1" x="51" y="0.067"/><rect fill="#2563EB" height="0.811" width="1" x="52" y="0.188"/><rect fill="#2563EB" height="0.993" width="1" x="53" y="0.007"/><rect fill="#2563EB" height="0.915" width="1" x="54" y="0.084"/><rect fill="#2563EB" height="0.867" width="1" x="55" y="0.133"/><rect fill="#2563EB" height="0.981" width="1" x="56" y="0.019"/><rect fill="#2563EB" height="0.842" width="1" x="57" y="0.158"/><rect fill="#2563EB" height="0.638" width="1" x="58" y="0.362"/><rect fill="#2563EB" height="0.812" width="1" x="59" y="0.187"/><rect fill="#2563EB" height="0.956" width="1" x="60" y="0.044"/><rect fill="#2563EB" height="0.876" width="1" x="61" y="0.124"/><rect fill="#2563EB" height="0.788" width="1" x="62" y="0.211"/><rect fill="#2563EB" height="0.877" width="1" x="63" y="0.123"/><rect fill="#2563EB" height="0.814" width="1" x="64" y="0.186"/><rect fill="#2563EB" height="0.837" width="1" x="65" y="0.163"/><rect fill="#2563EB" height="0.805" width="1" x="66" y="0.194"/><rect fill="#2563EB" height="0.823" width="1" x="67" y="0.177"/><rect fill="#2563EB" height="0.748" width="1" x="68" y="0.252"/><rect fill="#2563EB" height="1" width="1" x="69" y="0"/><rect fill="#2563EB" height="0.789" width="1" x="70" y="0.210"/><rect fill="#2563EB" height="0.912" width="1" x="71" y="0.087"/><rect fill="#2563EB" height="0.671" width="1" x="72" y="0.328"/><rect fill="#2563EB" height="0.779" width="1" x="73" y="0.220"/><rect fill="#2563EB" height="0.682" width="1" x="74" y="0.317"/><rect fill="#2563EB" height="0.963" width="1" x="75" y="0.037"/><rect fill="#2563EB" height="0.712" width="1" x="76" y="0.288"/><rect fill="#2563EB" height="0.944" width="1" x="77" y="0.056"/><rect fill="#2563EB" height="0.707" width="1" x="78" y="0.293"/><rect fill="#2563EB" height="0.836" width="1" x="79" y="0.164"/><rect fill="#2563EB" height="0.775" width="1" x="80" y="0.224"/><rect fill="#2563EB" height="0.758" width="1" x="81" y="0.242"/><rect fill="#2563EB" height="0.677" width="1" x="82" y="0.322"/><rect fill="#2563EB" height="0.74" width="1" x="83" y="0.26"/><rect fill="#2563EB" height="0.734" width="1" x="84" y="0.266"/><rect fill="#2563EB" height="0.866" width="1" x="85" y="0.134"/><rect fill="#2563EB" height="0.777" width="1" x="86" y="0.222"/><rect fill="#2563EB" height="0.94" width="1" x="87" y="0.060"/><rect fill="#2563EB" height="0.846" width="1" x="88" y="0.154"/><rect fill="#2563EB" height="0.77" width="1" x="89" y="0.229"/><rect fill="#2563EB" height="0.595" width="1" x="90" y="0.405"/><rect fill="#2563EB" height="0.66" width="1" x="91" y="0.339"/><rect fill="#2563EB" height="0.658" width="1" x="92" y="0.341"/><rect fill="#2563EB" height="0.885" width="1" x="93" y="0.114"/><rect fill="#2563EB" height="0.769" width="1" x="94" y="0.230"/><rect fill="#2563EB" height="0.759" width="1" x="95" y="0.241"/><rect fill="#2563EB" height="0.771" width="1" x="96" y="0.228"/><rect fill="#2563EB" height="0.466" width="1" x="97" y="0.534"/><rect fill="#2563EB" height="0.008" width="1" x="98" y="0.992"/><rect fill="#2563EB" height="0" width="1" x="99" y="1"/></svg>