<svg xmlns="http://www.w3.org/2000/svg" preserveAspectRatio="none" viewBox="0 0 100 1"><rect fill="#2563EB" height="0.35627269324083805" width="1" x="0" y="0.643727306759162"/><rect fill="#2563EB" height="0.39192682908326765" width="1" x="1" y="0.6080731709167324"/><rect fill="#2563EB" height="0.4215533764672793" width="1" x="2" y="0.5784466235327207"/><rect fill="#2563EB" height="0.40517561383445483" width="1" x="3" y="0.5948243861655451"/><rect fill="#2563EB" height="0.4676846939945335" width="1" x="4" y="0.5323153060054665"/><rect fill="#2563EB" height="0.38736453663361403" width="1" x="5" y="0.612635463366386"/><rect fill="#2563EB" height="0.43422188086554875" width="1" x="6" y="0.5657781191344513"/><rect fill="#2563EB" height="0.4109567873538338" width="1" x="7" y="0.5890432126461662"/><rect fill="#2563EB" height="0.37094253042461883" width="1" x="8" y="0.6290574695753812"/><rect fill="#2563EB" height="0.4295844332549929" width="1" x="9" y="0.570415566745007"/><rect fill="#2563EB" height="0.43439333307845246" width="1" x="10" y="0.5656066669215476"/><rect fill="#2563EB" height="0.3948652087076402" width="1" x="11" y="0.6051347912923598"/><rect fill="#2563EB" height="0.26704034512001074" width="1" x="12" y="0.7329596548799893"/><rect fill="#2563EB" height="0.7886215157257654" width="1" x="13" y="0.21137848427423456"/><rect fill="#2563EB" height="0.6187643222174529" width="1" x="14" y="0.3812356777825471"/><rect fill="#2563EB" height="0.6721873750616272" width="1" x="15" y="0.3278126249383728"/><rect fill="#2563EB" height="0.7540749707487792" width="1" x="16" y="0.24592502925122084"/><rect fill="#2563EB" height="0.6317295840850691" width="1" x="17" y="0.3682704159149309"/><rect fill="#2563EB" height="0.674527808965974" width="1" x="18" y="0.325472191034026"/><rect fill="#2563EB" height="0.6605939371337616" width="1" x="19" y="0.3394060628662384"/><rect fill="#2563EB" height="0.6559791194127734" width="1" x="20" y="0.3440208805872266"/><rect fill="#2563EB" height="0.7345851270434857" width="1" x="21" y="0.26541487295651434"/><rect fill="#2563EB" height="0.6890089802126141" width="1" x="22" y="0.31099101978738586"/><rect fill="#2563EB" height="0.6991103957877091" width="1" x="23" y="0.30088960421229094"/><rect fill="#2563EB" height="0.7189687540459251" width="1" x="24" y="0.2810312459540749"/><rect fill="#2563EB" height="0.6132466670100106" width="1" x="25" y="0.3867533329899894"/><rect fill="#2563EB" height="0.6906411256215659" width="1" x="26" y="0.3093588743784341"/><rect fill="#2563EB" height="0.7335543717865348" width="1" x="27" y="0.2664456282134652"/><rect fill="#2563EB" height="0.685229495838813" width="1" x="28" y="0.314770504161187"/><rect fill="#2563EB" height="0.7557754354652708" width="1" x="29" y="0.24422456453472918"/><rect fill="#2563EB" height="0.6623743877048895" width="1" x="30" y="0.33762561229511046"/><rect fill="#2563EB" height="0.777854584693935" width="1" x="31" y="0.22214541530606502"/><rect fill="#2563EB" height="0.9025643960311769" width="1" x="32" y="0.09743560396882311"/><rect fill="#2563EB" height="0.7066154815081043" width="1" x="33" y="0.29338451849189573"/><rect fill="#2563EB" height="0.8234205025150995" width="1" x="34" y="0.17657949748490054"/><rect fill="#2563EB" height="0.9211317045042615" width="1" x="35" y="0.07886829549573848"/><rect fill="#2563EB" height="0.6121368797770219" width="1" x="36" y="0.3878631202229781"/><rect fill="#2563EB" height="0.594137521548718" width="1" x="37" y="0.405862478451282"/><rect fill="#2563EB" height="0.7632725031085998" width="1" x="38" y="0.23672749689140016"/><rect fill="#2563EB" height="0.71183279685922" width="1" x="39" y="0.28816720314078004"/><rect fill="#2563EB" height="0.744042584735679" width="1" x="40" y="0.25595741526432103"/><rect fill="#2563EB" height="0.7607628235731924" width="1" x="41" y="0.23923717642680764"/><rect fill="#2563EB" height="0.8360500234093683" width="1" x="42" y="0.1639499765906317"/><rect fill="#2563EB" height="0.7726684560729339" width="1" x="43" y="0.22733154392706612"/><rect fill="#2563EB" height="0.7233811672892755" width="1" x="44" y="0.2766188327107245"/><rect fill="#2563EB" height="0.6937681758431041" width="1" x="45" y="0.30623182415689587"/><rect fill="#2563EB" height="0.796165379659056" width="1" x="46" y="0.20383462034094402"/><rect fill="#2563EB" height="0.7777226752580091" width="1" x="47" y="0.2222773247419909"/><rect fill="#2563EB" height="0.6763382133535769" width="1" x="48" y="0.3236617866464231"/><rect fill="#2563EB" height="0.8653499996025763" width="1" x="49" y="0.1346500003974237"/><rect fill="#2563EB" height="0.9461515138073266" width="1" x="50" y="0.05384848619267335"/><rect fill="#2563EB" height="0.7211344334394179" width="1" x="51" y="0.27886556656058215"/><rect fill="#2563EB" height="0.6203538881167547" width="1" x="52" y="0.37964611188324526"/><rect fill="#2563EB" height="0.7737047799362663" width="1" x="53" y="0.2262952200637337"/><rect fill="#2563EB" height="0.7482358119060682" width="1" x="54" y="0.25176418809393175"/><rect fill="#2563EB" height="0.7253998070240706" width="1" x="55" y="0.2746001929759294"/><rect fill="#2563EB" height="0.7634849506867458" width="1" x="56" y="0.23651504931325418"/><rect fill="#2563EB" height="0.8334238327872324" width="1" x="57" y="0.16657616721276758"/><rect fill="#2563EB" height="0.6799564399345673" width="1" x="58" y="0.32004356006543266"/><rect fill="#2563EB" height="0.7470492262772797" width="1" x="59" y="0.25295077372272035"/><rect fill="#2563EB" height="0.9573669139789469" width="1" x="60" y="0.04263308602105309"/><rect fill="#2563EB" height="0.8783699835716641" width="1" x="61" y="0.12163001642833593"/><rect fill="#2563EB" height="0.9373863302299514" width="1" x="62" y="0.06261366977004856"/><rect fill="#2563EB" height="0.9263578950874634" width="1" x="63" y="0.07364210491253664"/><rect fill="#2563EB" height="0.8238244252290208" width="1" x="64" y="0.17617557477097923"/><rect fill="#2563EB" height="0.8182000106140142" width="1" x="65" y="0.18179998938598585"/><rect fill="#2563EB" height="0.8078832872459708" width="1" x="66" y="0.1921167127540292"/><rect fill="#2563EB" height="0.8788240273525175" width="1" x="67" y="0.12117597264748248"/><rect fill="#2563EB" height="0.9082287800445668" width="1" x="68" y="0.09177121995543325"/><rect fill="#2563EB" height="0.8559555668483384" width="1" x="69" y="0.1440444331516616"/><rect fill="#2563EB" height="0.7625294722063357" width="1" x="70" y="0.2374705277936643"/><rect fill="#2563EB" height="0.7787909799586186" width="1" x="71" y="0.22120902004138143"/><rect fill="#2563EB" height="0.9258936806786486" width="1" x="72" y="0.07410631932135137"/><rect fill="#2563EB" height="0.7832747828840414" width="1" x="73" y="0.2167252171159586"/><rect fill="#2563EB" height="0.8623828841713026" width="1" x="74" y="0.1376171158286974"/><rect fill="#2563EB" height="0.9896687856013067" width="1" x="75" y="0.010331214398693334"/><rect fill="#2563EB" height="0.8803575037028983" width="1" x="76" y="0.11964249629710166"/><rect fill="#2563EB" height="0.6463431414913893" width="1" x="77" y="0.3536568585086107"/><rect fill="#2563EB" height="0.725145512149353" width="1" x="78" y="0.27485448785064703"/><rect fill="#2563EB" height="0.9527478245568274" width="1" x="79" y="0.04725217544317262"/><rect fill="#2563EB" height="0.7708922978512498" width="1" x="80" y="0.2291077021487502"/><rect fill="#2563EB" height="0.7976235995251176" width="1" x="81" y="0.20237640047488237"/><rect fill="#2563EB" height="0.7863849156287674" width="1" x="82" y="0.21361508437123256"/><rect fill="#2563EB" height="0.8189705239045217" width="1" x="83" y="0.18102947609547826"/><rect fill="#2563EB" height="0.6975664789835091" width="1" x="84" y="0.3024335210164909"/><rect fill="#2563EB" height="0.8865006031007059" width="1" x="85" y="0.11349939689929411"/><rect fill="#2563EB" height="0.9452490405378557" width="1" x="86" y="0.054750959462144255"/><rect fill="#2563EB" height="1" width="1" x="87" y="0"/><rect fill="#2563EB" height="0.85830218548757" width="1" x="88" y="0.14169781451243002"/><rect fill="#2563EB" height="0.9301825717135459" width="1" x="89" y="0.0698174282864541"/><rect fill="#2563EB" height="0.8725253089704332" width="1" x="90" y="0.12747469102956677"/><rect fill="#2563EB" height="0.7535979494793363" width="1" x="91" y="0.24640205052066366"/><rect fill="#2563EB" height="0.9021707648851138" width="1" x="92" y="0.09782923511488617"/><rect fill="#2563EB" height="0.8239020626688935" width="1" x="93" y="0.17609793733110646"/><rect fill="#2563EB" height="0.8023532738858383" width="1" x="94" y="0.19764672611416167"/><rect fill="#2563EB" height="0.9754074969914206" width="1" x="95" y="0.024592503008579403"/><rect fill="#2563EB" height="0.786035742755924" width="1" x="96" y="0.21396425724407597"/><rect fill="#2563EB" height="0.7858769614693186" width="1" x="97" y="0.21412303853068138"/><rect fill="#2563EB" height="0.10885295115681645" width="1" x="98" y="0.8911470488431835"/><rect fill="#2563EB" height="0.001190746433415756" width="1" x="99" y="0.9988092535665842"/></svg>