<svg xmlns="http://www.w3.org/2000/svg" preserveAspectRatio="none" viewBox="0 0 100 1"><rect fill="#2563EB" height="0.356" width="1" x="0" y="0.644"/><rect fill="#2563EB" height="0.392" width="1" x="1" y="0.608"/><rect fill="#2563EB" height="0.422" width="1" x="2" y="0.578"/><rect fill="#2563EB" height="0.405" width="1" x="3" y="0.595"/><rect fill="#2563EB" height="0.468" width="1" x="4" y="0.532"/><rect fill="#2563EB" height="0.387" width="1" x="5" y="0.613"/><rect fill="#2563EB" height="0.434" width="1" x="6" y="0.566"/><rect fill="#2563EB" height="0.411" width="1" x="7" y="0.589"/><rect fill="#2563EB" height="0.371" width="1" x="8" y="0.629"/><rect fill="#2563EB" height="0.43" width="1" x="9" y="0.570"/><rect fill="#2563EB" height="0.434" width="1" x="10" y="0.566"/><rect fill="#2563EB" height="0.395" width="1" x="11" y="0.605"/><rect fill="#2563EB" height="0.267" width="1" x="12" y="0.733"/><rect fill="#2563EB" height="0.789" width="1" x="13" y="0.210"/><rect fill="#2563EB" height="0.619" width="1" x="14" y="0.381"/><rect fill="#2563EB" height="0.672" width="1" x="15" y="0.327"/><rect fill="#2563EB" height="0.754" width="1" x="16" y="0.246"/><rect fill="#2563EB" height="0.632" width="1" x="17" y="0.368"/><rect fill="#2563EB" height="0.675" width="1" x="18" y="0.324"/><rect fill="#2563EB" height="0.661" width="1" x="19" y="0.338"/><rect fill="#2563EB" height="0.656" width="1" x="20" y="0.344"/><rect fill="#2563EB" height="0.735" width="1" x="21" y="0.265"/><rect fill="#2563EB" height="0.689" width="1" x="22" y="0.311"/><rect fill="#2563EB" height="0.699" width="1" x="23" y="0.301"/><rect fill="#2563EB" height="0.719" width="1" x="24" y="0.281"/><rect fill="#2563EB" height="0.613" width="1" x="25" y="0.387"/><rect fill="#2563EB" height="0.691" width="1" x="26" y="0.309"/><rect fill="#2563EB" height="0.734" width="1" x="27" y="0.266"/><rect fill="#2563EB" height="0.685" width="1" x="28" y="0.314"/><rect fill="#2563EB" height="0.756" width="1" x="29" y="0.244"/><rect fill="#2563EB" height="0.662" width="1" x="30" y="0.337"/><rect fill="#2563EB" height="0.778" width="1" x="31" y="0.221"/><rect fill="#2563EB" height="0.903" width="1" x="32" y="0.096"/><rect fill="#2563EB" height="0.707" width="1" x="33" y="0.293"/><rect fill="#2563EB" height="0.823" width="1" x="34" y="0.177"/><rect fill="#2563EB" height="0.921" width="1" x="35" y="0.078"/><rect fill="#2563EB" height="0.612" width="1" x="36" y="0.388"/><rect fill="#2563EB" height="0.594" width="1" x="37" y="0.406"/><rect fill="#2563EB" height="0.763" width="1" x="38" y="0.237"/><rect fill="#2563EB" height="0.712" width="1" x="39" y="0.288"/><rect fill="#2563EB" height="0.744" width="1" x="40" y="0.256"/><rect fill="#2563EB" height="0.761" width="1" x="41" y="0.239"/><rect fill="#2563EB" height="0.836" width="1" x="42" y="0.164"/><rect fill="#2563EB" height="0.773" width="1" x="43" y="0.226"/><rect fill="#2563EB" height="0.723" width="1" x="44" y="0.277"/><rect fill="#2563EB" height="0.694" width="1" x="45" y="0.306"/><rect fill="#2563EB" height="0.796" width="1" x="46" y="0.203"/><rect fill="#2563EB" height="0.778" width="1" x="47" y="0.221"/><rect fill="#2563EB" height="0.676" width="1" x="48" y="0.323"/><rect fill="#2563EB" height="0.865" width="1" x="49" y="0.135"/><rect fill="#2563EB" height="0.946" width="1" x="50" y="0.054"/><rect fill="#2563EB" height="0.721" width="1" x="51" y="0.279"/><rect fill="#2563EB" height="0.62" width="1" x="52" y="0.38"/><rect fill="#2563EB" height="0.774" width="1" x="53" y="0.225"/><rect fill="#2563EB" height="0.748" width="1" x="54" y="0.252"/><rect fill="#2563EB" height="0.725" width="1" x="55" y="0.275"/><rect fill="#2563EB" height="0.763" width="1" x="56" y="0.237"/><rect fill="#2563EB" height="0.833" width="1" x="57" y="0.167"/><rect fill="#2563EB" height="0.68" width="1" x="58" y="0.319"/><rect fill="#2563EB" height="0.747" width="1" x="59" y="0.253"/><rect fill="#2563EB" height="0.957" width="1" x="60" y="0.043"/><rect fill="#2563EB" height="0.878" width="1" x="61" y="0.122"/><rect fill="#2563EB" height="0.937" width="1" x="62" y="0.062"/><rect fill="#2563EB" height="0.926" width="1" x="63" y="0.073"/><rect fill="#2563EB" height="0.824" width="1" x="64" y="0.176"/><rect fill="#2563EB" height="0.818" width="1" x="65" y="0.182"/><rect fill="#2563EB" height="0.808" width="1" x="66" y="0.191"/><rect fill="#2563EB" height="0.879" width="1" x="67" y="0.121"/><rect fill="#2563EB" height="0.908" width="1" x="68" y="0.091"/><rect fill="#2563EB" height="0.856" width="1" x="69" y="0.144"/><rect fill="#2563EB" height="0.763" width="1" x="70" y="0.237"/><rect fill="#2563EB" height="0.779" width="1" x="71" y="0.220"/><rect fill="#2563EB" height="0.926" width="1" x="72" y="0.073"/><rect fill="#2563EB" height="0.783" width="1" x="73" y="0.216"/><rect fill="#2563EB" height="0.862" width="1" x="74" y="0.138"/><rect fill="#2563EB" height="0.99" width="1" x="75" y="0.010"/><rect fill="#2563EB" height="0.88" width="1" x="76" y="0.12"/><rect fill="#2563EB" height="0.646" width="1" x="77" y="0.354"/><rect fill="#2563EB" height="0.725" width="1" x="78" y="0.275"/><rect fill="#2563EB" height="0.953" width="1" x="79" y="0.047"/><rect fill="#2563EB" height="0.771" width="1" x="80" y="0.228"/><rect fill="#2563EB" height="0.798" width="1" x="81" y="0.201"/><rect fill="#2563EB" height="0.786" width="1" x="82" y="0.213"/><rect fill="#2563EB" height="0.819" width="1" x="83" y="0.181"/><rect fill="#2563EB" height="0.698" width="1" x="84" y="0.302"/><rect fill="#2563EB" height="0.887" width="1" x="85" y="0.112"/><rect fill="#2563EB" height="0.945" width="1" x="86" y="0.055"/><rect fill="#2563EB" height="1" width="1" x="87" y="0"/><rect fill="#2563EB" height="0.858" width="1" x="88" y="0.142"/><rect fill="#2563EB" height="0.93" width="1" x="89" y="0.069"/><rect fill="#2563EB" height="0.873" width="1" x="90" y="0.127"/><rect fill="#2563EB" height="0.754" width="1" x="91" y="0.246"/><rect fill="#2563EB" height="0.902" width="1" x="92" y="0.097"/><rect fill="#2563EB" height="0.824" width="1" x="93" y="0.176"/><rect fill="#2563EB" height="0.802" width="1" x="94" y="0.197"/><rect fill="#2563EB" height="0.975" width="1" x="95" y="0.025"/><rect fill="#2563EB" height="0.786" width="1" x="96" y="0.213"/><rect fill="#2563EB" height="0.786" width="1" x="97" y="0.213"/><rect fill="#2563EB" height="0.109" width="1" x="98" y="0.891"/><rect fill="#2563EB" height="0.001" width="1" x="99" y="0.999"/></svg>