<svg xmlns="http://www.w3.org/2000/svg" preserveAspectRatio="none" viewBox="0 0 100 1"><rect fill="#2563EB" height="0.491" width="1" x="0" y="0.509"/><rect fill="#2563EB" height="0.58" width="1" x="1" y="0.420"/><rect fill="#2563EB" height="0.656" width="1" x="2" y="0.344"/><rect fill="#2563EB" height="0.474" width="1" x="3" y="0.526"/><rect fill="#2563EB" height="0.514" width="1" x="4" y="0.486"/><rect fill="#2563EB" height="0.624" width="1" x="5" y="0.376"/><rect fill="#2563EB" height="0.528" width="1" x="6" y="0.472"/><rect fill="#2563EB" height="0.621" width="1" x="7" y="0.379"/><rect fill="#2563EB" height="0.526" width="1" x="8" y="0.474"/><rect fill="#2563EB" height="0.519" width="1" x="9" y="0.481"/><rect fill="#2563EB" height="0.748" width="1" x="10" y="0.252"/><rect fill="#2563EB" height="0.676" width="1" x="11" y="0.323"/><rect fill="#2563EB" height="0.795" width="1" x="12" y="0.204"/><rect fill="#2563EB" height="0.594" width="1" x="13" y="0.406"/><rect fill="#2563EB" height="0.641" width="1" x="14" y="0.359"/><rect fill="#2563EB" height="0.7" width="1" x="15" y="0.300"/><rect fill="#2563EB" height="0.643" width="1" x="16" y="0.357"/><rect fill="#2563EB" height="0.734" width="1" x="17" y="0.266"/><rect fill="#2563EB" height="0.645" width="1" x="18" y="0.355"/><rect fill="#2563EB" height="0.681" width="1" x="19" y="0.318"/><rect fill="#2563EB" height="0.747" width="1" x="20" y="0.253"/><rect fill="#2563EB" height="0.619" width="1" x="21" y="0.381"/><rect fill="#2563EB" height="0.668" width="1" x="22" y="0.331"/><rect fill="#2563EB" height="0.583" width="1" x="23" y="0.417"/><rect fill="#2563EB" height="0.614" width="1" x="24" y="0.386"/><rect fill="#2563EB" height="0.827" width="1" x="25" y="0.173"/><rect fill="#2563EB" height="0.639" width="1" x="26" y="0.361"/><rect fill="#2563EB" height="0.724" width="1" x="27" y="0.276"/><rect fill="#2563EB" height="0.686" width="1" x="28" y="0.313"/><rect fill="#2563EB" height="0.668" width="1" x="29" y="0.331"/><rect fill="#2563EB" height="0.85" width="1" x="30" y="0.150"/><rect fill="#2563EB" height="0.683" width="1" x="31" y="0.316"/><rect fill="#2563EB" height="0.885" width="1" x="32" y="0.114"/><rect fill="#2563EB" height="0.62" width="1" x="33" y="0.38"/><rect fill="#2563EB" height="0.647" width="1" x="34" y="0.353"/><rect fill="#2563EB" height="0.757" width="1" x="35" y="0.243"/><rect fill="#2563EB" height="0.661" width="1" x="36" y="0.338"/><rect fill="#2563EB" height="0.781" width="1" x="37" y="0.218"/><rect fill="#2563EB" height="0.995" width="1" x="38" y="0.005"/><rect fill="#2563EB" height="0.85" width="1" x="39" y="0.150"/><rect fill="#2563EB" height="0.873" width="1" x="40" y="0.127"/><rect fill="#2563EB" height="0.655" width="1" x="41" y="0.345"/><rect fill="#2563EB" height="1" width="1" x="42" y="0"/><rect fill="#2563EB" height="0.597" width="1" x="43" y="0.403"/><rect fill="#2563EB" height="0.658" width="1" x="44" y="0.341"/><rect fill="#2563EB" height="0.798" width="1" x="45" y="0.201"/><rect fill="#2563EB" height="0.603" width="1" x="46" y="0.397"/><rect fill="#2563EB" height="0.827" width="1" x="47" y="0.173"/><rect fill="#2563EB" height="0.94" width="1" x="48" y="0.060"/><rect fill="#2563EB" height="0.883" width="1" x="49" y="0.116"/><rect fill="#2563EB" height="0.799" width="1" x="50" y="0.200"/><rect fill="#2563EB" height="0.707" width="1" x="51" y="0.293"/><rect fill="#2563EB" height="0.942" width="1" x="52" y="0.058"/><rect fill="#2563EB" height="0.721" width="1" x="53" y="0.279"/><rect fill="#2563EB" height="0.64" width="1" x="54" y="0.36"/><rect fill="#2563EB" height="0.82" width="1" x="55" y="0.180"/><rect fill="#2563EB" height="0.657" width="1" x="56" y="0.342"/><rect fill="#2563EB" height="0.847" width="1" x="57" y="0.153"/><rect fill="#2563EB" height="0.618" width="1" x="58" y="0.382"/><rect fill="#2563EB" height="0.734" width="1" x="59" y="0.266"/><rect fill="#2563EB" height="0.826" width="1" x="60" y="0.174"/><rect fill="#2563EB" height="0.702" width="1" x="61" y="0.298"/><rect fill="#2563EB" height="0.86" width="1" x="62" y="0.14"/><rect fill="#2563EB" height="0.713" width="1" x="63" y="0.287"/><rect fill="#2563EB" height="0.764" width="1" x="64" y="0.236"/><rect fill="#2563EB" height="0.843" width="1" x="65" y="0.157"/><rect fill="#2563EB" height="0.633" width="1" x="66" y="0.367"/><rect fill="#2563EB" height="0.802" width="1" x="67" y="0.197"/><rect fill="#2563EB" height="0.525" width="1" x="68" y="0.475"/><rect fill="#2563EB" height="0.708" width="1" x="69" y="0.292"/><rect fill="#2563EB" height="0.472" width="1" x="70" y="0.528"/><rect fill="#2563EB" height="0.431" width="1" x="71" y="0.569"/><rect fill="#2563EB" height="0.389" width="1" x="72" y="0.611"/><rect fill="#2563EB" height="0.317" width="1" x="73" y="0.683"/><rect fill="#2563EB" height="0.412" width="1" x="74" y="0.588"/><rect fill="#2563EB" height="0.339" width="1" x="75" y="0.661"/><rect fill="#2563EB" height="0.382" width="1" x="76" y="0.618"/><rect fill="#2563EB" height="0.337" width="1" x="77" y="0.663"/><rect fill="#2563EB" height="0.372" width="1" x="78" y="0.628"/><rect fill="#2563EB" height="0.38" width="1" x="79" y="0.62"/><rect fill="#2563EB" height="0.372" width="1" x="80" y="0.628"/><rect fill="#2563EB" height="0.424" width="1" x="81" y="0.576"/><rect fill="#2563EB" height="0.386" width="1" x="82" y="0.614"/><rect fill="#2563EB" height="0.322" width="1" x="83" y="0.677"/><rect fill="#2563EB" height="0.41" width="1" x="84" y="0.590"/><rect fill="#2563EB" height="0.338" width="1" x="85" y="0.661"/><rect fill="#2563EB" height="0.368" width="1" x="86" y="0.632"/><rect fill="#2563EB" height="0.362" width="1" x="87" y="0.638"/><rect fill="#2563EB" height="0.333" width="1" x="88" y="0.667"/><rect fill="#2563EB" height="0.551" width="1" x="89" y="0.448"/><rect fill="#2563EB" height="0.612" width="1" x="90" y="0.388"/><rect fill="#2563EB" height="0.037" width="1" x="91" y="0.963"/><rect fill="#2563EB" height="0.001" width="1" x="92" y="0.999"/><rect fill="#2563EB" height="0" width="1" x="93" y="1"/><rect fill="#2563EB" height="0" width="1" x="94" y="1"/><rect fill="#2563EB" height="0" width="1" x="95" y="1"/><rect fill="#2563EB" height="0" width="1" x="96" y="1"/><rect fill="#2563EB" height="0" width="1" x="97" y="1"/><rect fill="#2563EB" height="0" width="1" x="98" y="1"/><rect fill="#2563EB" height="0" width="1" x="99" y="1"/></svg>