<svg xmlns="http://www.w3.org/2000/svg" preserveAspectRatio="none" viewBox="0 0 100 1"><rect fill="#2563EB" height="0.492" width="1" x="0" y="0.508"/><rect fill="#2563EB" height="0.47" width="1" x="1" y="0.53"/><rect fill="#2563EB" height="0.491" width="1" x="2" y="0.509"/><rect fill="#2563EB" height="0.552" width="1" x="3" y="0.447"/><rect fill="#2563EB" height="0.567" width="1" x="4" y="0.433"/><rect fill="#2563EB" height="0.573" width="1" x="5" y="0.427"/><rect fill="#2563EB" height="0.571" width="1" x="6" y="0.429"/><rect fill="#2563EB" height="0.652" width="1" x="7" y="0.348"/><rect fill="#2563EB" height="0.567" width="1" x="8" y="0.433"/><rect fill="#2563EB" height="0.551" width="1" x="9" y="0.448"/><rect fill="#2563EB" height="0.556" width="1" x="10" y="0.443"/><rect fill="#2563EB" height="0.596" width="1" x="11" y="0.404"/><rect fill="#2563EB" height="0.67" width="1" x="12" y="0.329"/><rect fill="#2563EB" height="0.577" width="1" x="13" y="0.423"/><rect fill="#2563EB" height="0.555" width="1" x="14" y="0.444"/><rect fill="#2563EB" height="0.515" width="1" x="15" y="0.485"/><rect fill="#2563EB" height="0.525" width="1" x="16" y="0.475"/><rect fill="#2563EB" height="0.492" width="1" x="17" y="0.508"/><rect fill="#2563EB" height="0.543" width="1" x="18" y="0.456"/><rect fill="#2563EB" height="0.522" width="1" x="19" y="0.478"/><rect fill="#2563EB" height="0.504" width="1" x="20" y="0.496"/><rect fill="#2563EB" height="0.462" width="1" x="21" y="0.538"/><rect fill="#2563EB" height="0.624" width="1" x="22" y="0.376"/><rect fill="#2563EB" height="0.514" width="1" x="23" y="0.486"/><rect fill="#2563EB" height="0.5" width="1" x="24" y="0.5"/><rect fill="#2563EB" height="0.521" width="1" x="25" y="0.479"/><rect fill="#2563EB" height="0.497" width="1" x="26" y="0.503"/><rect fill="#2563EB" height="0.48" width="1" x="27" y="0.52"/><rect fill="#2563EB" height="0.499" width="1" x="28" y="0.501"/><rect fill="#2563EB" height="0.645" width="1" x="29" y="0.355"/><rect fill="#2563EB" height="0.559" width="1" x="30" y="0.440"/><rect fill="#2563EB" height="0.54" width="1" x="31" y="0.459"/><rect fill="#2563EB" height="0.488" width="1" x="32" y="0.512"/><rect fill="#2563EB" height="0.463" width="1" x="33" y="0.536"/><rect fill="#2563EB" height="0.498" width="1" x="34" y="0.502"/><rect fill="#2563EB" height="0.548" width="1" x="35" y="0.451"/><rect fill="#2563EB" height="0.588" width="1" x="36" y="0.412"/><rect fill="#2563EB" height="0.673" width="1" x="37" y="0.326"/><rect fill="#2563EB" height="0.614" width="1" x="38" y="0.386"/><rect fill="#2563EB" height="0.593" width="1" x="39" y="0.407"/><rect fill="#2563EB" height="0.542" width="1" x="40" y="0.457"/><rect fill="#2563EB" height="0.598" width="1" x="41" y="0.402"/><rect fill="#2563EB" height="0.622" width="1" x="42" y="0.378"/><rect fill="#2563EB" height="0.614" width="1" x="43" y="0.386"/><rect fill="#2563EB" height="0.5" width="1" x="44" y="0.5"/><rect fill="#2563EB" height="0.542" width="1" x="45" y="0.457"/><rect fill="#2563EB" height="0.549" width="1" x="46" y="0.450"/><rect fill="#2563EB" height="0.491" width="1" x="47" y="0.509"/><rect fill="#2563EB" height="0.608" width="1" x="48" y="0.392"/><rect fill="#2563EB" height="0.534" width="1" x="49" y="0.465"/><rect fill="#2563EB" height="0.548" width="1" x="50" y="0.451"/><rect fill="#2563EB" height="0.499" width="1" x="51" y="0.501"/><rect fill="#2563EB" height="0.766" width="1" x="52" y="0.233"/><rect fill="#2563EB" height="0.488" width="1" x="53" y="0.512"/><rect fill="#2563EB" height="0.516" width="1" x="54" y="0.484"/><rect fill="#2563EB" height="0.501" width="1" x="55" y="0.499"/><rect fill="#2563EB" height="0.536" width="1" x="56" y="0.463"/><rect fill="#2563EB" height="0.522" width="1" x="57" y="0.478"/><rect fill="#2563EB" height="0.535" width="1" x="58" y="0.464"/><rect fill="#2563EB" height="0.574" width="1" x="59" y="0.426"/><rect fill="#2563EB" height="0.538" width="1" x="60" y="0.461"/><rect fill="#2563EB" height="0.488" width="1" x="61" y="0.512"/><rect fill="#2563EB" height="0.485" width="1" x="62" y="0.515"/><rect fill="#2563EB" height="0.495" width="1" x="63" y="0.505"/><rect fill="#2563EB" height="0.597" width="1" x="64" y="0.403"/><rect fill="#2563EB" height="0.543" width="1" x="65" y="0.456"/><rect fill="#2563EB" height="0.561" width="1" x="66" y="0.438"/><rect fill="#2563EB" height="0.657" width="1" x="67" y="0.342"/><rect fill="#2563EB" height="0.5" width="1" x="68" y="0.5"/><rect fill="#2563EB" height="0.852" width="1" x="69" y="0.148"/><rect fill="#2563EB" height="0.501" width="1" x="70" y="0.499"/><rect fill="#2563EB" height="0.589" width="1" x="71" y="0.411"/><rect fill="#2563EB" height="0.626" width="1" x="72" y="0.374"/><rect fill="#2563EB" height="0.558" width="1" x="73" y="0.441"/><rect fill="#2563EB" height="0.504" width="1" x="74" y="0.496"/><rect fill="#2563EB" height="0.556" width="1" x="75" y="0.443"/><rect fill="#2563EB" height="0.513" width="1" x="76" y="0.487"/><rect fill="#2563EB" height="0.517" width="1" x="77" y="0.483"/><rect fill="#2563EB" height="0.894" width="1" x="78" y="0.105"/><rect fill="#2563EB" height="0.653" width="1" x="79" y="0.347"/><rect fill="#2563EB" height="0.499" width="1" x="80" y="0.501"/><rect fill="#2563EB" height="0.539" width="1" x="81" y="0.460"/><rect fill="#2563EB" height="0.523" width="1" x="82" y="0.477"/><rect fill="#2563EB" height="1" width="1" x="83" y="0"/><rect fill="#2563EB" height="0.541" width="1" x="84" y="0.458"/><rect fill="#2563EB" height="0.498" width="1" x="85" y="0.502"/><rect fill="#2563EB" height="0.502" width="1" x="86" y="0.498"/><rect fill="#2563EB" height="0.649" width="1" x="87" y="0.351"/><rect fill="#2563EB" height="0.601" width="1" x="88" y="0.399"/><rect fill="#2563EB" height="0.534" width="1" x="89" y="0.465"/><rect fill="#2563EB" height="0.558" width="1" x="90" y="0.441"/><rect fill="#2563EB" height="0.506" width="1" x="91" y="0.494"/><rect fill="#2563EB" height="0.129" width="1" x="92" y="0.871"/><rect fill="#2563EB" height="0.001" width="1" x="93" y="0.999"/><rect fill="#2563EB" height="0" width="1" x="94" y="1"/><rect fill="#2563EB" height="0" width="1" x="95" y="1"/><rect fill="#2563EB" height="0" width="1" x="96" y="1"/><rect fill="#2563EB" height="0" width="1" x="97" y="1"/><rect fill="#2563EB" height="0" width="1" x="98" y="1"/><rect fill="#2563EB" height="0" width="1" x="99" y="1"/></svg>