<svg xmlns="http://www.w3.org/2000/svg" preserveAspectRatio="none" viewBox="0 0 100 1"><rect fill="#2563EB" height="0.4922300987463978" width="1" x="0" y="0.5077699012536022"/><rect fill="#2563EB" height="0.4697540310709129" width="1" x="1" y="0.530245968929087"/><rect fill="#2563EB" height="0.491164074061097" width="1" x="2" y="0.508835925938903"/><rect fill="#2563EB" height="0.5515428699083399" width="1" x="3" y="0.4484571300916601"/><rect fill="#2563EB" height="0.5670999027489017" width="1" x="4" y="0.43290009725109835"/><rect fill="#2563EB" height="0.5725157841461509" width="1" x="5" y="0.4274842158538491"/><rect fill="#2563EB" height="0.570876689564127" width="1" x="6" y="0.42912331043587304"/><rect fill="#2563EB" height="0.6520694847711533" width="1" x="7" y="0.34793051522884666"/><rect fill="#2563EB" height="0.5674340421343219" width="1" x="8" y="0.4325659578656781"/><rect fill="#2563EB" height="0.5505288450402381" width="1" x="9" y="0.44947115495976186"/><rect fill="#2563EB" height="0.5563653443170913" width="1" x="10" y="0.4436346556829087"/><rect fill="#2563EB" height="0.5955906300456362" width="1" x="11" y="0.40440936995436383"/><rect fill="#2563EB" height="0.6702657094164426" width="1" x="12" y="0.3297342905835574"/><rect fill="#2563EB" height="0.5767347189722531" width="1" x="13" y="0.42326528102774685"/><rect fill="#2563EB" height="0.5552843200026762" width="1" x="14" y="0.44471567999732375"/><rect fill="#2563EB" height="0.5152085904620132" width="1" x="15" y="0.48479140953798683"/><rect fill="#2563EB" height="0.5249178072786974" width="1" x="16" y="0.4750821927213026"/><rect fill="#2563EB" height="0.49195294646269133" width="1" x="17" y="0.5080470535373087"/><rect fill="#2563EB" height="0.5433121109376579" width="1" x="18" y="0.45668788906234214"/><rect fill="#2563EB" height="0.5223574609327563" width="1" x="19" y="0.47764253906724374"/><rect fill="#2563EB" height="0.5038284230240062" width="1" x="20" y="0.4961715769759938"/><rect fill="#2563EB" height="0.46171609056814245" width="1" x="21" y="0.5382839094318576"/><rect fill="#2563EB" height="0.6239266640933313" width="1" x="22" y="0.3760733359066687"/><rect fill="#2563EB" height="0.5137228241870062" width="1" x="23" y="0.4862771758129938"/><rect fill="#2563EB" height="0.4999783127699427" width="1" x="24" y="0.5000216872300574"/><rect fill="#2563EB" height="0.5207874674358952" width="1" x="25" y="0.4792125325641048"/><rect fill="#2563EB" height="0.49725283595605785" width="1" x="26" y="0.5027471640439422"/><rect fill="#2563EB" height="0.48015567462368963" width="1" x="27" y="0.5198443253763103"/><rect fill="#2563EB" height="0.4994341225034577" width="1" x="28" y="0.5005658774965422"/><rect fill="#2563EB" height="0.6448374657972847" width="1" x="29" y="0.35516253420271526"/><rect fill="#2563EB" height="0.5590791875820341" width="1" x="30" y="0.4409208124179659"/><rect fill="#2563EB" height="0.540450594946929" width="1" x="31" y="0.45954940505307096"/><rect fill="#2563EB" height="0.48847320541867534" width="1" x="32" y="0.5115267945813247"/><rect fill="#2563EB" height="0.4626082078078709" width="1" x="33" y="0.5373917921921292"/><rect fill="#2563EB" height="0.4978043722863909" width="1" x="34" y="0.502195627713609"/><rect fill="#2563EB" height="0.5479078055810243" width="1" x="35" y="0.45209219441897575"/><rect fill="#2563EB" height="0.5884198997859217" width="1" x="36" y="0.4115801002140783"/><rect fill="#2563EB" height="0.6731668687659197" width="1" x="37" y="0.3268331312340803"/><rect fill="#2563EB" height="0.6136831841137955" width="1" x="38" y="0.3863168158862045"/><rect fill="#2563EB" height="0.5927462336898262" width="1" x="39" y="0.40725376631017385"/><rect fill="#2563EB" height="0.541632338941357" width="1" x="40" y="0.458367661058643"/><rect fill="#2563EB" height="0.5980096979623704" width="1" x="41" y="0.40199030203762964"/><rect fill="#2563EB" height="0.6217488423408329" width="1" x="42" y="0.37825115765916706"/><rect fill="#2563EB" height="0.6140231971859843" width="1" x="43" y="0.3859768028140157"/><rect fill="#2563EB" height="0.49960809750698326" width="1" x="44" y="0.5003919024930168"/><rect fill="#2563EB" height="0.5424915319242543" width="1" x="45" y="0.45750846807574574"/><rect fill="#2563EB" height="0.5489607995464051" width="1" x="46" y="0.4510392004535949"/><rect fill="#2563EB" height="0.4909647771650725" width="1" x="47" y="0.5090352228349275"/><rect fill="#2563EB" height="0.6077640490416697" width="1" x="48" y="0.3922359509583303"/><rect fill="#2563EB" height="0.5344763163124047" width="1" x="49" y="0.46552368368759534"/><rect fill="#2563EB" height="0.5478330747253553" width="1" x="50" y="0.45216692527464475"/><rect fill="#2563EB" height="0.49879048037206203" width="1" x="51" y="0.501209519627938"/><rect fill="#2563EB" height="0.7660163632827439" width="1" x="52" y="0.23398363671725608"/><rect fill="#2563EB" height="0.48793448514924276" width="1" x="53" y="0.5120655148507572"/><rect fill="#2563EB" height="0.5156114204414165" width="1" x="54" y="0.4843885795585835"/><rect fill="#2563EB" height="0.5006757248983568" width="1" x="55" y="0.49932427510164323"/><rect fill="#2563EB" height="0.536493132520925" width="1" x="56" y="0.463506867479075"/><rect fill="#2563EB" height="0.5221965135417455" width="1" x="57" y="0.47780348645825454"/><rect fill="#2563EB" height="0.5352623765492375" width="1" x="58" y="0.4647376234507625"/><rect fill="#2563EB" height="0.5738983528901355" width="1" x="59" y="0.42610164710986453"/><rect fill="#2563EB" height="0.5382877233123464" width="1" x="60" y="0.4617122766876536"/><rect fill="#2563EB" height="0.4877631204901249" width="1" x="61" y="0.5122368795098751"/><rect fill="#2563EB" height="0.4853148901066495" width="1" x="62" y="0.5146851098933505"/><rect fill="#2563EB" height="0.4950658091374415" width="1" x="63" y="0.5049341908625584"/><rect fill="#2563EB" height="0.5971435870988655" width="1" x="64" y="0.4028564129011345"/><rect fill="#2563EB" height="0.543449937129606" width="1" x="65" y="0.456550062870394"/><rect fill="#2563EB" height="0.561203544535793" width="1" x="66" y="0.438796455464207"/><rect fill="#2563EB" height="0.657309858850871" width="1" x="67" y="0.342690141149129"/><rect fill="#2563EB" height="0.49966607958755016" width="1" x="68" y="0.5003339204124498"/><rect fill="#2563EB" height="0.8524895585050865" width="1" x="69" y="0.14751044149491355"/><rect fill="#2563EB" height="0.5014942233456834" width="1" x="70" y="0.4985057766543166"/><rect fill="#2563EB" height="0.5886199041272614" width="1" x="71" y="0.4113800958727386"/><rect fill="#2563EB" height="0.6260958225931377" width="1" x="72" y="0.3739041774068623"/><rect fill="#2563EB" height="0.5577354420593066" width="1" x="73" y="0.4422645579406934"/><rect fill="#2563EB" height="0.50443274842219" width="1" x="74" y="0.49556725157781"/><rect fill="#2563EB" height="0.5564611776065181" width="1" x="75" y="0.44353882239348186"/><rect fill="#2563EB" height="0.5127786639750918" width="1" x="76" y="0.48722133602490825"/><rect fill="#2563EB" height="0.5167981806537848" width="1" x="77" y="0.4832018193462152"/><rect fill="#2563EB" height="0.894334517170032" width="1" x="78" y="0.10566548282996802"/><rect fill="#2563EB" height="0.653383195617477" width="1" x="79" y="0.34661680438252296"/><rect fill="#2563EB" height="0.4987034534425353" width="1" x="80" y="0.5012965465574647"/><rect fill="#2563EB" height="0.5389344864404028" width="1" x="81" y="0.46106551355959724"/><rect fill="#2563EB" height="0.5226469120853726" width="1" x="82" y="0.4773530879146274"/><rect fill="#2563EB" height="1" width="1" x="83" y="0"/><rect fill="#2563EB" height="0.5412800211168839" width="1" x="84" y="0.4587199788831161"/><rect fill="#2563EB" height="0.4980032988699533" width="1" x="85" y="0.5019967011300467"/><rect fill="#2563EB" height="0.501579241943298" width="1" x="86" y="0.49842075805670205"/><rect fill="#2563EB" height="0.6488683440860201" width="1" x="87" y="0.3511316559139799"/><rect fill="#2563EB" height="0.6014893642752677" width="1" x="88" y="0.39851063572473233"/><rect fill="#2563EB" height="0.5340487039519524" width="1" x="89" y="0.46595129604804764"/><rect fill="#2563EB" height="0.5575213800941807" width="1" x="90" y="0.44247861990581927"/><rect fill="#2563EB" height="0.5058663003027426" width="1" x="91" y="0.4941336996972574"/><rect fill="#2563EB" height="0.12942043913917142" width="1" x="92" y="0.8705795608608285"/><rect fill="#2563EB" height="0.0011100847436968792" width="1" x="93" y="0.9988899152563031"/><rect fill="#2563EB" height="0.00010753089925533718" width="1" x="94" y="0.9998924691007447"/><rect fill="#2563EB" height="0.0000020880082881913098" width="1" x="95" y="0.9999979119917118"/><rect fill="#2563EB" height="0" width="1" x="96" y="1"/><rect fill="#2563EB" height="0" width="1" x="97" y="1"/><rect fill="#2563EB" height="0" width="1" x="98" y="1"/><rect fill="#2563EB" height="0" width="1" x="99" y="1"/></svg>