<svg xmlns="http://www.w3.org/2000/svg" preserveAspectRatio="none" viewBox="0 0 100 1"><rect fill="#2563EB" height="0.05543801494208763" width="1" x="0" y="0.9445619850579123"/><rect fill="#2563EB" height="0.15376771144866083" width="1" x="1" y="0.8462322885513391"/><rect fill="#2563EB" height="0.18274328558221123" width="1" x="2" y="0.8172567144177888"/><rect fill="#2563EB" height="0.1680286083554151" width="1" x="3" y="0.8319713916445849"/><rect fill="#2563EB" height="0.20247377679670908" width="1" x="4" y="0.7975262232032909"/><rect fill="#2563EB" height="0.2109746636211547" width="1" x="5" y="0.7890253363788453"/><rect fill="#2563EB" height="0.270788914247972" width="1" x="6" y="0.729211085752028"/><rect fill="#2563EB" height="0.2876330843975315" width="1" x="7" y="0.7123669156024686"/><rect fill="#2563EB" height="0.32758018287132906" width="1" x="8" y="0.6724198171286709"/><rect fill="#2563EB" height="0.42356774817410897" width="1" x="9" y="0.5764322518258911"/><rect fill="#2563EB" height="0.7384698783664777" width="1" x="10" y="0.2615301216335223"/><rect fill="#2563EB" height="0.6320994461910625" width="1" x="11" y="0.3679005538089375"/><rect fill="#2563EB" height="0.6360145936872615" width="1" x="12" y="0.36398540631273846"/><rect fill="#2563EB" height="0.7394423530517127" width="1" x="13" y="0.2605576469482873"/><rect fill="#2563EB" height="0.6511743976926306" width="1" x="14" y="0.34882560230736936"/><rect fill="#2563EB" height="0.6091147664571848" width="1" x="15" y="0.39088523354281524"/><rect fill="#2563EB" height="0.5845740039691949" width="1" x="16" y="0.4154259960308051"/><rect fill="#2563EB" height="0.614141468087715" width="1" x="17" y="0.38585853191228503"/><rect fill="#2563EB" height="0.7638456118755353" width="1" x="18" y="0.23615438812446465"/><rect fill="#2563EB" height="0.65973019796707" width="1" x="19" y="0.34026980203293"/><rect fill="#2563EB" height="0.6411692350081735" width="1" x="20" y="0.35883076499182653"/><rect fill="#2563EB" height="0.6218167829285547" width="1" x="21" y="0.3781832170714453"/><rect fill="#2563EB" height="0.7054836255953093" width="1" x="22" y="0.2945163744046907"/><rect fill="#2563EB" height="0.7139712570008452" width="1" x="23" y="0.2860287429991548"/><rect fill="#2563EB" height="0.6388048285807547" width="1" x="24" y="0.3611951714192453"/><rect fill="#2563EB" height="0.7231073859295875" width="1" x="25" y="0.27689261407041255"/><rect fill="#2563EB" height="0.628940249462923" width="1" x="26" y="0.37105975053707696"/><rect fill="#2563EB" height="0.8345756250600034" width="1" x="27" y="0.16542437493999662"/><rect fill="#2563EB" height="0.8713741141246252" width="1" x="28" y="0.12862588587537482"/><rect fill="#2563EB" height="0.5910553672242831" width="1" x="29" y="0.4089446327757169"/><rect fill="#2563EB" height="0.643207698387751" width="1" x="30" y="0.35679230161224895"/><rect fill="#2563EB" height="0.6400918955165122" width="1" x="31" y="0.35990810448348776"/><rect fill="#2563EB" height="0.6291144490482989" width="1" x="32" y="0.37088555095170106"/><rect fill="#2563EB" height="0.7241472359898309" width="1" x="33" y="0.2758527640101691"/><rect fill="#2563EB" height="0.7547578127626234" width="1" x="34" y="0.24524218723737656"/><rect fill="#2563EB" height="0.8715292564392029" width="1" x="35" y="0.12847074356079713"/><rect fill="#2563EB" height="0.8616600153590382" width="1" x="36" y="0.13833998464096176"/><rect fill="#2563EB" height="0.7194860135849023" width="1" x="37" y="0.2805139864150977"/><rect fill="#2563EB" height="0.6851669323790873" width="1" x="38" y="0.3148330676209127"/><rect fill="#2563EB" height="0.6613819687778588" width="1" x="39" y="0.3386180312221412"/><rect fill="#2563EB" height="0.6799148992780927" width="1" x="40" y="0.3200851007219073"/><rect fill="#2563EB" height="0.6606170928285537" width="1" x="41" y="0.33938290717144626"/><rect fill="#2563EB" height="0.6056339253869" width="1" x="42" y="0.3943660746131"/><rect fill="#2563EB" height="0.7691828245420758" width="1" x="43" y="0.23081717545792424"/><rect fill="#2563EB" height="0.8494006442021348" width="1" x="44" y="0.1505993557978652"/><rect fill="#2563EB" height="0.8399876101401186" width="1" x="45" y="0.16001238985988142"/><rect fill="#2563EB" height="0.7698983049851963" width="1" x="46" y="0.2301016950148037"/><rect fill="#2563EB" height="0.8272354475044629" width="1" x="47" y="0.17276455249553713"/><rect fill="#2563EB" height="0.8435067584054636" width="1" x="48" y="0.15649324159453637"/><rect fill="#2563EB" height="0.8588553863096766" width="1" x="49" y="0.14114461369032338"/><rect fill="#2563EB" height="0.8363624016830686" width="1" x="50" y="0.16363759831693137"/><rect fill="#2563EB" height="0.8656844202423715" width="1" x="51" y="0.13431557975762853"/><rect fill="#2563EB" height="0.8209159778908859" width="1" x="52" y="0.17908402210911412"/><rect fill="#2563EB" height="0.8905393893279632" width="1" x="53" y="0.10946061067203683"/><rect fill="#2563EB" height="0.8417678155173741" width="1" x="54" y="0.15823218448262588"/><rect fill="#2563EB" height="0.8551862196746649" width="1" x="55" y="0.1448137803253351"/><rect fill="#2563EB" height="0.9073986856784441" width="1" x="56" y="0.09260131432155594"/><rect fill="#2563EB" height="0.85051978337288" width="1" x="57" y="0.14948021662711997"/><rect fill="#2563EB" height="0.89289242002194" width="1" x="58" y="0.10710757997805997"/><rect fill="#2563EB" height="0.8127790744105884" width="1" x="59" y="0.1872209255894116"/><rect fill="#2563EB" height="0.9180125963777334" width="1" x="60" y="0.08198740362226664"/><rect fill="#2563EB" height="0.839539769669944" width="1" x="61" y="0.16046023033005596"/><rect fill="#2563EB" height="0.8163493831654235" width="1" x="62" y="0.1836506168345765"/><rect fill="#2563EB" height="0.8535882372871062" width="1" x="63" y="0.1464117627128938"/><rect fill="#2563EB" height="0.9355234224062976" width="1" x="64" y="0.0644765775937024"/><rect fill="#2563EB" height="0.9228596128495407" width="1" x="65" y="0.07714038715045934"/><rect fill="#2563EB" height="0.8430706434564851" width="1" x="66" y="0.15692935654351492"/><rect fill="#2563EB" height="0.7309893498613032" width="1" x="67" y="0.26901065013869685"/><rect fill="#2563EB" height="0.8189968412294628" width="1" x="68" y="0.1810031587705372"/><rect fill="#2563EB" height="0.8296614672593072" width="1" x="69" y="0.17033853274069277"/><rect fill="#2563EB" height="0.820263843301076" width="1" x="70" y="0.17973615669892395"/><rect fill="#2563EB" height="0.896722759039282" width="1" x="71" y="0.103277240960718"/><rect fill="#2563EB" height="0.9621931822990007" width="1" x="72" y="0.03780681770099925"/><rect fill="#2563EB" height="0.9605957305024357" width="1" x="73" y="0.03940426949756426"/><rect fill="#2563EB" height="0.8841678133953914" width="1" x="74" y="0.11583218660460859"/><rect fill="#2563EB" height="0.8421035078545074" width="1" x="75" y="0.15789649214549262"/><rect fill="#2563EB" height="0.7083647103224011" width="1" x="76" y="0.2916352896775989"/><rect fill="#2563EB" height="0.8191914036528176" width="1" x="77" y="0.18080859634718238"/><rect fill="#2563EB" height="0.8383832436842543" width="1" x="78" y="0.16161675631574568"/><rect fill="#2563EB" height="0.8066758783424733" width="1" x="79" y="0.19332412165752666"/><rect fill="#2563EB" height="0.7840311941692624" width="1" x="80" y="0.21596880583073763"/><rect fill="#2563EB" height="0.9551823455103339" width="1" x="81" y="0.044817654489666126"/><rect fill="#2563EB" height="1" width="1" x="82" y="0"/><rect fill="#2563EB" height="0.9266380150772546" width="1" x="83" y="0.07336198492274537"/><rect fill="#2563EB" height="0.8896404684673336" width="1" x="84" y="0.11035953153266642"/><rect fill="#2563EB" height="0.8755303767710618" width="1" x="85" y="0.12446962322893818"/><rect fill="#2563EB" height="0.9234636752817493" width="1" x="86" y="0.07653632471825067"/><rect fill="#2563EB" height="0.8498617392815925" width="1" x="87" y="0.15013826071840752"/><rect fill="#2563EB" height="0.902373488605807" width="1" x="88" y="0.09762651139419298"/><rect fill="#2563EB" height="0.8493066111680588" width="1" x="89" y="0.15069338883194117"/><rect fill="#2563EB" height="0.9034991343578628" width="1" x="90" y="0.09650086564213722"/><rect fill="#2563EB" height="0.9503884671750974" width="1" x="91" y="0.049611532824902604"/><rect fill="#2563EB" height="0.5946497683192828" width="1" x="92" y="0.40535023168071715"/><rect fill="#2563EB" height="0.11338134198057136" width="1" x="93" y="0.8866186580194286"/><rect fill="#2563EB" height="0.04010458043045481" width="1" x="94" y="0.9598954195695452"/><rect fill="#2563EB" height="0.016864224190215334" width="1" x="95" y="0.9831357758097846"/><rect fill="#2563EB" height="0.007488529955652423" width="1" x="96" y="0.9925114700443476"/><rect fill="#2563EB" height="0.0032035243240483586" width="1" x="97" y="0.9967964756759516"/><rect fill="#2563EB" height="0.0011800123110505868" width="1" x="98" y="0.9988199876889494"/><rect fill="#2563EB" height="0.00027976898818693946" width="1" x="99" y="0.9997202310118131"/></svg>