<svg xmlns="http://www.w3.org/2000/svg" preserveAspectRatio="none" viewBox="0 0 100 1"><rect fill="#2563EB" height="0.055" width="1" x="0" y="0.945"/><rect fill="#2563EB" height="0.154" width="1" x="1" y="0.846"/><rect fill="#2563EB" height="0.183" width="1" x="2" y="0.817"/><rect fill="#2563EB" height="0.168" width="1" x="3" y="0.832"/><rect fill="#2563EB" height="0.202" width="1" x="4" y="0.798"/><rect fill="#2563EB" height="0.211" width="1" x="5" y="0.789"/><rect fill="#2563EB" height="0.271" width="1" x="6" y="0.729"/><rect fill="#2563EB" height="0.288" width="1" x="7" y="0.712"/><rect fill="#2563EB" height="0.328" width="1" x="8" y="0.671"/><rect fill="#2563EB" height="0.424" width="1" x="9" y="0.576"/><rect fill="#2563EB" height="0.738" width="1" x="10" y="0.262"/><rect fill="#2563EB" height="0.632" width="1" x="11" y="0.368"/><rect fill="#2563EB" height="0.636" width="1" x="12" y="0.364"/><rect fill="#2563EB" height="0.739" width="1" x="13" y="0.261"/><rect fill="#2563EB" height="0.651" width="1" x="14" y="0.349"/><rect fill="#2563EB" height="0.609" width="1" x="15" y="0.391"/><rect fill="#2563EB" height="0.585" width="1" x="16" y="0.415"/><rect fill="#2563EB" height="0.614" width="1" x="17" y="0.386"/><rect fill="#2563EB" height="0.764" width="1" x="18" y="0.236"/><rect fill="#2563EB" height="0.66" width="1" x="19" y="0.339"/><rect fill="#2563EB" height="0.641" width="1" x="20" y="0.359"/><rect fill="#2563EB" height="0.622" width="1" x="21" y="0.378"/><rect fill="#2563EB" height="0.705" width="1" x="22" y="0.295"/><rect fill="#2563EB" height="0.714" width="1" x="23" y="0.286"/><rect fill="#2563EB" height="0.639" width="1" x="24" y="0.361"/><rect fill="#2563EB" height="0.723" width="1" x="25" y="0.277"/><rect fill="#2563EB" height="0.629" width="1" x="26" y="0.371"/><rect fill="#2563EB" height="0.835" width="1" x="27" y="0.165"/><rect fill="#2563EB" height="0.871" width="1" x="28" y="0.129"/><rect fill="#2563EB" height="0.591" width="1" x="29" y="0.409"/><rect fill="#2563EB" height="0.643" width="1" x="30" y="0.357"/><rect fill="#2563EB" height="0.64" width="1" x="31" y="0.36"/><rect fill="#2563EB" height="0.629" width="1" x="32" y="0.371"/><rect fill="#2563EB" height="0.724" width="1" x="33" y="0.276"/><rect fill="#2563EB" height="0.755" width="1" x="34" y="0.245"/><rect fill="#2563EB" height="0.872" width="1" x="35" y="0.128"/><rect fill="#2563EB" height="0.862" width="1" x="36" y="0.138"/><rect fill="#2563EB" height="0.719" width="1" x="37" y="0.281"/><rect fill="#2563EB" height="0.685" width="1" x="38" y="0.314"/><rect fill="#2563EB" height="0.661" width="1" x="39" y="0.338"/><rect fill="#2563EB" height="0.68" width="1" x="40" y="0.319"/><rect fill="#2563EB" height="0.661" width="1" x="41" y="0.338"/><rect fill="#2563EB" height="0.606" width="1" x="42" y="0.394"/><rect fill="#2563EB" height="0.769" width="1" x="43" y="0.230"/><rect fill="#2563EB" height="0.849" width="1" x="44" y="0.151"/><rect fill="#2563EB" height="0.84" width="1" x="45" y="0.160"/><rect fill="#2563EB" height="0.77" width="1" x="46" y="0.229"/><rect fill="#2563EB" height="0.827" width="1" x="47" y="0.173"/><rect fill="#2563EB" height="0.844" width="1" x="48" y="0.156"/><rect fill="#2563EB" height="0.859" width="1" x="49" y="0.141"/><rect fill="#2563EB" height="0.836" width="1" x="50" y="0.164"/><rect fill="#2563EB" height="0.866" width="1" x="51" y="0.134"/><rect fill="#2563EB" height="0.821" width="1" x="52" y="0.179"/><rect fill="#2563EB" height="0.891" width="1" x="53" y="0.108"/><rect fill="#2563EB" height="0.842" width="1" x="54" y="0.158"/><rect fill="#2563EB" height="0.855" width="1" x="55" y="0.145"/><rect fill="#2563EB" height="0.907" width="1" x="56" y="0.092"/><rect fill="#2563EB" height="0.851" width="1" x="57" y="0.149"/><rect fill="#2563EB" height="0.893" width="1" x="58" y="0.106"/><rect fill="#2563EB" height="0.813" width="1" x="59" y="0.187"/><rect fill="#2563EB" height="0.918" width="1" x="60" y="0.081"/><rect fill="#2563EB" height="0.84" width="1" x="61" y="0.160"/><rect fill="#2563EB" height="0.816" width="1" x="62" y="0.184"/><rect fill="#2563EB" height="0.854" width="1" x="63" y="0.146"/><rect fill="#2563EB" height="0.936" width="1" x="64" y="0.063"/><rect fill="#2563EB" height="0.923" width="1" x="65" y="0.076"/><rect fill="#2563EB" height="0.843" width="1" x="66" y="0.157"/><rect fill="#2563EB" height="0.731" width="1" x="67" y="0.269"/><rect fill="#2563EB" height="0.819" width="1" x="68" y="0.181"/><rect fill="#2563EB" height="0.83" width="1" x="69" y="0.170"/><rect fill="#2563EB" height="0.82" width="1" x="70" y="0.180"/><rect fill="#2563EB" height="0.897" width="1" x="71" y="0.102"/><rect fill="#2563EB" height="0.962" width="1" x="72" y="0.038"/><rect fill="#2563EB" height="0.961" width="1" x="73" y="0.039"/><rect fill="#2563EB" height="0.884" width="1" x="74" y="0.115"/><rect fill="#2563EB" height="0.842" width="1" x="75" y="0.158"/><rect fill="#2563EB" height="0.708" width="1" x="76" y="0.292"/><rect fill="#2563EB" height="0.819" width="1" x="77" y="0.181"/><rect fill="#2563EB" height="0.838" width="1" x="78" y="0.162"/><rect fill="#2563EB" height="0.807" width="1" x="79" y="0.192"/><rect fill="#2563EB" height="0.784" width="1" x="80" y="0.215"/><rect fill="#2563EB" height="0.955" width="1" x="81" y="0.045"/><rect fill="#2563EB" height="1" width="1" x="82" y="0"/><rect fill="#2563EB" height="0.927" width="1" x="83" y="0.072"/><rect fill="#2563EB" height="0.89" width="1" x="84" y="0.109"/><rect fill="#2563EB" height="0.876" width="1" x="85" y="0.124"/><rect fill="#2563EB" height="0.923" width="1" x="86" y="0.076"/><rect fill="#2563EB" height="0.85" width="1" x="87" y="0.150"/><rect fill="#2563EB" height="0.902" width="1" x="88" y="0.097"/><rect fill="#2563EB" height="0.849" width="1" x="89" y="0.151"/><rect fill="#2563EB" height="0.903" width="1" x="90" y="0.096"/><rect fill="#2563EB" height="0.95" width="1" x="91" y="0.050"/><rect fill="#2563EB" height="0.595" width="1" x="92" y="0.405"/><rect fill="#2563EB" height="0.113" width="1" x="93" y="0.887"/><rect fill="#2563EB" height="0.04" width="1" x="94" y="0.96"/><rect fill="#2563EB" height="0.017" width="1" x="95" y="0.983"/><rect fill="#2563EB" height="0.007" width="1" x="96" y="0.993"/><rect fill="#2563EB" height="0.003" width="1" x="97" y="0.997"/><rect fill="#2563EB" height="0.001" width="1" x="98" y="0.999"/><rect fill="#2563EB" height="0" width="1" x="99" y="1"/></svg>