<svg xmlns="http://www.w3.org/2000/svg" preserveAspectRatio="none" viewBox="0 0 100 1"><rect fill="#2563EB" height="0.8950313574642377" width="1" x="0" y="0.10496864253576232"/><rect fill="#2563EB" height="0.527152747084271" width="1" x="1" y="0.47284725291572904"/><rect fill="#2563EB" height="0.554200306592444" width="1" x="2" y="0.445799693407556"/><rect fill="#2563EB" height="0.429517305126569" width="1" x="3" y="0.570482694873431"/><rect fill="#2563EB" height="0.4149741929694236" width="1" x="4" y="0.5850258070305764"/><rect fill="#2563EB" height="0.47292317298174036" width="1" x="5" y="0.5270768270182596"/><rect fill="#2563EB" height="0.9504165186035288" width="1" x="6" y="0.049583481396471174"/><rect fill="#2563EB" height="0.8867632710502821" width="1" x="7" y="0.11323672894971792"/><rect fill="#2563EB" height="0.6490735673276167" width="1" x="8" y="0.3509264326723833"/><rect fill="#2563EB" height="0.5404302229435651" width="1" x="9" y="0.45956977705643487"/><rect fill="#2563EB" height="0.41048213352072005" width="1" x="10" y="0.58951786647928"/><rect fill="#2563EB" height="0.3506911498655645" width="1" x="11" y="0.6493088501344355"/><rect fill="#2563EB" height="0.7869300906848207" width="1" x="12" y="0.21306990931517933"/><rect fill="#2563EB" height="0.8175783167059463" width="1" x="13" y="0.18242168329405373"/><rect fill="#2563EB" height="0.7109638985242136" width="1" x="14" y="0.2890361014757864"/><rect fill="#2563EB" height="0.7518299126791638" width="1" x="15" y="0.24817008732083623"/><rect fill="#2563EB" height="0.5505651469195766" width="1" x="16" y="0.4494348530804234"/><rect fill="#2563EB" height="0.5652251854650574" width="1" x="17" y="0.4347748145349426"/><rect fill="#2563EB" height="0.5880244771851474" width="1" x="18" y="0.4119755228148526"/><rect fill="#2563EB" height="0.6731566228604224" width="1" x="19" y="0.32684337713957756"/><rect fill="#2563EB" height="0.3951782077827043" width="1" x="20" y="0.6048217922172957"/><rect fill="#2563EB" height="0.4169823301349328" width="1" x="21" y="0.5830176698650672"/><rect fill="#2563EB" height="0.29273798234316134" width="1" x="22" y="0.7072620176568387"/><rect fill="#2563EB" height="0.3794322728051669" width="1" x="23" y="0.6205677271948331"/><rect fill="#2563EB" height="0.4846740870579476" width="1" x="24" y="0.5153259129420524"/><rect fill="#2563EB" height="0.9714450046874504" width="1" x="25" y="0.02855499531254957"/><rect fill="#2563EB" height="0.9356901379423115" width="1" x="26" y="0.06430986205768852"/><rect fill="#2563EB" height="0.6747512346012728" width="1" x="27" y="0.32524876539872716"/><rect fill="#2563EB" height="0.7227434963729915" width="1" x="28" y="0.2772565036270085"/><rect fill="#2563EB" height="0.8018882804627024" width="1" x="29" y="0.19811171953729756"/><rect fill="#2563EB" height="1" width="1" x="30" y="0"/><rect fill="#2563EB" height="0.7686542840962479" width="1" x="31" y="0.23134571590375208"/><rect fill="#2563EB" height="0.6702276679566933" width="1" x="32" y="0.3297723320433067"/><rect fill="#2563EB" height="0.44131728815343846" width="1" x="33" y="0.5586827118465616"/><rect fill="#2563EB" height="0.2930568340231575" width="1" x="34" y="0.7069431659768425"/><rect fill="#2563EB" height="0.373368900123153" width="1" x="35" y="0.626631099876847"/><rect fill="#2563EB" height="0.4998310731024171" width="1" x="36" y="0.5001689268975829"/><rect fill="#2563EB" height="0.8260874630725693" width="1" x="37" y="0.1739125369274307"/><rect fill="#2563EB" height="0.5098997214018806" width="1" x="38" y="0.49010027859811944"/><rect fill="#2563EB" height="0.49959771231668765" width="1" x="39" y="0.5004022876833123"/><rect fill="#2563EB" height="0.9361309368445588" width="1" x="40" y="0.06386906315544116"/><rect fill="#2563EB" height="0.6272018072539308" width="1" x="41" y="0.3727981927460692"/><rect fill="#2563EB" height="0.5951205377578747" width="1" x="42" y="0.40487946224212534"/><rect fill="#2563EB" height="0.8073826876891487" width="1" x="43" y="0.19261731231085133"/><rect fill="#2563EB" height="0.7007347685861237" width="1" x="44" y="0.2992652314138763"/><rect fill="#2563EB" height="0.6006185663551424" width="1" x="45" y="0.39938143364485756"/><rect fill="#2563EB" height="0.8557607450642785" width="1" x="46" y="0.14423925493572154"/><rect fill="#2563EB" height="0.5014630565947336" width="1" x="47" y="0.49853694340526644"/><rect fill="#2563EB" height="0.7460714482811608" width="1" x="48" y="0.2539285517188392"/><rect fill="#2563EB" height="0.4948839228450401" width="1" x="49" y="0.5051160771549599"/><rect fill="#2563EB" height="0.9998455535292261" width="1" x="50" y="0.00015444647077389462"/><rect fill="#2563EB" height="0.603680469889191" width="1" x="51" y="0.396319530110809"/><rect fill="#2563EB" height="0.7684728378764386" width="1" x="52" y="0.2315271621235614"/><rect fill="#2563EB" height="0.47468161361466266" width="1" x="53" y="0.5253183863853373"/><rect fill="#2563EB" height="0.4441238691066343" width="1" x="54" y="0.5558761308933657"/><rect fill="#2563EB" height="0.39230233618596777" width="1" x="55" y="0.6076976638140322"/><rect fill="#2563EB" height="0.818557312425495" width="1" x="56" y="0.181442687574505"/><rect fill="#2563EB" height="0.9374365875617903" width="1" x="57" y="0.06256341243820973"/><rect fill="#2563EB" height="0.729064942622973" width="1" x="58" y="0.27093505737702706"/><rect fill="#2563EB" height="0.8811205852150846" width="1" x="59" y="0.11887941478491537"/><rect fill="#2563EB" height="0.571615823990648" width="1" x="60" y="0.42838417600935197"/><rect fill="#2563EB" height="0.5235208011292277" width="1" x="61" y="0.4764791988707723"/><rect fill="#2563EB" height="0.7005089193584061" width="1" x="62" y="0.2994910806415939"/><rect fill="#2563EB" height="0.5838809189842079" width="1" x="63" y="0.4161190810157921"/><rect fill="#2563EB" height="0.765349098709515" width="1" x="64" y="0.23465090129048505"/><rect fill="#2563EB" height="0.556569649755015" width="1" x="65" y="0.443430350244985"/><rect fill="#2563EB" height="0.666345338352668" width="1" x="66" y="0.33365466164733204"/><rect fill="#2563EB" height="0.5361938011813783" width="1" x="67" y="0.46380619881862173"/><rect fill="#2563EB" height="0.6609546776892432" width="1" x="68" y="0.3390453223107568"/><rect fill="#2563EB" height="0.788646533405652" width="1" x="69" y="0.21135346659434795"/><rect fill="#2563EB" height="0.6312404290032306" width="1" x="70" y="0.36875957099676937"/><rect fill="#2563EB" height="0.9272390205837253" width="1" x="71" y="0.07276097941627468"/><rect fill="#2563EB" height="0.3366907697256846" width="1" x="72" y="0.6633092302743153"/><rect fill="#2563EB" height="0.4546149652652452" width="1" x="73" y="0.5453850347347549"/><rect fill="#2563EB" height="0.43608065102582766" width="1" x="74" y="0.5639193489741723"/><rect fill="#2563EB" height="0.9015250383896201" width="1" x="75" y="0.09847496161037994"/><rect fill="#2563EB" height="0.5897712694561156" width="1" x="76" y="0.4102287305438844"/><rect fill="#2563EB" height="0.7746799047578183" width="1" x="77" y="0.22532009524218166"/><rect fill="#2563EB" height="0.4615711050156808" width="1" x="78" y="0.5384288949843192"/><rect fill="#2563EB" height="0.4540914342582927" width="1" x="79" y="0.5459085657417073"/><rect fill="#2563EB" height="0.38657349770800564" width="1" x="80" y="0.6134265022919944"/><rect fill="#2563EB" height="0.8662780652927163" width="1" x="81" y="0.13372193470728366"/><rect fill="#2563EB" height="0.9277747038912898" width="1" x="82" y="0.0722252961087102"/><rect fill="#2563EB" height="0.7463475610689108" width="1" x="83" y="0.25365243893108924"/><rect fill="#2563EB" height="0.8777332556005324" width="1" x="84" y="0.12226674439946761"/><rect fill="#2563EB" height="0.5756562153340707" width="1" x="85" y="0.42434378466592926"/><rect fill="#2563EB" height="0.5510698032684201" width="1" x="86" y="0.44893019673157986"/><rect fill="#2563EB" height="0.8087256545895352" width="1" x="87" y="0.19127434541046484"/><rect fill="#2563EB" height="0.5805644747252343" width="1" x="88" y="0.4194355252747657"/><rect fill="#2563EB" height="0.7174104332687992" width="1" x="89" y="0.28258956673120084"/><rect fill="#2563EB" height="0.5774945100058038" width="1" x="90" y="0.42250548999419624"/><rect fill="#2563EB" height="0.6636390781495366" width="1" x="91" y="0.3363609218504634"/><rect fill="#2563EB" height="0.5021341591213605" width="1" x="92" y="0.4978658408786395"/><rect fill="#2563EB" height="0.4249178462633562" width="1" x="93" y="0.5750821537366437"/><rect fill="#2563EB" height="0.5657483513887037" width="1" x="94" y="0.4342516486112963"/><rect fill="#2563EB" height="0.5808925511938926" width="1" x="95" y="0.4191074488061074"/><rect fill="#2563EB" height="0.9050533235051278" width="1" x="96" y="0.0949466764948722"/><rect fill="#2563EB" height="0.29820229488926553" width="1" x="97" y="0.7017977051107345"/><rect fill="#2563EB" height="0.19961291633688322" width="1" x="98" y="0.8003870836631168"/><rect fill="#2563EB" height="0.01880963367747121" width="1" x="99" y="0.9811903663225288"/></svg>