<svg xmlns="http://www.w3.org/2000/svg" preserveAspectRatio="none" viewBox="0 0 100 1"><rect fill="#2563EB" height="0.895" width="1" x="0" y="0.104"/><rect fill="#2563EB" height="0.527" width="1" x="1" y="0.473"/><rect fill="#2563EB" height="0.554" width="1" x="2" y="0.445"/><rect fill="#2563EB" height="0.43" width="1" x="3" y="0.570"/><rect fill="#2563EB" height="0.415" width="1" x="4" y="0.585"/><rect fill="#2563EB" height="0.473" width="1" x="5" y="0.527"/><rect fill="#2563EB" height="0.95" width="1" x="6" y="0.050"/><rect fill="#2563EB" height="0.887" width="1" x="7" y="0.112"/><rect fill="#2563EB" height="0.649" width="1" x="8" y="0.351"/><rect fill="#2563EB" height="0.54" width="1" x="9" y="0.459"/><rect fill="#2563EB" height="0.41" width="1" x="10" y="0.590"/><rect fill="#2563EB" height="0.351" width="1" x="11" y="0.649"/><rect fill="#2563EB" height="0.787" width="1" x="12" y="0.212"/><rect fill="#2563EB" height="0.818" width="1" x="13" y="0.182"/><rect fill="#2563EB" height="0.711" width="1" x="14" y="0.289"/><rect fill="#2563EB" height="0.752" width="1" x="15" y="0.248"/><rect fill="#2563EB" height="0.551" width="1" x="16" y="0.448"/><rect fill="#2563EB" height="0.565" width="1" x="17" y="0.435"/><rect fill="#2563EB" height="0.588" width="1" x="18" y="0.412"/><rect fill="#2563EB" height="0.673" width="1" x="19" y="0.326"/><rect fill="#2563EB" height="0.395" width="1" x="20" y="0.605"/><rect fill="#2563EB" height="0.417" width="1" x="21" y="0.583"/><rect fill="#2563EB" height="0.293" width="1" x="22" y="0.707"/><rect fill="#2563EB" height="0.379" width="1" x="23" y="0.621"/><rect fill="#2563EB" height="0.485" width="1" x="24" y="0.515"/><rect fill="#2563EB" height="0.971" width="1" x="25" y="0.029"/><rect fill="#2563EB" height="0.936" width="1" x="26" y="0.063"/><rect fill="#2563EB" height="0.675" width="1" x="27" y="0.324"/><rect fill="#2563EB" height="0.723" width="1" x="28" y="0.277"/><rect fill="#2563EB" height="0.802" width="1" x="29" y="0.197"/><rect fill="#2563EB" height="1" width="1" x="30" y="0"/><rect fill="#2563EB" height="0.769" width="1" x="31" y="0.230"/><rect fill="#2563EB" height="0.67" width="1" x="32" y="0.329"/><rect fill="#2563EB" height="0.441" width="1" x="33" y="0.558"/><rect fill="#2563EB" height="0.293" width="1" x="34" y="0.707"/><rect fill="#2563EB" height="0.373" width="1" x="35" y="0.627"/><rect fill="#2563EB" height="0.5" width="1" x="36" y="0.5"/><rect fill="#2563EB" height="0.826" width="1" x="37" y="0.174"/><rect fill="#2563EB" height="0.51" width="1" x="38" y="0.49"/><rect fill="#2563EB" height="0.5" width="1" x="39" y="0.5"/><rect fill="#2563EB" height="0.936" width="1" x="40" y="0.063"/><rect fill="#2563EB" height="0.627" width="1" x="41" y="0.373"/><rect fill="#2563EB" height="0.595" width="1" x="42" y="0.405"/><rect fill="#2563EB" height="0.807" width="1" x="43" y="0.192"/><rect fill="#2563EB" height="0.701" width="1" x="44" y="0.299"/><rect fill="#2563EB" height="0.601" width="1" x="45" y="0.399"/><rect fill="#2563EB" height="0.856" width="1" x="46" y="0.144"/><rect fill="#2563EB" height="0.501" width="1" x="47" y="0.499"/><rect fill="#2563EB" height="0.746" width="1" x="48" y="0.254"/><rect fill="#2563EB" height="0.495" width="1" x="49" y="0.505"/><rect fill="#2563EB" height="1" width="1" x="50" y="0"/><rect fill="#2563EB" height="0.604" width="1" x="51" y="0.396"/><rect fill="#2563EB" height="0.768" width="1" x="52" y="0.231"/><rect fill="#2563EB" height="0.475" width="1" x="53" y="0.525"/><rect fill="#2563EB" height="0.444" width="1" x="54" y="0.556"/><rect fill="#2563EB" height="0.392" width="1" x="55" y="0.608"/><rect fill="#2563EB" height="0.819" width="1" x="56" y="0.181"/><rect fill="#2563EB" height="0.937" width="1" x="57" y="0.062"/><rect fill="#2563EB" height="0.729" width="1" x="58" y="0.271"/><rect fill="#2563EB" height="0.881" width="1" x="59" y="0.119"/><rect fill="#2563EB" height="0.572" width="1" x="60" y="0.428"/><rect fill="#2563EB" height="0.524" width="1" x="61" y="0.476"/><rect fill="#2563EB" height="0.701" width="1" x="62" y="0.299"/><rect fill="#2563EB" height="0.584" width="1" x="63" y="0.416"/><rect fill="#2563EB" height="0.765" width="1" x="64" y="0.235"/><rect fill="#2563EB" height="0.557" width="1" x="65" y="0.442"/><rect fill="#2563EB" height="0.666" width="1" x="66" y="0.333"/><rect fill="#2563EB" height="0.536" width="1" x="67" y="0.463"/><rect fill="#2563EB" height="0.661" width="1" x="68" y="0.338"/><rect fill="#2563EB" height="0.789" width="1" x="69" y="0.210"/><rect fill="#2563EB" height="0.631" width="1" x="70" y="0.369"/><rect fill="#2563EB" height="0.927" width="1" x="71" y="0.072"/><rect fill="#2563EB" height="0.337" width="1" x="72" y="0.663"/><rect fill="#2563EB" height="0.455" width="1" x="73" y="0.544"/><rect fill="#2563EB" height="0.436" width="1" x="74" y="0.564"/><rect fill="#2563EB" height="0.902" width="1" x="75" y="0.097"/><rect fill="#2563EB" height="0.59" width="1" x="76" y="0.410"/><rect fill="#2563EB" height="0.775" width="1" x="77" y="0.224"/><rect fill="#2563EB" height="0.462" width="1" x="78" y="0.538"/><rect fill="#2563EB" height="0.454" width="1" x="79" y="0.546"/><rect fill="#2563EB" height="0.387" width="1" x="80" y="0.613"/><rect fill="#2563EB" height="0.866" width="1" x="81" y="0.134"/><rect fill="#2563EB" height="0.928" width="1" x="82" y="0.071"/><rect fill="#2563EB" height="0.746" width="1" x="83" y="0.254"/><rect fill="#2563EB" height="0.878" width="1" x="84" y="0.122"/><rect fill="#2563EB" height="0.576" width="1" x="85" y="0.424"/><rect fill="#2563EB" height="0.551" width="1" x="86" y="0.448"/><rect fill="#2563EB" height="0.809" width="1" x="87" y="0.190"/><rect fill="#2563EB" height="0.581" width="1" x="88" y="0.419"/><rect fill="#2563EB" height="0.717" width="1" x="89" y="0.283"/><rect fill="#2563EB" height="0.577" width="1" x="90" y="0.423"/><rect fill="#2563EB" height="0.664" width="1" x="91" y="0.335"/><rect fill="#2563EB" height="0.502" width="1" x="92" y="0.498"/><rect fill="#2563EB" height="0.425" width="1" x="93" y="0.575"/><rect fill="#2563EB" height="0.566" width="1" x="94" y="0.434"/><rect fill="#2563EB" height="0.581" width="1" x="95" y="0.419"/><rect fill="#2563EB" height="0.905" width="1" x="96" y="0.094"/><rect fill="#2563EB" height="0.298" width="1" x="97" y="0.702"/><rect fill="#2563EB" height="0.2" width="1" x="98" y="0.8"/><rect fill="#2563EB" height="0.019" width="1" x="99" y="0.981"/></svg>