<svg xmlns="http://www.w3.org/2000/svg" preserveAspectRatio="none" viewBox="0 0 100 1"><rect fill="#2563EB" height="0.891" width="1" x="0" y="0.108"/><rect fill="#2563EB" height="0.96" width="1" x="1" y="0.040"/><rect fill="#2563EB" height="0.802" width="1" x="2" y="0.197"/><rect fill="#2563EB" height="0.804" width="1" x="3" y="0.195"/><rect fill="#2563EB" height="0.749" width="1" x="4" y="0.251"/><rect fill="#2563EB" height="0.726" width="1" x="5" y="0.274"/><rect fill="#2563EB" height="0.845" width="1" x="6" y="0.155"/><rect fill="#2563EB" height="0.815" width="1" x="7" y="0.185"/><rect fill="#2563EB" height="0.673" width="1" x="8" y="0.326"/><rect fill="#2563EB" height="0.797" width="1" x="9" y="0.202"/><rect fill="#2563EB" height="0.696" width="1" x="10" y="0.304"/><rect fill="#2563EB" height="0.83" width="1" x="11" y="0.170"/><rect fill="#2563EB" height="0.906" width="1" x="12" y="0.093"/><rect fill="#2563EB" height="0.911" width="1" x="13" y="0.088"/><rect fill="#2563EB" height="0.978" width="1" x="14" y="0.022"/><rect fill="#2563EB" height="0.731" width="1" x="15" y="0.269"/><rect fill="#2563EB" height="0.815" width="1" x="16" y="0.185"/><rect fill="#2563EB" height="0.916" width="1" x="17" y="0.083"/><rect fill="#2563EB" height="0.801" width="1" x="18" y="0.198"/><rect fill="#2563EB" height="0.785" width="1" x="19" y="0.214"/><rect fill="#2563EB" height="0.825" width="1" x="20" y="0.175"/><rect fill="#2563EB" height="0.746" width="1" x="21" y="0.254"/><rect fill="#2563EB" height="0.815" width="1" x="22" y="0.185"/><rect fill="#2563EB" height="0.831" width="1" x="23" y="0.169"/><rect fill="#2563EB" height="0.737" width="1" x="24" y="0.263"/><rect fill="#2563EB" height="0.8" width="1" x="25" y="0.199"/><rect fill="#2563EB" height="0.778" width="1" x="26" y="0.221"/><rect fill="#2563EB" height="0.764" width="1" x="27" y="0.236"/><rect fill="#2563EB" height="0.62" width="1" x="28" y="0.38"/><rect fill="#2563EB" height="0.692" width="1" x="29" y="0.308"/><rect fill="#2563EB" height="0.937" width="1" x="30" y="0.062"/><rect fill="#2563EB" height="0.854" width="1" x="31" y="0.146"/><rect fill="#2563EB" height="0.797" width="1" x="32" y="0.202"/><rect fill="#2563EB" height="0.524" width="1" x="33" y="0.476"/><rect fill="#2563EB" height="0.621" width="1" x="34" y="0.379"/><rect fill="#2563EB" height="0.782" width="1" x="35" y="0.217"/><rect fill="#2563EB" height="0.828" width="1" x="36" y="0.172"/><rect fill="#2563EB" height="0.937" width="1" x="37" y="0.062"/><rect fill="#2563EB" height="0.863" width="1" x="38" y="0.137"/><rect fill="#2563EB" height="0.727" width="1" x="39" y="0.273"/><rect fill="#2563EB" height="0.733" width="1" x="40" y="0.267"/><rect fill="#2563EB" height="0.909" width="1" x="41" y="0.090"/><rect fill="#2563EB" height="0.808" width="1" x="42" y="0.191"/><rect fill="#2563EB" height="0.892" width="1" x="43" y="0.107"/><rect fill="#2563EB" height="0.824" width="1" x="44" y="0.176"/><rect fill="#2563EB" height="0.691" width="1" x="45" y="0.309"/><rect fill="#2563EB" height="0.782" width="1" x="46" y="0.217"/><rect fill="#2563EB" height="0.885" width="1" x="47" y="0.114"/><rect fill="#2563EB" height="0.793" width="1" x="48" y="0.206"/><rect fill="#2563EB" height="0.909" width="1" x="49" y="0.090"/><rect fill="#2563EB" height="0.825" width="1" x="50" y="0.175"/><rect fill="#2563EB" height="0.728" width="1" x="51" y="0.272"/><rect fill="#2563EB" height="0.729" width="1" x="52" y="0.271"/><rect fill="#2563EB" height="0.859" width="1" x="53" y="0.141"/><rect fill="#2563EB" height="0.765" width="1" x="54" y="0.235"/><rect fill="#2563EB" height="0.806" width="1" x="55" y="0.193"/><rect fill="#2563EB" height="0.753" width="1" x="56" y="0.247"/><rect fill="#2563EB" height="0.633" width="1" x="57" y="0.367"/><rect fill="#2563EB" height="0.639" width="1" x="58" y="0.361"/><rect fill="#2563EB" height="0.836" width="1" x="59" y="0.164"/><rect fill="#2563EB" height="0.641" width="1" x="60" y="0.359"/><rect fill="#2563EB" height="0.733" width="1" x="61" y="0.267"/><rect fill="#2563EB" height="0.897" width="1" x="62" y="0.102"/><rect fill="#2563EB" height="0.603" width="1" x="63" y="0.397"/><rect fill="#2563EB" height="0.8" width="1" x="64" y="0.199"/><rect fill="#2563EB" height="0.854" width="1" x="65" y="0.146"/><rect fill="#2563EB" height="0.723" width="1" x="66" y="0.277"/><rect fill="#2563EB" height="0.581" width="1" x="67" y="0.419"/><rect fill="#2563EB" height="0.653" width="1" x="68" y="0.347"/><rect fill="#2563EB" height="0.626" width="1" x="69" y="0.374"/><rect fill="#2563EB" height="0.646" width="1" x="70" y="0.354"/><rect fill="#2563EB" height="0.822" width="1" x="71" y="0.178"/><rect fill="#2563EB" height="0.747" width="1" x="72" y="0.253"/><rect fill="#2563EB" height="0.886" width="1" x="73" y="0.113"/><rect fill="#2563EB" height="0.872" width="1" x="74" y="0.128"/><rect fill="#2563EB" height="0.766" width="1" x="75" y="0.233"/><rect fill="#2563EB" height="0.656" width="1" x="76" y="0.344"/><rect fill="#2563EB" height="0.746" width="1" x="77" y="0.254"/><rect fill="#2563EB" height="1" width="1" x="78" y="0"/><rect fill="#2563EB" height="0.952" width="1" x="79" y="0.048"/><rect fill="#2563EB" height="0.845" width="1" x="80" y="0.155"/><rect fill="#2563EB" height="0.701" width="1" x="81" y="0.299"/><rect fill="#2563EB" height="0.774" width="1" x="82" y="0.225"/><rect fill="#2563EB" height="0.745" width="1" x="83" y="0.255"/><rect fill="#2563EB" height="0.644" width="1" x="84" y="0.356"/><rect fill="#2563EB" height="0.666" width="1" x="85" y="0.333"/><rect fill="#2563EB" height="0.764" width="1" x="86" y="0.236"/><rect fill="#2563EB" height="0.719" width="1" x="87" y="0.281"/><rect fill="#2563EB" height="0.69" width="1" x="88" y="0.310"/><rect fill="#2563EB" height="0.788" width="1" x="89" y="0.211"/><rect fill="#2563EB" height="0.774" width="1" x="90" y="0.225"/><rect fill="#2563EB" height="0.748" width="1" x="91" y="0.252"/><rect fill="#2563EB" height="0.601" width="1" x="92" y="0.399"/><rect fill="#2563EB" height="0.624" width="1" x="93" y="0.376"/><rect fill="#2563EB" height="0.68" width="1" x="94" y="0.319"/><rect fill="#2563EB" height="0.971" width="1" x="95" y="0.029"/><rect fill="#2563EB" height="0.444" width="1" x="96" y="0.556"/><rect fill="#2563EB" height="0.004" width="1" x="97" y="0.996"/><rect fill="#2563EB" height="0" width="1" x="98" y="1"/><rect fill="#2563EB" height="0" width="1" x="99" y="1"/></svg>