<svg xmlns="http://www.w3.org/2000/svg" preserveAspectRatio="none" viewBox="0 0 100 1"><rect fill="#2563EB" height="0.8908648833019558" width="1" x="0" y="0.10913511669804421"/><rect fill="#2563EB" height="0.9603671676591127" width="1" x="1" y="0.039632832340887325"/><rect fill="#2563EB" height="0.8020206115294091" width="1" x="2" y="0.19797938847059093"/><rect fill="#2563EB" height="0.8037313532456276" width="1" x="3" y="0.1962686467543724"/><rect fill="#2563EB" height="0.7494858584047401" width="1" x="4" y="0.25051414159525986"/><rect fill="#2563EB" height="0.725764843616659" width="1" x="5" y="0.27423515638334095"/><rect fill="#2563EB" height="0.8446659920058329" width="1" x="6" y="0.15533400799416708"/><rect fill="#2563EB" height="0.8151234298109589" width="1" x="7" y="0.18487657018904113"/><rect fill="#2563EB" height="0.6731002255796888" width="1" x="8" y="0.32689977442031115"/><rect fill="#2563EB" height="0.7969835504754035" width="1" x="9" y="0.20301644952459652"/><rect fill="#2563EB" height="0.696499803051051" width="1" x="10" y="0.30350019694894903"/><rect fill="#2563EB" height="0.8302292019762605" width="1" x="11" y="0.1697707980237395"/><rect fill="#2563EB" height="0.9064613231447319" width="1" x="12" y="0.09353867685526807"/><rect fill="#2563EB" height="0.9109295165496986" width="1" x="13" y="0.08907048345030144"/><rect fill="#2563EB" height="0.9778738609709646" width="1" x="14" y="0.022126139029035374"/><rect fill="#2563EB" height="0.7307414832686445" width="1" x="15" y="0.2692585167313555"/><rect fill="#2563EB" height="0.8147370980614764" width="1" x="16" y="0.18526290193852357"/><rect fill="#2563EB" height="0.9159487004873725" width="1" x="17" y="0.08405129951262746"/><rect fill="#2563EB" height="0.8006765586570521" width="1" x="18" y="0.19932344134294788"/><rect fill="#2563EB" height="0.7849290757054935" width="1" x="19" y="0.21507092429450647"/><rect fill="#2563EB" height="0.824553331336471" width="1" x="20" y="0.17544666866352898"/><rect fill="#2563EB" height="0.7457609087286378" width="1" x="21" y="0.25423909127136224"/><rect fill="#2563EB" height="0.8152864677885475" width="1" x="22" y="0.18471353221145248"/><rect fill="#2563EB" height="0.8310161871013906" width="1" x="23" y="0.16898381289860942"/><rect fill="#2563EB" height="0.7368791432290558" width="1" x="24" y="0.2631208567709442"/><rect fill="#2563EB" height="0.8003642380012403" width="1" x="25" y="0.19963576199875965"/><rect fill="#2563EB" height="0.7777661640948761" width="1" x="26" y="0.2222338359051239"/><rect fill="#2563EB" height="0.7641207291669889" width="1" x="27" y="0.23587927083301108"/><rect fill="#2563EB" height="0.6198263291269044" width="1" x="28" y="0.3801736708730956"/><rect fill="#2563EB" height="0.6923551307597745" width="1" x="29" y="0.3076448692402255"/><rect fill="#2563EB" height="0.9371344423530463" width="1" x="30" y="0.06286555764695367"/><rect fill="#2563EB" height="0.8543971092320986" width="1" x="31" y="0.14560289076790145"/><rect fill="#2563EB" height="0.7971285453017036" width="1" x="32" y="0.20287145469829637"/><rect fill="#2563EB" height="0.5238725234561992" width="1" x="33" y="0.47612747654380083"/><rect fill="#2563EB" height="0.6209003399652847" width="1" x="34" y="0.3790996600347153"/><rect fill="#2563EB" height="0.7819717074083942" width="1" x="35" y="0.21802829259160583"/><rect fill="#2563EB" height="0.8281787105516848" width="1" x="36" y="0.1718212894483152"/><rect fill="#2563EB" height="0.9367428404681404" width="1" x="37" y="0.06325715953185962"/><rect fill="#2563EB" height="0.8631925712366484" width="1" x="38" y="0.1368074287633516"/><rect fill="#2563EB" height="0.7268020778984612" width="1" x="39" y="0.2731979221015388"/><rect fill="#2563EB" height="0.7328324106255917" width="1" x="40" y="0.2671675893744083"/><rect fill="#2563EB" height="0.9089873308531858" width="1" x="41" y="0.09101266914681416"/><rect fill="#2563EB" height="0.8078051578826843" width="1" x="42" y="0.19219484211731575"/><rect fill="#2563EB" height="0.8922954611578126" width="1" x="43" y="0.10770453884218745"/><rect fill="#2563EB" height="0.8239188216296326" width="1" x="44" y="0.1760811783703674"/><rect fill="#2563EB" height="0.6909709534735843" width="1" x="45" y="0.3090290465264157"/><rect fill="#2563EB" height="0.7815896753799721" width="1" x="46" y="0.21841032462002785"/><rect fill="#2563EB" height="0.8847769278429056" width="1" x="47" y="0.11522307215709438"/><rect fill="#2563EB" height="0.7928388663385133" width="1" x="48" y="0.2071611336614867"/><rect fill="#2563EB" height="0.9092372913492733" width="1" x="49" y="0.09076270865072666"/><rect fill="#2563EB" height="0.8249165523009913" width="1" x="50" y="0.17508344769900874"/><rect fill="#2563EB" height="0.727986295381413" width="1" x="51" y="0.272013704618587"/><rect fill="#2563EB" height="0.7287655331096935" width="1" x="52" y="0.2712344668903065"/><rect fill="#2563EB" height="0.8593536267398953" width="1" x="53" y="0.14064637326010465"/><rect fill="#2563EB" height="0.7652631483885947" width="1" x="54" y="0.23473685161140534"/><rect fill="#2563EB" height="0.805658330722115" width="1" x="55" y="0.194341669277885"/><rect fill="#2563EB" height="0.7525922159070556" width="1" x="56" y="0.2474077840929444"/><rect fill="#2563EB" height="0.6333975364788081" width="1" x="57" y="0.36660246352119186"/><rect fill="#2563EB" height="0.638567202416383" width="1" x="58" y="0.361432797583617"/><rect fill="#2563EB" height="0.8358697656438334" width="1" x="59" y="0.16413023435616658"/><rect fill="#2563EB" height="0.6410880266065025" width="1" x="60" y="0.35891197339349745"/><rect fill="#2563EB" height="0.7327411544353201" width="1" x="61" y="0.26725884556467994"/><rect fill="#2563EB" height="0.8973826678208969" width="1" x="62" y="0.10261733217910307"/><rect fill="#2563EB" height="0.6025210829674766" width="1" x="63" y="0.39747891703252336"/><rect fill="#2563EB" height="0.8003999956293213" width="1" x="64" y="0.1996000043706787"/><rect fill="#2563EB" height="0.8542485685914929" width="1" x="65" y="0.1457514314085071"/><rect fill="#2563EB" height="0.7231237441204781" width="1" x="66" y="0.2768762558795219"/><rect fill="#2563EB" height="0.5810250149495564" width="1" x="67" y="0.4189749850504436"/><rect fill="#2563EB" height="0.6533854500467317" width="1" x="68" y="0.34661454995326835"/><rect fill="#2563EB" height="0.6257286735783164" width="1" x="69" y="0.3742713264216836"/><rect fill="#2563EB" height="0.6455776031386282" width="1" x="70" y="0.3544223968613718"/><rect fill="#2563EB" height="0.8219110506018464" width="1" x="71" y="0.17808894939815356"/><rect fill="#2563EB" height="0.7474239048709821" width="1" x="72" y="0.2525760951290179"/><rect fill="#2563EB" height="0.8857326911493638" width="1" x="73" y="0.11426730885063618"/><rect fill="#2563EB" height="0.8717364530033793" width="1" x="74" y="0.12826354699662068"/><rect fill="#2563EB" height="0.7664002902462361" width="1" x="75" y="0.23359970975376387"/><rect fill="#2563EB" height="0.6558901455984336" width="1" x="76" y="0.3441098544015664"/><rect fill="#2563EB" height="0.7456096223361884" width="1" x="77" y="0.25439037766381156"/><rect fill="#2563EB" height="1" width="1" x="78" y="0"/><rect fill="#2563EB" height="0.9515713343826393" width="1" x="79" y="0.0484286656173607"/><rect fill="#2563EB" height="0.8447295399386471" width="1" x="80" y="0.15527046006135292"/><rect fill="#2563EB" height="0.7010056942218406" width="1" x="81" y="0.29899430577815944"/><rect fill="#2563EB" height="0.7737252169812786" width="1" x="82" y="0.2262747830187214"/><rect fill="#2563EB" height="0.745237719064991" width="1" x="83" y="0.25476228093500897"/><rect fill="#2563EB" height="0.6437635720389207" width="1" x="84" y="0.35623642796107935"/><rect fill="#2563EB" height="0.6660327333356963" width="1" x="85" y="0.33396726666430365"/><rect fill="#2563EB" height="0.7641258809579574" width="1" x="86" y="0.23587411904204258"/><rect fill="#2563EB" height="0.7185737855562986" width="1" x="87" y="0.2814262144437014"/><rect fill="#2563EB" height="0.690087950711268" width="1" x="88" y="0.30991204928873195"/><rect fill="#2563EB" height="0.7881829548386213" width="1" x="89" y="0.21181704516137867"/><rect fill="#2563EB" height="0.7741349269086181" width="1" x="90" y="0.22586507309138193"/><rect fill="#2563EB" height="0.7483447905473837" width="1" x="91" y="0.2516552094526163"/><rect fill="#2563EB" height="0.6012192506169668" width="1" x="92" y="0.3987807493830332"/><rect fill="#2563EB" height="0.6243516333304455" width="1" x="93" y="0.3756483666695545"/><rect fill="#2563EB" height="0.6797197573303556" width="1" x="94" y="0.3202802426696444"/><rect fill="#2563EB" height="0.971061594001748" width="1" x="95" y="0.028938405998252037"/><rect fill="#2563EB" height="0.44395529811069" width="1" x="96" y="0.55604470188931"/><rect fill="#2563EB" height="0.0039887668998995485" width="1" x="97" y="0.9960112331001004"/><rect fill="#2563EB" height="0.000001257873622159351" width="1" x="98" y="0.9999987421263778"/><rect fill="#2563EB" height="0" width="1" x="99" y="1"/></svg>