<svg xmlns="http://www.w3.org/2000/svg" preserveAspectRatio="none" viewBox="0 0 100 1"><rect fill="#2563EB" height="0.144" width="1" x="0" y="0.856"/><rect fill="#2563EB" height="0.13" width="1" x="1" y="0.87"/><rect fill="#2563EB" height="0.18" width="1" x="2" y="0.820"/><rect fill="#2563EB" height="0.217" width="1" x="3" y="0.783"/><rect fill="#2563EB" height="0.407" width="1" x="4" y="0.593"/><rect fill="#2563EB" height="0.411" width="1" x="5" y="0.589"/><rect fill="#2563EB" height="0.425" width="1" x="6" y="0.575"/><rect fill="#2563EB" height="0.439" width="1" x="7" y="0.560"/><rect fill="#2563EB" height="0.381" width="1" x="8" y="0.619"/><rect fill="#2563EB" height="0.706" width="1" x="9" y="0.294"/><rect fill="#2563EB" height="0.707" width="1" x="10" y="0.293"/><rect fill="#2563EB" height="0.558" width="1" x="11" y="0.441"/><rect fill="#2563EB" height="0.689" width="1" x="12" y="0.311"/><rect fill="#2563EB" height="0.87" width="1" x="13" y="0.13"/><rect fill="#2563EB" height="0.68" width="1" x="14" y="0.319"/><rect fill="#2563EB" height="0.696" width="1" x="15" y="0.304"/><rect fill="#2563EB" height="0.793" width="1" x="16" y="0.206"/><rect fill="#2563EB" height="0.633" width="1" x="17" y="0.367"/><rect fill="#2563EB" height="0.71" width="1" x="18" y="0.290"/><rect fill="#2563EB" height="0.664" width="1" x="19" y="0.335"/><rect fill="#2563EB" height="0.734" width="1" x="20" y="0.266"/><rect fill="#2563EB" height="0.774" width="1" x="21" y="0.225"/><rect fill="#2563EB" height="0.866" width="1" x="22" y="0.134"/><rect fill="#2563EB" height="0.785" width="1" x="23" y="0.214"/><rect fill="#2563EB" height="0.788" width="1" x="24" y="0.211"/><rect fill="#2563EB" height="0.819" width="1" x="25" y="0.181"/><rect fill="#2563EB" height="0.774" width="1" x="26" y="0.225"/><rect fill="#2563EB" height="0.806" width="1" x="27" y="0.193"/><rect fill="#2563EB" height="0.784" width="1" x="28" y="0.215"/><rect fill="#2563EB" height="0.724" width="1" x="29" y="0.276"/><rect fill="#2563EB" height="0.681" width="1" x="30" y="0.318"/><rect fill="#2563EB" height="0.7" width="1" x="31" y="0.300"/><rect fill="#2563EB" height="0.701" width="1" x="32" y="0.299"/><rect fill="#2563EB" height="0.7" width="1" x="33" y="0.300"/><rect fill="#2563EB" height="0.555" width="1" x="34" y="0.444"/><rect fill="#2563EB" height="0.791" width="1" x="35" y="0.208"/><rect fill="#2563EB" height="0.616" width="1" x="36" y="0.384"/><rect fill="#2563EB" height="0.683" width="1" x="37" y="0.316"/><rect fill="#2563EB" height="0.684" width="1" x="38" y="0.315"/><rect fill="#2563EB" height="0.917" width="1" x="39" y="0.082"/><rect fill="#2563EB" height="0.745" width="1" x="40" y="0.255"/><rect fill="#2563EB" height="0.656" width="1" x="41" y="0.344"/><rect fill="#2563EB" height="0.826" width="1" x="42" y="0.174"/><rect fill="#2563EB" height="0.533" width="1" x="43" y="0.466"/><rect fill="#2563EB" height="1" width="1" x="44" y="0"/><rect fill="#2563EB" height="0.711" width="1" x="45" y="0.289"/><rect fill="#2563EB" height="0.697" width="1" x="46" y="0.303"/><rect fill="#2563EB" height="0.727" width="1" x="47" y="0.273"/><rect fill="#2563EB" height="0.924" width="1" x="48" y="0.075"/><rect fill="#2563EB" height="0.678" width="1" x="49" y="0.321"/><rect fill="#2563EB" height="0.718" width="1" x="50" y="0.282"/><rect fill="#2563EB" height="0.686" width="1" x="51" y="0.313"/><rect fill="#2563EB" height="0.61" width="1" x="52" y="0.39"/><rect fill="#2563EB" height="0.827" width="1" x="53" y="0.173"/><rect fill="#2563EB" height="0.728" width="1" x="54" y="0.272"/><rect fill="#2563EB" height="0.769" width="1" x="55" y="0.230"/><rect fill="#2563EB" height="0.704" width="1" x="56" y="0.296"/><rect fill="#2563EB" height="0.783" width="1" x="57" y="0.216"/><rect fill="#2563EB" height="0.709" width="1" x="58" y="0.291"/><rect fill="#2563EB" height="0.694" width="1" x="59" y="0.306"/><rect fill="#2563EB" height="0.666" width="1" x="60" y="0.333"/><rect fill="#2563EB" height="0.718" width="1" x="61" y="0.282"/><rect fill="#2563EB" height="0.803" width="1" x="62" y="0.196"/><rect fill="#2563EB" height="0.715" width="1" x="63" y="0.285"/><rect fill="#2563EB" height="0.721" width="1" x="64" y="0.279"/><rect fill="#2563EB" height="0.724" width="1" x="65" y="0.276"/><rect fill="#2563EB" height="0.745" width="1" x="66" y="0.255"/><rect fill="#2563EB" height="0.646" width="1" x="67" y="0.354"/><rect fill="#2563EB" height="0.771" width="1" x="68" y="0.228"/><rect fill="#2563EB" height="0.632" width="1" x="69" y="0.368"/><rect fill="#2563EB" height="0.537" width="1" x="70" y="0.462"/><rect fill="#2563EB" height="0.483" width="1" x="71" y="0.517"/><rect fill="#2563EB" height="0.355" width="1" x="72" y="0.645"/><rect fill="#2563EB" height="0.257" width="1" x="73" y="0.743"/><rect fill="#2563EB" height="0.281" width="1" x="74" y="0.719"/><rect fill="#2563EB" height="0.174" width="1" x="75" y="0.826"/><rect fill="#2563EB" height="0.318" width="1" x="76" y="0.681"/><rect fill="#2563EB" height="0.265" width="1" x="77" y="0.735"/><rect fill="#2563EB" height="0.151" width="1" x="78" y="0.849"/><rect fill="#2563EB" height="0.24" width="1" x="79" y="0.76"/><rect fill="#2563EB" height="0.389" width="1" x="80" y="0.611"/><rect fill="#2563EB" height="0.214" width="1" x="81" y="0.786"/><rect fill="#2563EB" height="0.139" width="1" x="82" y="0.861"/><rect fill="#2563EB" height="0.251" width="1" x="83" y="0.749"/><rect fill="#2563EB" height="0.538" width="1" x="84" y="0.461"/><rect fill="#2563EB" height="0.287" width="1" x="85" y="0.713"/><rect fill="#2563EB" height="0.13" width="1" x="86" y="0.87"/><rect fill="#2563EB" height="0.18" width="1" x="87" y="0.820"/><rect fill="#2563EB" height="0.509" width="1" x="88" y="0.491"/><rect fill="#2563EB" height="0.383" width="1" x="89" y="0.617"/><rect fill="#2563EB" height="0.21" width="1" x="90" y="0.79"/><rect fill="#2563EB" height="0.211" width="1" x="91" y="0.789"/><rect fill="#2563EB" height="0.185" width="1" x="92" y="0.815"/><rect fill="#2563EB" height="0.162" width="1" x="93" y="0.838"/><rect fill="#2563EB" height="0.007" width="1" x="94" y="0.993"/><rect fill="#2563EB" height="0" width="1" x="95" y="1"/><rect fill="#2563EB" height="0" width="1" x="96" y="1"/><rect fill="#2563EB" height="0" width="1" x="97" y="1"/><rect fill="#2563EB" height="0" width="1" x="98" y="1"/><rect fill="#2563EB" height="0" width="1" x="99" y="1"/></svg>