<svg xmlns="http://www.w3.org/2000/svg" preserveAspectRatio="none" viewBox="0 0 100 1"><rect fill="#2563EB" height="0.1439737898133434" width="1" x="0" y="0.8560262101866566"/><rect fill="#2563EB" height="0.13048253413856858" width="1" x="1" y="0.8695174658614314"/><rect fill="#2563EB" height="0.1797957518721671" width="1" x="2" y="0.8202042481278329"/><rect fill="#2563EB" height="0.21657869255282625" width="1" x="3" y="0.7834213074471738"/><rect fill="#2563EB" height="0.40741781238525937" width="1" x="4" y="0.5925821876147406"/><rect fill="#2563EB" height="0.41083948954726135" width="1" x="5" y="0.5891605104527387"/><rect fill="#2563EB" height="0.4247609230456987" width="1" x="6" y="0.5752390769543013"/><rect fill="#2563EB" height="0.43863179134386543" width="1" x="7" y="0.5613682086561346"/><rect fill="#2563EB" height="0.3808134592408258" width="1" x="8" y="0.6191865407591741"/><rect fill="#2563EB" height="0.7061940313468659" width="1" x="9" y="0.29380596865313413"/><rect fill="#2563EB" height="0.7070765004457361" width="1" x="10" y="0.2929234995542639"/><rect fill="#2563EB" height="0.5581677503988646" width="1" x="11" y="0.44183224960113543"/><rect fill="#2563EB" height="0.6892009426850498" width="1" x="12" y="0.31079905731495017"/><rect fill="#2563EB" height="0.8697256532488621" width="1" x="13" y="0.13027434675113791"/><rect fill="#2563EB" height="0.6798241882297715" width="1" x="14" y="0.32017581177022847"/><rect fill="#2563EB" height="0.6956155716512854" width="1" x="15" y="0.3043844283487146"/><rect fill="#2563EB" height="0.79301132238706" width="1" x="16" y="0.20698867761294004"/><rect fill="#2563EB" height="0.6332823132730941" width="1" x="17" y="0.36671768672690586"/><rect fill="#2563EB" height="0.710388511945392" width="1" x="18" y="0.289611488054608"/><rect fill="#2563EB" height="0.6636538034763387" width="1" x="19" y="0.33634619652366127"/><rect fill="#2563EB" height="0.7341661344127968" width="1" x="20" y="0.26583386558720323"/><rect fill="#2563EB" height="0.7741436886646781" width="1" x="21" y="0.2258563113353219"/><rect fill="#2563EB" height="0.8661266385139307" width="1" x="22" y="0.13387336148606932"/><rect fill="#2563EB" height="0.7848495243633596" width="1" x="23" y="0.21515047563664036"/><rect fill="#2563EB" height="0.7882699779689382" width="1" x="24" y="0.21173002203106184"/><rect fill="#2563EB" height="0.8194674969549106" width="1" x="25" y="0.1805325030450894"/><rect fill="#2563EB" height="0.7742151250514443" width="1" x="26" y="0.2257848749485557"/><rect fill="#2563EB" height="0.8059176877820735" width="1" x="27" y="0.1940823122179265"/><rect fill="#2563EB" height="0.7842608141477752" width="1" x="28" y="0.21573918585222485"/><rect fill="#2563EB" height="0.7240814153829367" width="1" x="29" y="0.2759185846170633"/><rect fill="#2563EB" height="0.6813567374571114" width="1" x="30" y="0.31864326254288855"/><rect fill="#2563EB" height="0.6995700842261412" width="1" x="31" y="0.3004299157738588"/><rect fill="#2563EB" height="0.7005210102423471" width="1" x="32" y="0.29947898975765286"/><rect fill="#2563EB" height="0.6997611056274031" width="1" x="33" y="0.3002388943725969"/><rect fill="#2563EB" height="0.5554075763972807" width="1" x="34" y="0.44459242360271933"/><rect fill="#2563EB" height="0.7907518813401265" width="1" x="35" y="0.20924811865987347"/><rect fill="#2563EB" height="0.6157371131813574" width="1" x="36" y="0.3842628868186426"/><rect fill="#2563EB" height="0.6833377435835394" width="1" x="37" y="0.3166622564164606"/><rect fill="#2563EB" height="0.6841706440087544" width="1" x="38" y="0.3158293559912456"/><rect fill="#2563EB" height="0.9168894011444907" width="1" x="39" y="0.08311059885550931"/><rect fill="#2563EB" height="0.7448332351901302" width="1" x="40" y="0.2551667648098698"/><rect fill="#2563EB" height="0.6558423466503779" width="1" x="41" y="0.3441576533496221"/><rect fill="#2563EB" height="0.8261980021300898" width="1" x="42" y="0.17380199786991024"/><rect fill="#2563EB" height="0.5327005247394042" width="1" x="43" y="0.4672994752605958"/><rect fill="#2563EB" height="1" width="1" x="44" y="0"/><rect fill="#2563EB" height="0.711138613294244" width="1" x="45" y="0.288861386705756"/><rect fill="#2563EB" height="0.6973017650740911" width="1" x="46" y="0.30269823492590886"/><rect fill="#2563EB" height="0.7269853554971694" width="1" x="47" y="0.27301464450283064"/><rect fill="#2563EB" height="0.924264176191253" width="1" x="48" y="0.075735823808747"/><rect fill="#2563EB" height="0.6781953535948649" width="1" x="49" y="0.32180464640513506"/><rect fill="#2563EB" height="0.717842272278784" width="1" x="50" y="0.28215772772121595"/><rect fill="#2563EB" height="0.6856039959769495" width="1" x="51" y="0.31439600402305046"/><rect fill="#2563EB" height="0.6101148356032579" width="1" x="52" y="0.38988516439674215"/><rect fill="#2563EB" height="0.8266473974691959" width="1" x="53" y="0.1733526025308041"/><rect fill="#2563EB" height="0.7283740929956082" width="1" x="54" y="0.2716259070043918"/><rect fill="#2563EB" height="0.7689625176219494" width="1" x="55" y="0.23103748237805055"/><rect fill="#2563EB" height="0.7037479759768334" width="1" x="56" y="0.29625202402316664"/><rect fill="#2563EB" height="0.782638297131466" width="1" x="57" y="0.21736170286853396"/><rect fill="#2563EB" height="0.7093745386317191" width="1" x="58" y="0.29062546136828094"/><rect fill="#2563EB" height="0.6942922605986988" width="1" x="59" y="0.30570773940130125"/><rect fill="#2563EB" height="0.6658582522686319" width="1" x="60" y="0.33414174773136807"/><rect fill="#2563EB" height="0.7177566297559684" width="1" x="61" y="0.28224337024403157"/><rect fill="#2563EB" height="0.8033986876922231" width="1" x="62" y="0.1966013123077769"/><rect fill="#2563EB" height="0.7147948179462309" width="1" x="63" y="0.2852051820537691"/><rect fill="#2563EB" height="0.7214762524755362" width="1" x="64" y="0.27852374752446385"/><rect fill="#2563EB" height="0.7239854651760442" width="1" x="65" y="0.27601453482395577"/><rect fill="#2563EB" height="0.7450801677570448" width="1" x="66" y="0.2549198322429552"/><rect fill="#2563EB" height="0.6455532569865747" width="1" x="67" y="0.35444674301342527"/><rect fill="#2563EB" height="0.7705273308916992" width="1" x="68" y="0.22947266910830078"/><rect fill="#2563EB" height="0.6318577684616576" width="1" x="69" y="0.36814223153834236"/><rect fill="#2563EB" height="0.5374711872626424" width="1" x="70" y="0.4625288127373576"/><rect fill="#2563EB" height="0.48315326681186727" width="1" x="71" y="0.5168467331881328"/><rect fill="#2563EB" height="0.35501398449884264" width="1" x="72" y="0.6449860155011573"/><rect fill="#2563EB" height="0.25659320514406814" width="1" x="73" y="0.7434067948559319"/><rect fill="#2563EB" height="0.2814370220496056" width="1" x="74" y="0.7185629779503944"/><rect fill="#2563EB" height="0.1741979155764978" width="1" x="75" y="0.8258020844235022"/><rect fill="#2563EB" height="0.3177949722438114" width="1" x="76" y="0.6822050277561886"/><rect fill="#2563EB" height="0.26519800083892825" width="1" x="77" y="0.7348019991610717"/><rect fill="#2563EB" height="0.1507782355981347" width="1" x="78" y="0.8492217644018654"/><rect fill="#2563EB" height="0.23952437220397907" width="1" x="79" y="0.760475627796021"/><rect fill="#2563EB" height="0.38898813629423135" width="1" x="80" y="0.6110118637057687"/><rect fill="#2563EB" height="0.2143765154053639" width="1" x="81" y="0.7856234845946362"/><rect fill="#2563EB" height="0.1391261943720694" width="1" x="82" y="0.8608738056279306"/><rect fill="#2563EB" height="0.25104229400068084" width="1" x="83" y="0.7489577059993191"/><rect fill="#2563EB" height="0.5381071435454238" width="1" x="84" y="0.46189285645457623"/><rect fill="#2563EB" height="0.2868342657370145" width="1" x="85" y="0.7131657342629856"/><rect fill="#2563EB" height="0.13028530806101882" width="1" x="86" y="0.8697146919389812"/><rect fill="#2563EB" height="0.17992901250372004" width="1" x="87" y="0.8200709874962799"/><rect fill="#2563EB" height="0.5093613516850884" width="1" x="88" y="0.49063864831491155"/><rect fill="#2563EB" height="0.3830746440816534" width="1" x="89" y="0.6169253559183465"/><rect fill="#2563EB" height="0.2098382939063353" width="1" x="90" y="0.7901617060936648"/><rect fill="#2563EB" height="0.21057634280267856" width="1" x="91" y="0.7894236571973214"/><rect fill="#2563EB" height="0.1847746203122089" width="1" x="92" y="0.8152253796877911"/><rect fill="#2563EB" height="0.16245361647481407" width="1" x="93" y="0.837546383525186"/><rect fill="#2563EB" height="0.006829635732597239" width="1" x="94" y="0.9931703642674028"/><rect fill="#2563EB" height="0.000010808216867576372" width="1" x="95" y="0.9999891917831324"/><rect fill="#2563EB" height="0" width="1" x="96" y="1"/><rect fill="#2563EB" height="0" width="1" x="97" y="1"/><rect fill="#2563EB" height="0" width="1" x="98" y="1"/><rect fill="#2563EB" height="0" width="1" x="99" y="1"/></svg>