<svg xmlns="http://www.w3.org/2000/svg" preserveAspectRatio="none" viewBox="0 0 100 1"><rect fill="#2563EB" height="0.832695024716007" width="1" x="0" y="0.16730497528399302"/><rect fill="#2563EB" height="0.8576991849868517" width="1" x="1" y="0.14230081501314829"/><rect fill="#2563EB" height="0.8113421444436115" width="1" x="2" y="0.18865785555638848"/><rect fill="#2563EB" height="0.8487705874994335" width="1" x="3" y="0.15122941250056654"/><rect fill="#2563EB" height="0.7788189969512473" width="1" x="4" y="0.22118100304875266"/><rect fill="#2563EB" height="0.9610208679472916" width="1" x="5" y="0.03897913205270842"/><rect fill="#2563EB" height="0.7260711593108025" width="1" x="6" y="0.27392884068919754"/><rect fill="#2563EB" height="0.770185905294523" width="1" x="7" y="0.22981409470547698"/><rect fill="#2563EB" height="0.8477258947656803" width="1" x="8" y="0.15227410523431972"/><rect fill="#2563EB" height="0.9153278701947329" width="1" x="9" y="0.08467212980526706"/><rect fill="#2563EB" height="0.8739910318823194" width="1" x="10" y="0.1260089681176806"/><rect fill="#2563EB" height="0.7568288117779709" width="1" x="11" y="0.2431711882220291"/><rect fill="#2563EB" height="0.8633729220299786" width="1" x="12" y="0.13662707797002138"/><rect fill="#2563EB" height="0.8689366199888223" width="1" x="13" y="0.13106338001117768"/><rect fill="#2563EB" height="0.7389442951133242" width="1" x="14" y="0.26105570488667584"/><rect fill="#2563EB" height="0.7293231568304133" width="1" x="15" y="0.27067684316958673"/><rect fill="#2563EB" height="0.7903580961901366" width="1" x="16" y="0.20964190380986336"/><rect fill="#2563EB" height="0.7777068865945568" width="1" x="17" y="0.22229311340544322"/><rect fill="#2563EB" height="0.7767185687915054" width="1" x="18" y="0.22328143120849464"/><rect fill="#2563EB" height="0.8249106110797911" width="1" x="19" y="0.17508938892020887"/><rect fill="#2563EB" height="0.9066586485965176" width="1" x="20" y="0.09334135140348243"/><rect fill="#2563EB" height="0.87064221194275" width="1" x="21" y="0.12935778805724996"/><rect fill="#2563EB" height="0.8581544683100488" width="1" x="22" y="0.14184553168995118"/><rect fill="#2563EB" height="0.8060632564674821" width="1" x="23" y="0.19393674353251789"/><rect fill="#2563EB" height="0.74947171013189" width="1" x="24" y="0.25052828986811004"/><rect fill="#2563EB" height="0.7181005612997803" width="1" x="25" y="0.2818994387002197"/><rect fill="#2563EB" height="0.7526319030601045" width="1" x="26" y="0.24736809693989548"/><rect fill="#2563EB" height="0.7333749784512905" width="1" x="27" y="0.2666250215487095"/><rect fill="#2563EB" height="0.8324052258317514" width="1" x="28" y="0.16759477416824864"/><rect fill="#2563EB" height="0.9300183770813983" width="1" x="29" y="0.06998162291860166"/><rect fill="#2563EB" height="0.8201662828262422" width="1" x="30" y="0.17983371717375785"/><rect fill="#2563EB" height="0.8622894984290639" width="1" x="31" y="0.13771050157093612"/><rect fill="#2563EB" height="0.7976759752682557" width="1" x="32" y="0.20232402473174427"/><rect fill="#2563EB" height="0.9739091684254115" width="1" x="33" y="0.02609083157458847"/><rect fill="#2563EB" height="0.9062285219353592" width="1" x="34" y="0.09377147806464081"/><rect fill="#2563EB" height="0.8983974550913375" width="1" x="35" y="0.1016025449086625"/><rect fill="#2563EB" height="0.9225254325288794" width="1" x="36" y="0.07747456747112058"/><rect fill="#2563EB" height="0.8423430416949247" width="1" x="37" y="0.1576569583050753"/><rect fill="#2563EB" height="0.8166127470248151" width="1" x="38" y="0.18338725297518488"/><rect fill="#2563EB" height="0.8574783635931513" width="1" x="39" y="0.14252163640684867"/><rect fill="#2563EB" height="0.7596063759155269" width="1" x="40" y="0.24039362408447307"/><rect fill="#2563EB" height="0.7754745429399515" width="1" x="41" y="0.22452545706004845"/><rect fill="#2563EB" height="0.7662654290972393" width="1" x="42" y="0.23373457090276073"/><rect fill="#2563EB" height="0.8871801265280487" width="1" x="43" y="0.11281987347195133"/><rect fill="#2563EB" height="1" width="1" x="44" y="0"/><rect fill="#2563EB" height="0.7447362616477434" width="1" x="45" y="0.2552637383522566"/><rect fill="#2563EB" height="0.6819741870064022" width="1" x="46" y="0.3180258129935978"/><rect fill="#2563EB" height="0.8189848219277667" width="1" x="47" y="0.18101517807223333"/><rect fill="#2563EB" height="0.7730229528238246" width="1" x="48" y="0.2269770471761754"/><rect fill="#2563EB" height="0.9092949438411084" width="1" x="49" y="0.09070505615889157"/><rect fill="#2563EB" height="0.8718039779137797" width="1" x="50" y="0.12819602208622027"/><rect fill="#2563EB" height="0.7270003962127282" width="1" x="51" y="0.27299960378727184"/><rect fill="#2563EB" height="0.8848048874400201" width="1" x="52" y="0.11519511255997994"/><rect fill="#2563EB" height="0.6890899751010222" width="1" x="53" y="0.3109100248989778"/><rect fill="#2563EB" height="0.7109449996267722" width="1" x="54" y="0.28905500037322784"/><rect fill="#2563EB" height="0.7475436166805913" width="1" x="55" y="0.2524563833194087"/><rect fill="#2563EB" height="0.8524675933685223" width="1" x="56" y="0.1475324066314777"/><rect fill="#2563EB" height="0.9601132251596833" width="1" x="57" y="0.03988677484031666"/><rect fill="#2563EB" height="0.752570534944566" width="1" x="58" y="0.24742946505543395"/><rect fill="#2563EB" height="0.7388862562457227" width="1" x="59" y="0.2611137437542773"/><rect fill="#2563EB" height="0.8182665576648667" width="1" x="60" y="0.18173344233513333"/><rect fill="#2563EB" height="0.7733772842747261" width="1" x="61" y="0.22662271572527393"/><rect fill="#2563EB" height="0.890648044746926" width="1" x="62" y="0.10935195525307395"/><rect fill="#2563EB" height="0.7735638478211011" width="1" x="63" y="0.2264361521788989"/><rect fill="#2563EB" height="0.7989261539661096" width="1" x="64" y="0.20107384603389045"/><rect fill="#2563EB" height="0.8080452588206455" width="1" x="65" y="0.19195474117935452"/><rect fill="#2563EB" height="0.690686049865087" width="1" x="66" y="0.30931395013491303"/><rect fill="#2563EB" height="0.8784166617255638" width="1" x="67" y="0.12158333827443624"/><rect fill="#2563EB" height="0.8361327401257925" width="1" x="68" y="0.16386725987420747"/><rect fill="#2563EB" height="0.8075174580521379" width="1" x="69" y="0.19248254194786207"/><rect fill="#2563EB" height="0.8094517585225577" width="1" x="70" y="0.19054824147744231"/><rect fill="#2563EB" height="0.7511161610645711" width="1" x="71" y="0.24888383893542887"/><rect fill="#2563EB" height="0.7616266192420184" width="1" x="72" y="0.23837338075798165"/><rect fill="#2563EB" height="0.9353350880341977" width="1" x="73" y="0.06466491196580226"/><rect fill="#2563EB" height="0.6960930137142134" width="1" x="74" y="0.3039069862857866"/><rect fill="#2563EB" height="0.8563197531094853" width="1" x="75" y="0.14368024689051473"/><rect fill="#2563EB" height="0.8318978713802724" width="1" x="76" y="0.16810212861972762"/><rect fill="#2563EB" height="0.6842111462139225" width="1" x="77" y="0.31578885378607746"/><rect fill="#2563EB" height="0.7439576324731548" width="1" x="78" y="0.25604236752684517"/><rect fill="#2563EB" height="0.8420905309105645" width="1" x="79" y="0.15790946908943548"/><rect fill="#2563EB" height="0.7544186517589864" width="1" x="80" y="0.24558134824101363"/><rect fill="#2563EB" height="0.9927261618119788" width="1" x="81" y="0.007273838188021187"/><rect fill="#2563EB" height="0.8244638842325718" width="1" x="82" y="0.17553611576742822"/><rect fill="#2563EB" height="0.8593133281583074" width="1" x="83" y="0.1406866718416926"/><rect fill="#2563EB" height="0.8708252496325632" width="1" x="84" y="0.12917475036743675"/><rect fill="#2563EB" height="0.7437275689380459" width="1" x="85" y="0.2562724310619541"/><rect fill="#2563EB" height="0.744656229455019" width="1" x="86" y="0.25534377054498103"/><rect fill="#2563EB" height="0.7959740279547398" width="1" x="87" y="0.20402597204526018"/><rect fill="#2563EB" height="0.9002484557139921" width="1" x="88" y="0.09975154428600785"/><rect fill="#2563EB" height="0.9710496995697614" width="1" x="89" y="0.028950300430238607"/><rect fill="#2563EB" height="0.8214671206218466" width="1" x="90" y="0.17853287937815343"/><rect fill="#2563EB" height="0.8823794104917834" width="1" x="91" y="0.11762058950821663"/><rect fill="#2563EB" height="0.886601638001449" width="1" x="92" y="0.11339836199855102"/><rect fill="#2563EB" height="0.7396528148859906" width="1" x="93" y="0.26034718511400945"/><rect fill="#2563EB" height="0.8667479188789614" width="1" x="94" y="0.1332520811210386"/><rect fill="#2563EB" height="0.8480539102546399" width="1" x="95" y="0.15194608974536006"/><rect fill="#2563EB" height="0.9065084309142487" width="1" x="96" y="0.09349156908575129"/><rect fill="#2563EB" height="0.13516813831642863" width="1" x="97" y="0.8648318616835714"/><rect fill="#2563EB" height="0.014528630129835992" width="1" x="98" y="0.985471369870164"/><rect fill="#2563EB" height="0" width="1" x="99" y="1"/></svg>