<svg xmlns="http://www.w3.org/2000/svg" preserveAspectRatio="none" viewBox="0 0 100 1"><rect fill="#2563EB" height="0.833" width="1" x="0" y="0.167"/><rect fill="#2563EB" height="0.858" width="1" x="1" y="0.142"/><rect fill="#2563EB" height="0.811" width="1" x="2" y="0.188"/><rect fill="#2563EB" height="0.849" width="1" x="3" y="0.151"/><rect fill="#2563EB" height="0.779" width="1" x="4" y="0.220"/><rect fill="#2563EB" height="0.961" width="1" x="5" y="0.039"/><rect fill="#2563EB" height="0.726" width="1" x="6" y="0.274"/><rect fill="#2563EB" height="0.77" width="1" x="7" y="0.229"/><rect fill="#2563EB" height="0.848" width="1" x="8" y="0.152"/><rect fill="#2563EB" height="0.915" width="1" x="9" y="0.084"/><rect fill="#2563EB" height="0.874" width="1" x="10" y="0.126"/><rect fill="#2563EB" height="0.757" width="1" x="11" y="0.243"/><rect fill="#2563EB" height="0.863" width="1" x="12" y="0.137"/><rect fill="#2563EB" height="0.869" width="1" x="13" y="0.131"/><rect fill="#2563EB" height="0.739" width="1" x="14" y="0.261"/><rect fill="#2563EB" height="0.729" width="1" x="15" y="0.271"/><rect fill="#2563EB" height="0.79" width="1" x="16" y="0.209"/><rect fill="#2563EB" height="0.778" width="1" x="17" y="0.221"/><rect fill="#2563EB" height="0.777" width="1" x="18" y="0.222"/><rect fill="#2563EB" height="0.825" width="1" x="19" y="0.175"/><rect fill="#2563EB" height="0.907" width="1" x="20" y="0.092"/><rect fill="#2563EB" height="0.871" width="1" x="21" y="0.129"/><rect fill="#2563EB" height="0.858" width="1" x="22" y="0.142"/><rect fill="#2563EB" height="0.806" width="1" x="23" y="0.193"/><rect fill="#2563EB" height="0.749" width="1" x="24" y="0.251"/><rect fill="#2563EB" height="0.718" width="1" x="25" y="0.282"/><rect fill="#2563EB" height="0.753" width="1" x="26" y="0.247"/><rect fill="#2563EB" height="0.733" width="1" x="27" y="0.267"/><rect fill="#2563EB" height="0.832" width="1" x="28" y="0.168"/><rect fill="#2563EB" height="0.93" width="1" x="29" y="0.069"/><rect fill="#2563EB" height="0.82" width="1" x="30" y="0.180"/><rect fill="#2563EB" height="0.862" width="1" x="31" y="0.138"/><rect fill="#2563EB" height="0.798" width="1" x="32" y="0.201"/><rect fill="#2563EB" height="0.974" width="1" x="33" y="0.026"/><rect fill="#2563EB" height="0.906" width="1" x="34" y="0.093"/><rect fill="#2563EB" height="0.898" width="1" x="35" y="0.101"/><rect fill="#2563EB" height="0.923" width="1" x="36" y="0.076"/><rect fill="#2563EB" height="0.842" width="1" x="37" y="0.158"/><rect fill="#2563EB" height="0.817" width="1" x="38" y="0.183"/><rect fill="#2563EB" height="0.857" width="1" x="39" y="0.143"/><rect fill="#2563EB" height="0.76" width="1" x="40" y="0.24"/><rect fill="#2563EB" height="0.775" width="1" x="41" y="0.224"/><rect fill="#2563EB" height="0.766" width="1" x="42" y="0.233"/><rect fill="#2563EB" height="0.887" width="1" x="43" y="0.112"/><rect fill="#2563EB" height="1" width="1" x="44" y="0"/><rect fill="#2563EB" height="0.745" width="1" x="45" y="0.255"/><rect fill="#2563EB" height="0.682" width="1" x="46" y="0.317"/><rect fill="#2563EB" height="0.819" width="1" x="47" y="0.181"/><rect fill="#2563EB" height="0.773" width="1" x="48" y="0.226"/><rect fill="#2563EB" height="0.909" width="1" x="49" y="0.090"/><rect fill="#2563EB" height="0.872" width="1" x="50" y="0.128"/><rect fill="#2563EB" height="0.727" width="1" x="51" y="0.273"/><rect fill="#2563EB" height="0.885" width="1" x="52" y="0.114"/><rect fill="#2563EB" height="0.689" width="1" x="53" y="0.311"/><rect fill="#2563EB" height="0.711" width="1" x="54" y="0.289"/><rect fill="#2563EB" height="0.748" width="1" x="55" y="0.252"/><rect fill="#2563EB" height="0.852" width="1" x="56" y="0.148"/><rect fill="#2563EB" height="0.96" width="1" x="57" y="0.040"/><rect fill="#2563EB" height="0.753" width="1" x="58" y="0.247"/><rect fill="#2563EB" height="0.739" width="1" x="59" y="0.261"/><rect fill="#2563EB" height="0.818" width="1" x="60" y="0.182"/><rect fill="#2563EB" height="0.773" width="1" x="61" y="0.226"/><rect fill="#2563EB" height="0.891" width="1" x="62" y="0.108"/><rect fill="#2563EB" height="0.774" width="1" x="63" y="0.225"/><rect fill="#2563EB" height="0.799" width="1" x="64" y="0.200"/><rect fill="#2563EB" height="0.808" width="1" x="65" y="0.191"/><rect fill="#2563EB" height="0.691" width="1" x="66" y="0.309"/><rect fill="#2563EB" height="0.878" width="1" x="67" y="0.122"/><rect fill="#2563EB" height="0.836" width="1" x="68" y="0.164"/><rect fill="#2563EB" height="0.808" width="1" x="69" y="0.191"/><rect fill="#2563EB" height="0.809" width="1" x="70" y="0.190"/><rect fill="#2563EB" height="0.751" width="1" x="71" y="0.249"/><rect fill="#2563EB" height="0.762" width="1" x="72" y="0.238"/><rect fill="#2563EB" height="0.935" width="1" x="73" y="0.064"/><rect fill="#2563EB" height="0.696" width="1" x="74" y="0.304"/><rect fill="#2563EB" height="0.856" width="1" x="75" y="0.144"/><rect fill="#2563EB" height="0.832" width="1" x="76" y="0.168"/><rect fill="#2563EB" height="0.684" width="1" x="77" y="0.315"/><rect fill="#2563EB" height="0.744" width="1" x="78" y="0.256"/><rect fill="#2563EB" height="0.842" width="1" x="79" y="0.158"/><rect fill="#2563EB" height="0.754" width="1" x="80" y="0.246"/><rect fill="#2563EB" height="0.993" width="1" x="81" y="0.007"/><rect fill="#2563EB" height="0.824" width="1" x="82" y="0.176"/><rect fill="#2563EB" height="0.859" width="1" x="83" y="0.141"/><rect fill="#2563EB" height="0.871" width="1" x="84" y="0.129"/><rect fill="#2563EB" height="0.744" width="1" x="85" y="0.256"/><rect fill="#2563EB" height="0.745" width="1" x="86" y="0.255"/><rect fill="#2563EB" height="0.796" width="1" x="87" y="0.203"/><rect fill="#2563EB" height="0.9" width="1" x="88" y="0.099"/><rect fill="#2563EB" height="0.971" width="1" x="89" y="0.029"/><rect fill="#2563EB" height="0.821" width="1" x="90" y="0.179"/><rect fill="#2563EB" height="0.882" width="1" x="91" y="0.118"/><rect fill="#2563EB" height="0.887" width="1" x="92" y="0.112"/><rect fill="#2563EB" height="0.74" width="1" x="93" y="0.26"/><rect fill="#2563EB" height="0.867" width="1" x="94" y="0.133"/><rect fill="#2563EB" height="0.848" width="1" x="95" y="0.152"/><rect fill="#2563EB" height="0.907" width="1" x="96" y="0.092"/><rect fill="#2563EB" height="0.135" width="1" x="97" y="0.865"/><rect fill="#2563EB" height="0.015" width="1" x="98" y="0.985"/><rect fill="#2563EB" height="0" width="1" x="99" y="1"/></svg>