<svg xmlns="http://www.w3.org/2000/svg" preserveAspectRatio="none" viewBox="0 0 100 1"><rect fill="#2563EB" height="0.000044994104744480426" width="1" x="0" y="0.9999550058952555"/><rect fill="#2563EB" height="0.6396587920216839" width="1" x="1" y="0.36034120797831615"/><rect fill="#2563EB" height="0.6729272286149325" width="1" x="2" y="0.3270727713850675"/><rect fill="#2563EB" height="0.7682353996845229" width="1" x="3" y="0.23176460031547708"/><rect fill="#2563EB" height="0.6766430869271673" width="1" x="4" y="0.32335691307283265"/><rect fill="#2563EB" height="0.7853794605185009" width="1" x="5" y="0.21462053948149906"/><rect fill="#2563EB" height="0.6907930449454964" width="1" x="6" y="0.3092069550545036"/><rect fill="#2563EB" height="0.7004239119604674" width="1" x="7" y="0.2995760880395326"/><rect fill="#2563EB" height="0.7858099732307332" width="1" x="8" y="0.2141900267692668"/><rect fill="#2563EB" height="0.8038366486482128" width="1" x="9" y="0.1961633513517872"/><rect fill="#2563EB" height="0.8784542856277684" width="1" x="10" y="0.1215457143722316"/><rect fill="#2563EB" height="0.7386616948938334" width="1" x="11" y="0.2613383051061666"/><rect fill="#2563EB" height="0.878231028265976" width="1" x="12" y="0.12176897173402401"/><rect fill="#2563EB" height="0.7804781987391424" width="1" x="13" y="0.21952180126085763"/><rect fill="#2563EB" height="0.8544594187693402" width="1" x="14" y="0.14554058123065983"/><rect fill="#2563EB" height="0.8240418163957217" width="1" x="15" y="0.17595818360427828"/><rect fill="#2563EB" height="0.9372904896986313" width="1" x="16" y="0.06270951030136873"/><rect fill="#2563EB" height="0.921993844272814" width="1" x="17" y="0.07800615572718606"/><rect fill="#2563EB" height="0.9111722825075299" width="1" x="18" y="0.08882771749247009"/><rect fill="#2563EB" height="0.9172060832305813" width="1" x="19" y="0.08279391676941872"/><rect fill="#2563EB" height="0.9158693853587556" width="1" x="20" y="0.08413061464124438"/><rect fill="#2563EB" height="0.9702585892708144" width="1" x="21" y="0.02974141072918557"/><rect fill="#2563EB" height="0.9388669088112492" width="1" x="22" y="0.061133091188750766"/><rect fill="#2563EB" height="0.8953229392254212" width="1" x="23" y="0.10467706077457883"/><rect fill="#2563EB" height="0.96390166318764" width="1" x="24" y="0.036098336812359966"/><rect fill="#2563EB" height="0.9398726423995378" width="1" x="25" y="0.06012735760046217"/><rect fill="#2563EB" height="0.9729341506697539" width="1" x="26" y="0.02706584933024614"/><rect fill="#2563EB" height="0.9178329187100059" width="1" x="27" y="0.08216708128999406"/><rect fill="#2563EB" height="0.9555247633910656" width="1" x="28" y="0.044475236608934376"/><rect fill="#2563EB" height="0.939990646890417" width="1" x="29" y="0.060009353109583"/><rect fill="#2563EB" height="0.9244687127698148" width="1" x="30" y="0.0755312872301852"/><rect fill="#2563EB" height="0.933648848370887" width="1" x="31" y="0.06635115162911298"/><rect fill="#2563EB" height="0.9267192550967088" width="1" x="32" y="0.07328074490329117"/><rect fill="#2563EB" height="0.9972519928119443" width="1" x="33" y="0.002748007188055679"/><rect fill="#2563EB" height="0.9422294627897603" width="1" x="34" y="0.057770537210239725"/><rect fill="#2563EB" height="0.9841024823651026" width="1" x="35" y="0.01589751763489744"/><rect fill="#2563EB" height="0.9985925023514745" width="1" x="36" y="0.0014074976485255464"/><rect fill="#2563EB" height="0.9434670339892651" width="1" x="37" y="0.056532966010734875"/><rect fill="#2563EB" height="0.9291117516491779" width="1" x="38" y="0.07088824835082208"/><rect fill="#2563EB" height="0.9271518562281437" width="1" x="39" y="0.07284814377185633"/><rect fill="#2563EB" height="0.9871481185746577" width="1" x="40" y="0.012851881425342326"/><rect fill="#2563EB" height="0.9406289000982041" width="1" x="41" y="0.0593710999017959"/><rect fill="#2563EB" height="0.9725300111334984" width="1" x="42" y="0.02746998886650165"/><rect fill="#2563EB" height="0.9251848254038405" width="1" x="43" y="0.0748151745961595"/><rect fill="#2563EB" height="0.9665701772624935" width="1" x="44" y="0.0334298227375065"/><rect fill="#2563EB" height="0.9352472819705359" width="1" x="45" y="0.06475271802946414"/><rect fill="#2563EB" height="0.9162840343551579" width="1" x="46" y="0.08371596564484207"/><rect fill="#2563EB" height="1" width="1" x="47" y="0"/><rect fill="#2563EB" height="0.9525893172947357" width="1" x="48" y="0.04741068270526427"/><rect fill="#2563EB" height="0.9641107066238009" width="1" x="49" y="0.03588929337619906"/><rect fill="#2563EB" height="0.9412570161496094" width="1" x="50" y="0.05874298385039056"/><rect fill="#2563EB" height="0.48142389575766487" width="1" x="51" y="0.5185761042423351"/><rect fill="#2563EB" height="0.40094526218081533" width="1" x="52" y="0.5990547378191846"/><rect fill="#2563EB" height="0.42546168118708744" width="1" x="53" y="0.5745383188129125"/><rect fill="#2563EB" height="0.4164353632833315" width="1" x="54" y="0.5835646367166685"/><rect fill="#2563EB" height="0.42116833773509693" width="1" x="55" y="0.578831662264903"/><rect fill="#2563EB" height="0.43770433170565864" width="1" x="56" y="0.5622956682943414"/><rect fill="#2563EB" height="0.38670026221813936" width="1" x="57" y="0.6132997377818606"/><rect fill="#2563EB" height="0.9358977508448678" width="1" x="58" y="0.06410224915513218"/><rect fill="#2563EB" height="0.8871208969598205" width="1" x="59" y="0.11287910304017945"/><rect fill="#2563EB" height="0.9162897737169096" width="1" x="60" y="0.08371022628309044"/><rect fill="#2563EB" height="0.8693294423282074" width="1" x="61" y="0.1306705576717926"/><rect fill="#2563EB" height="0.8662322356843497" width="1" x="62" y="0.1337677643156503"/><rect fill="#2563EB" height="0.951700381037874" width="1" x="63" y="0.04829961896212598"/><rect fill="#2563EB" height="0.9982997562473532" width="1" x="64" y="0.0017002437526467684"/><rect fill="#2563EB" height="0.9649631219258189" width="1" x="65" y="0.0350368780741811"/><rect fill="#2563EB" height="0.9086661749421389" width="1" x="66" y="0.09133382505786114"/><rect fill="#2563EB" height="0.9032072786109682" width="1" x="67" y="0.09679272138903183"/><rect fill="#2563EB" height="0.94373780532053" width="1" x="68" y="0.05626219467947002"/><rect fill="#2563EB" height="0.8682312309106416" width="1" x="69" y="0.13176876908935842"/><rect fill="#2563EB" height="0.9087741920771137" width="1" x="70" y="0.09122580792288626"/><rect fill="#2563EB" height="0.9103754281434085" width="1" x="71" y="0.08962457185659145"/><rect fill="#2563EB" height="0.9059461243306256" width="1" x="72" y="0.0940538756693744"/><rect fill="#2563EB" height="0.8501230461831399" width="1" x="73" y="0.14987695381686006"/><rect fill="#2563EB" height="0.8752688509161102" width="1" x="74" y="0.12473114908388983"/><rect fill="#2563EB" height="0.9193503614584584" width="1" x="75" y="0.08064963854154161"/><rect fill="#2563EB" height="0.8711846045215316" width="1" x="76" y="0.12881539547846843"/><rect fill="#2563EB" height="0.9316357580206477" width="1" x="77" y="0.06836424197935231"/><rect fill="#2563EB" height="0.8838193334089383" width="1" x="78" y="0.11618066659106174"/><rect fill="#2563EB" height="0.9031502567513485" width="1" x="79" y="0.09684974324865148"/><rect fill="#2563EB" height="0.8996150325297714" width="1" x="80" y="0.10038496747022863"/><rect fill="#2563EB" height="0.8991043936552425" width="1" x="81" y="0.10089560634475747"/><rect fill="#2563EB" height="0.9099541566348328" width="1" x="82" y="0.09004584336516719"/><rect fill="#2563EB" height="0.9091059666203815" width="1" x="83" y="0.09089403337961854"/><rect fill="#2563EB" height="0.9475596757025767" width="1" x="84" y="0.05244032429742329"/><rect fill="#2563EB" height="0.9516075569873671" width="1" x="85" y="0.0483924430126329"/><rect fill="#2563EB" height="0.9301130273468342" width="1" x="86" y="0.06988697265316579"/><rect fill="#2563EB" height="0.9016086241458553" width="1" x="87" y="0.0983913758541447"/><rect fill="#2563EB" height="0.9347937986302175" width="1" x="88" y="0.0652062013697825"/><rect fill="#2563EB" height="0.927665121903378" width="1" x="89" y="0.07233487809662198"/><rect fill="#2563EB" height="0.9393437363709527" width="1" x="90" y="0.0606562636290473"/><rect fill="#2563EB" height="0.9546807740067906" width="1" x="91" y="0.04531922599320937"/><rect fill="#2563EB" height="0.9575654695136251" width="1" x="92" y="0.04243453048637491"/><rect fill="#2563EB" height="0.9195357173374964" width="1" x="93" y="0.0804642826625036"/><rect fill="#2563EB" height="0.9251795329073332" width="1" x="94" y="0.07482046709266676"/><rect fill="#2563EB" height="0.9459932185223081" width="1" x="95" y="0.05400678147769189"/><rect fill="#2563EB" height="0.9621026143152166" width="1" x="96" y="0.0378973856847834"/><rect fill="#2563EB" height="0.5926159002676212" width="1" x="97" y="0.40738409973237877"/><rect fill="#2563EB" height="0.22049929143535238" width="1" x="98" y="0.7795007085646476"/><rect fill="#2563EB" height="0.029834111889948563" width="1" x="99" y="0.9701658881100514"/></svg>