<svg xmlns="http://www.w3.org/2000/svg" preserveAspectRatio="none" viewBox="0 0 100 1"><rect fill="#2563EB" height="0" width="1" x="0" y="1"/><rect fill="#2563EB" height="0.64" width="1" x="1" y="0.36"/><rect fill="#2563EB" height="0.673" width="1" x="2" y="0.326"/><rect fill="#2563EB" height="0.768" width="1" x="3" y="0.231"/><rect fill="#2563EB" height="0.677" width="1" x="4" y="0.322"/><rect fill="#2563EB" height="0.785" width="1" x="5" y="0.214"/><rect fill="#2563EB" height="0.691" width="1" x="6" y="0.309"/><rect fill="#2563EB" height="0.7" width="1" x="7" y="0.300"/><rect fill="#2563EB" height="0.786" width="1" x="8" y="0.213"/><rect fill="#2563EB" height="0.804" width="1" x="9" y="0.195"/><rect fill="#2563EB" height="0.878" width="1" x="10" y="0.122"/><rect fill="#2563EB" height="0.739" width="1" x="11" y="0.261"/><rect fill="#2563EB" height="0.878" width="1" x="12" y="0.122"/><rect fill="#2563EB" height="0.78" width="1" x="13" y="0.219"/><rect fill="#2563EB" height="0.854" width="1" x="14" y="0.146"/><rect fill="#2563EB" height="0.824" width="1" x="15" y="0.176"/><rect fill="#2563EB" height="0.937" width="1" x="16" y="0.062"/><rect fill="#2563EB" height="0.922" width="1" x="17" y="0.077"/><rect fill="#2563EB" height="0.911" width="1" x="18" y="0.088"/><rect fill="#2563EB" height="0.917" width="1" x="19" y="0.082"/><rect fill="#2563EB" height="0.916" width="1" x="20" y="0.083"/><rect fill="#2563EB" height="0.97" width="1" x="21" y="0.030"/><rect fill="#2563EB" height="0.939" width="1" x="22" y="0.061"/><rect fill="#2563EB" height="0.895" width="1" x="23" y="0.104"/><rect fill="#2563EB" height="0.964" width="1" x="24" y="0.036"/><rect fill="#2563EB" height="0.94" width="1" x="25" y="0.060"/><rect fill="#2563EB" height="0.973" width="1" x="26" y="0.027"/><rect fill="#2563EB" height="0.918" width="1" x="27" y="0.081"/><rect fill="#2563EB" height="0.956" width="1" x="28" y="0.044"/><rect fill="#2563EB" height="0.94" width="1" x="29" y="0.060"/><rect fill="#2563EB" height="0.924" width="1" x="30" y="0.075"/><rect fill="#2563EB" height="0.934" width="1" x="31" y="0.065"/><rect fill="#2563EB" height="0.927" width="1" x="32" y="0.072"/><rect fill="#2563EB" height="0.997" width="1" x="33" y="0.003"/><rect fill="#2563EB" height="0.942" width="1" x="34" y="0.058"/><rect fill="#2563EB" height="0.984" width="1" x="35" y="0.016"/><rect fill="#2563EB" height="0.999" width="1" x="36" y="0.001"/><rect fill="#2563EB" height="0.943" width="1" x="37" y="0.057"/><rect fill="#2563EB" height="0.929" width="1" x="38" y="0.070"/><rect fill="#2563EB" height="0.927" width="1" x="39" y="0.072"/><rect fill="#2563EB" height="0.987" width="1" x="40" y="0.013"/><rect fill="#2563EB" height="0.941" width="1" x="41" y="0.059"/><rect fill="#2563EB" height="0.973" width="1" x="42" y="0.027"/><rect fill="#2563EB" height="0.925" width="1" x="43" y="0.074"/><rect fill="#2563EB" height="0.967" width="1" x="44" y="0.033"/><rect fill="#2563EB" height="0.935" width="1" x="45" y="0.064"/><rect fill="#2563EB" height="0.916" width="1" x="46" y="0.083"/><rect fill="#2563EB" height="1" width="1" x="47" y="0"/><rect fill="#2563EB" height="0.953" width="1" x="48" y="0.047"/><rect fill="#2563EB" height="0.964" width="1" x="49" y="0.036"/><rect fill="#2563EB" height="0.941" width="1" x="50" y="0.059"/><rect fill="#2563EB" height="0.481" width="1" x="51" y="0.519"/><rect fill="#2563EB" height="0.401" width="1" x="52" y="0.599"/><rect fill="#2563EB" height="0.425" width="1" x="53" y="0.575"/><rect fill="#2563EB" height="0.416" width="1" x="54" y="0.584"/><rect fill="#2563EB" height="0.421" width="1" x="55" y="0.579"/><rect fill="#2563EB" height="0.438" width="1" x="56" y="0.562"/><rect fill="#2563EB" height="0.387" width="1" x="57" y="0.613"/><rect fill="#2563EB" height="0.936" width="1" x="58" y="0.063"/><rect fill="#2563EB" height="0.887" width="1" x="59" y="0.112"/><rect fill="#2563EB" height="0.916" width="1" x="60" y="0.083"/><rect fill="#2563EB" height="0.869" width="1" x="61" y="0.131"/><rect fill="#2563EB" height="0.866" width="1" x="62" y="0.134"/><rect fill="#2563EB" height="0.952" width="1" x="63" y="0.048"/><rect fill="#2563EB" height="0.998" width="1" x="64" y="0.002"/><rect fill="#2563EB" height="0.965" width="1" x="65" y="0.035"/><rect fill="#2563EB" height="0.909" width="1" x="66" y="0.090"/><rect fill="#2563EB" height="0.903" width="1" x="67" y="0.096"/><rect fill="#2563EB" height="0.944" width="1" x="68" y="0.056"/><rect fill="#2563EB" height="0.868" width="1" x="69" y="0.132"/><rect fill="#2563EB" height="0.909" width="1" x="70" y="0.090"/><rect fill="#2563EB" height="0.91" width="1" x="71" y="0.089"/><rect fill="#2563EB" height="0.906" width="1" x="72" y="0.093"/><rect fill="#2563EB" height="0.85" width="1" x="73" y="0.150"/><rect fill="#2563EB" height="0.875" width="1" x="74" y="0.125"/><rect fill="#2563EB" height="0.919" width="1" x="75" y="0.080"/><rect fill="#2563EB" height="0.871" width="1" x="76" y="0.129"/><rect fill="#2563EB" height="0.932" width="1" x="77" y="0.067"/><rect fill="#2563EB" height="0.884" width="1" x="78" y="0.115"/><rect fill="#2563EB" height="0.903" width="1" x="79" y="0.096"/><rect fill="#2563EB" height="0.9" width="1" x="80" y="0.099"/><rect fill="#2563EB" height="0.899" width="1" x="81" y="0.100"/><rect fill="#2563EB" height="0.91" width="1" x="82" y="0.089"/><rect fill="#2563EB" height="0.909" width="1" x="83" y="0.090"/><rect fill="#2563EB" height="0.948" width="1" x="84" y="0.052"/><rect fill="#2563EB" height="0.952" width="1" x="85" y="0.048"/><rect fill="#2563EB" height="0.93" width="1" x="86" y="0.069"/><rect fill="#2563EB" height="0.902" width="1" x="87" y="0.097"/><rect fill="#2563EB" height="0.935" width="1" x="88" y="0.064"/><rect fill="#2563EB" height="0.928" width="1" x="89" y="0.071"/><rect fill="#2563EB" height="0.939" width="1" x="90" y="0.061"/><rect fill="#2563EB" height="0.955" width="1" x="91" y="0.045"/><rect fill="#2563EB" height="0.958" width="1" x="92" y="0.042"/><rect fill="#2563EB" height="0.92" width="1" x="93" y="0.079"/><rect fill="#2563EB" height="0.925" width="1" x="94" y="0.074"/><rect fill="#2563EB" height="0.946" width="1" x="95" y="0.054"/><rect fill="#2563EB" height="0.962" width="1" x="96" y="0.038"/><rect fill="#2563EB" height="0.593" width="1" x="97" y="0.407"/><rect fill="#2563EB" height="0.22" width="1" x="98" y="0.78"/><rect fill="#2563EB" height="0.03" width="1" x="99" y="0.97"/></svg>